<svg width="360" height="355" viewBox="0 0 360 355" fill="none" xmlns="http://www.w3.org/2000/svg">
<rect x="50.5" y="15" width="272" height="80" rx="8" fill="#ACABA9" fill-opacity="0.4"/>
<path d="M308.601 1.63184C309.14 1.56534 309.679 1.75306 310.061 2.13965L313.063 5.18262C313.664 5.79081 314 6.61139 314 7.46582V83C314 84.3807 312.881 85.5 311.5 85.5H49.2705C48.915 85.4999 48.5678 85.3917 48.2754 85.1895L42.7803 81.3887C42.2968 81.0542 42.0136 80.4989 42.0264 79.9111L43.4492 14.6279C43.4695 13.6979 44.2138 12.9454 45.1436 12.916L275.973 5.66016H275.996L276.019 5.65723L308.601 1.63184Z" fill="#709ECC"/>
<path d="M308.601 1.63184C309.14 1.56534 309.679 1.75306 310.061 2.13965L313.063 5.18262C313.664 5.79081 314 6.61139 314 7.46582V83C314 84.3807 312.881 85.5 311.5 85.5H49.2705C48.915 85.4999 48.5678 85.3917 48.2754 85.1895L42.7803 81.3887C42.2968 81.0542 42.0136 80.4989 42.0264 79.9111L43.4492 14.6279C43.4695 13.6979 44.2138 12.9454 45.1436 12.916L275.973 5.66016H275.996L276.019 5.65723L308.601 1.63184Z" fill="black" fill-opacity="0.2"/>
<path d="M308.601 1.63184C309.14 1.56534 309.679 1.75306 310.061 2.13965L313.063 5.18262C313.664 5.79081 314 6.61139 314 7.46582V83C314 84.3807 312.881 85.5 311.5 85.5H49.2705C48.915 85.4999 48.5678 85.3917 48.2754 85.1895L42.7803 81.3887C42.2968 81.0542 42.0136 80.4989 42.0264 79.9111L43.4492 14.6279C43.4695 13.6979 44.2138 12.9454 45.1436 12.916L275.973 5.66016H275.996L276.019 5.65723L308.601 1.63184Z" stroke="black"/>
<rect x="42" y="1.5" width="268" height="80" rx="1.5" fill="white"/>
<rect x="42" y="1.5" width="268" height="80" rx="1.5" stroke="black"/>
<path d="M260.5 21V40.689L263.331 42.2836V24.1186H283.676V39.0943L273.507 44.8171L268.999 42.2836V39.1007L273.507 41.6342L280.845 37.5061V27.3722H266.162V43.8719L273.5 48L286.5 40.689V21H260.5ZM268.993 30.5551H278.007V35.905L273.5 38.4384L268.993 35.905V30.5551Z" fill="black"/>
<path d="M263.189 59.2625H262.349V61H261.221V55.6688H263.189C264.488 55.6688 265.297 56.2851 265.297 57.4434C265.297 58.6017 264.488 59.2625 263.189 59.2625ZM263.181 56.6192H262.349V58.3121H263.181C263.82 58.3121 264.176 57.978 264.176 57.4508C264.176 56.9237 263.82 56.6192 263.181 56.6192ZM267.193 61H266.065V55.6688H268.151C269.495 55.6688 270.275 56.2925 270.275 57.3989C270.275 58.1191 269.829 58.6908 269.072 58.9433L270.445 61H269.101L267.899 59.114H267.193V61ZM267.193 56.6044V58.1859H268.099C268.782 58.1859 269.146 57.9186 269.146 57.3989C269.146 56.8717 268.782 56.6044 268.099 56.6044H267.193ZM272.276 61H271.147V55.6688H272.276V61ZM277.955 55.6688L276.024 61H274.792L272.876 55.6688H274.094L275.445 59.6858L276.826 55.6688H277.955ZM281.274 61L280.873 59.8565H278.801L278.393 61H277.257L279.261 55.6688H280.494L282.484 61H281.274ZM279.848 56.9014L279.12 58.9581H280.561L279.848 56.9014ZM285.06 61H283.931V56.6861H282.253V55.6688H286.745V56.6861H285.06V61ZM291.005 60.0199V61H287.419V55.6688H290.953V56.6489H288.547V57.7701H290.73V58.7428H288.547V60.0199H291.005ZM260.323 69.1114C258.823 69.1114 257.65 67.8937 257.65 66.327C257.65 64.7677 258.823 63.5575 260.323 63.5575C261.726 63.5575 262.825 64.493 263.011 65.8592H261.815C261.689 65.0944 261.095 64.5673 260.338 64.5673C259.424 64.5673 258.808 65.2875 258.808 66.327C258.808 67.3739 259.424 68.1016 260.338 68.1016C261.095 68.1016 261.681 67.567 261.815 66.8022H263.011C262.825 68.1832 261.726 69.1114 260.323 69.1114ZM267.08 69L266.679 67.8565H264.607L264.199 69H263.063L265.068 63.6688H266.3L268.29 69H267.08ZM265.654 64.9014L264.927 66.9581H266.367L265.654 64.9014ZM270.907 67.2625H270.068V69H268.94V63.6688H270.907C272.207 63.6688 273.016 64.2851 273.016 65.4434C273.016 66.6017 272.207 67.2625 270.907 67.2625ZM270.9 64.6192H270.068V66.3121H270.9C271.538 66.3121 271.895 65.978 271.895 65.4508C271.895 64.9237 271.538 64.6192 270.9 64.6192ZM276.152 69H275.024V64.6861H273.345V63.6688H277.838V64.6861H276.152V69ZM280.575 69.1114C279.075 69.1114 277.902 67.8937 277.902 66.327C277.902 64.7677 279.075 63.5575 280.575 63.5575C281.978 63.5575 283.077 64.493 283.263 65.8592H282.067C281.941 65.0944 281.347 64.5673 280.59 64.5673C279.676 64.5673 279.06 65.2875 279.06 66.327C279.06 67.3739 279.676 68.1016 280.59 68.1016C281.347 68.1016 281.933 67.567 282.067 66.8022H283.263C283.077 68.1832 281.978 69.1114 280.575 69.1114ZM285.179 69H284.051V63.6688H285.179V65.7701H287.488V63.6688H288.617V69H287.488V66.7428H285.179V69ZM293.278 69L292.877 67.8565H290.805L290.397 69H289.261L291.265 63.6688H292.498L294.488 69H293.278ZM291.852 64.9014L291.124 66.9581H292.565L291.852 64.9014Z" fill="black"/>
<rect x="60.25" y="28.75" width="25.5" height="25.5" rx="2.625" stroke="black" stroke-width="1.5"/>
<path d="M66.5 41.5L71.1667 46L80.5 37" stroke="white" stroke-width="1.5"/>
<path d="M103.583 46.195C100.983 46.195 99.02 44.076 99.02 41.32C99.02 38.577 100.983 36.471 103.583 36.471C105.806 36.471 107.639 37.966 108.003 40.189H106.976C106.677 38.525 105.299 37.342 103.583 37.342C101.516 37.342 100.021 39.032 100.021 41.32C100.021 43.634 101.516 45.324 103.583 45.324C105.312 45.324 106.69 44.128 106.976 42.464H108.003C107.639 44.687 105.806 46.195 103.583 46.195ZM110.427 46H109.517V36.666H110.427V46ZM113.582 37.563C113.582 37.966 113.283 38.252 112.841 38.252C112.412 38.252 112.113 37.966 112.113 37.563C112.113 37.173 112.412 36.887 112.841 36.887C113.283 36.887 113.582 37.173 113.582 37.563ZM113.309 46H112.399V39.149H113.309V46ZM117.842 46.143C116.035 46.143 114.774 44.674 114.774 42.568C114.774 40.488 116.048 39.019 117.842 39.019C119.441 39.019 120.585 40.085 120.858 41.801H119.935C119.727 40.553 118.947 39.812 117.842 39.812C116.568 39.812 115.697 40.93 115.697 42.568C115.697 44.232 116.568 45.35 117.842 45.35C118.96 45.35 119.727 44.622 119.935 43.348H120.858C120.611 45.09 119.454 46.143 117.842 46.143ZM123.237 46H122.327V36.666H123.237V42.334L126.539 39.149H127.618L124.16 42.503L127.904 46H126.721L123.237 42.711V46ZM135.143 45.129V45.935C134.792 46.078 134.493 46.13 134.155 46.13C133.024 46.13 132.153 45.545 132.153 44.063V39.916H130.541V39.149H132.153V37.121H133.063V39.149H135.208V39.916H133.063V43.868C133.063 44.934 133.583 45.298 134.337 45.298C134.623 45.298 134.857 45.246 135.143 45.129ZM139.111 46.13C137.226 46.13 135.861 44.635 135.861 42.568C135.861 40.514 137.226 39.032 139.111 39.032C141.009 39.032 142.374 40.514 142.374 42.568C142.374 44.635 141.009 46.13 139.111 46.13ZM139.111 45.337C140.45 45.337 141.451 44.271 141.451 42.568C141.451 40.891 140.45 39.825 139.111 39.825C137.785 39.825 136.784 40.891 136.784 42.568C136.784 44.271 137.785 45.337 139.111 45.337ZM151.84 39.149L149.201 46H148.252L145.639 39.149H146.614L148.759 44.934L150.904 39.149H151.84ZM155.385 46.13C153.461 46.13 152.187 44.687 152.187 42.516C152.187 40.514 153.513 39.019 155.333 39.019C157.283 39.019 158.557 40.592 158.401 42.789H153.097C153.175 44.414 154.033 45.415 155.372 45.415C156.516 45.415 157.309 44.778 157.53 43.686H158.427C158.115 45.207 156.958 46.13 155.385 46.13ZM155.32 39.721C154.085 39.721 153.214 40.67 153.097 42.165H157.452C157.374 40.631 156.581 39.721 155.32 39.721ZM160.815 42.334V46H159.905V39.149H160.75V40.709C161.218 39.695 162.232 39.045 163.363 39.045V39.994C161.92 39.942 160.815 40.839 160.815 42.334ZM165.658 37.563C165.658 37.966 165.359 38.252 164.917 38.252C164.488 38.252 164.189 37.966 164.189 37.563C164.189 37.173 164.488 36.887 164.917 36.887C165.359 36.887 165.658 37.173 165.658 37.563ZM165.385 46H164.475V39.149H165.385V46ZM168.865 46H167.955V39.916H166.343V39.149H167.955V38.525C167.955 37.264 168.644 36.562 169.84 36.562C170.152 36.562 170.425 36.614 170.659 36.705V37.459C170.438 37.368 170.23 37.355 169.996 37.355C169.268 37.355 168.865 37.719 168.865 38.525V39.149H170.88V39.916H168.865V46ZM177.244 39.149L173.734 48.509H172.759L173.76 45.909L171.043 39.149H172.018L174.228 44.817L176.321 39.149H177.244Z" fill="black"/>
<rect x="102" y="124.131" width="159" height="46" rx="7.48607" fill="#585858" fill-opacity="0.4"/>
<path d="M254.665 118.575C254.918 118.544 255.171 118.632 255.351 118.812L257.122 120.598C257.439 120.917 257.618 121.35 257.618 121.801V166.114C257.618 166.813 257.051 167.38 256.353 167.38H101.583C101.416 167.38 101.254 167.33 101.116 167.235L97.8721 165.004C97.6436 164.847 97.5097 164.585 97.5156 164.308L98.3555 126.005C98.3653 125.567 98.7156 125.213 99.1533 125.199L235.387 120.941L235.409 120.94L235.432 120.938L254.665 118.575Z" fill="#719FCD" stroke="black"/>
<rect x="97.5" y="118.5" width="157.911" height="46.6732" rx="0.824256" fill="#0E0F0E"/>
<rect x="97.5" y="118.5" width="157.911" height="46.6732" rx="0.824256" stroke="black"/>
<path d="M225.883 129.417V141.004L227.506 141.943V131.252H239.173V140.066L233.341 143.434L230.757 141.943V140.07L233.341 141.561L237.55 139.131V133.167H229.13V142.877L233.338 145.307L240.793 141.004V129.417H225.883ZM230.753 135.04H235.922V138.189L233.338 139.68L230.753 138.189V135.04Z" fill="#FAF8F5"/>
<path d="M225.836 151.432H225.342V152.454H224.678V149.316H225.836C226.601 149.316 227.077 149.679 227.077 150.361C227.077 151.043 226.601 151.432 225.836 151.432ZM225.832 149.876H225.342V150.872H225.832C226.207 150.872 226.417 150.675 226.417 150.365C226.417 150.055 226.207 149.876 225.832 149.876ZM228.193 152.454H227.529V149.316H228.757C229.548 149.316 230.006 149.683 230.006 150.335C230.006 150.759 229.744 151.095 229.299 151.244L230.107 152.454H229.316L228.608 151.344H228.193V152.454ZM228.193 149.867V150.798H228.726C229.128 150.798 229.342 150.641 229.342 150.335C229.342 150.024 229.128 149.867 228.726 149.867H228.193ZM231.184 152.454H230.52V149.316H231.184V152.454ZM234.527 149.316L233.391 152.454H232.665L231.538 149.316H232.254L233.05 151.681L233.863 149.316H234.527ZM236.48 152.454L236.244 151.781H235.025L234.784 152.454H234.116L235.296 149.316H236.021L237.192 152.454H236.48ZM235.641 150.042L235.213 151.252H236.061L235.641 150.042ZM238.709 152.454H238.044V149.915H237.057V149.316H239.701V149.915H238.709V152.454ZM242.208 151.877V152.454H240.097V149.316H242.177V149.893H240.761V150.553H242.046V151.126H240.761V151.877H242.208ZM224.149 157.52C223.266 157.52 222.576 156.803 222.576 155.881C222.576 154.963 223.266 154.251 224.149 154.251C224.975 154.251 225.622 154.801 225.731 155.606H225.028C224.953 155.155 224.604 154.845 224.158 154.845C223.62 154.845 223.258 155.269 223.258 155.881C223.258 156.497 223.62 156.925 224.158 156.925C224.604 156.925 224.949 156.611 225.028 156.161H225.731C225.622 156.973 224.975 157.52 224.149 157.52ZM228.126 157.454L227.89 156.781H226.671L226.431 157.454H225.762L226.942 154.316H227.667L228.839 157.454H228.126ZM227.287 155.042L226.859 156.252H227.707L227.287 155.042ZM230.379 156.432H229.885V157.454H229.221V154.316H230.379C231.144 154.316 231.62 154.679 231.62 155.361C231.62 156.043 231.144 156.432 230.379 156.432ZM230.374 154.876H229.885V155.872H230.374C230.75 155.872 230.96 155.675 230.96 155.365C230.96 155.055 230.75 154.876 230.374 154.876ZM233.466 157.454H232.802V154.915H231.814V154.316H234.458V154.915H233.466V157.454ZM236.069 157.52C235.186 157.52 234.496 156.803 234.496 155.881C234.496 154.963 235.186 154.251 236.069 154.251C236.895 154.251 237.541 154.801 237.651 155.606H236.947C236.873 155.155 236.523 154.845 236.077 154.845C235.54 154.845 235.177 155.269 235.177 155.881C235.177 156.497 235.54 156.925 236.077 156.925C236.523 156.925 236.868 156.611 236.947 156.161H237.651C237.541 156.973 236.895 157.52 236.069 157.52ZM238.779 157.454H238.114V154.316H238.779V155.553H240.138V154.316H240.802V157.454H240.138V156.126H238.779V157.454ZM243.545 157.454L243.309 156.781H242.09L241.85 157.454H241.181L242.361 154.316H243.086L244.257 157.454H243.545ZM242.706 155.042L242.278 156.252H243.126L242.706 155.042Z" fill="#FAF8F5"/>
<rect x="107.896" y="134.192" width="15.2868" height="15.2868" rx="1.68422" stroke="#FAF8F5" stroke-width="0.604323"/>
<path d="M131.62 144.272H131.02V138.528H131.62V141.296L134.34 138.528H135.036L132.236 141.392L135.116 144.272H134.34L131.62 141.576V144.272ZM136.47 144.272H135.91V138.528H136.47V144.272ZM138.443 139.576H138.067C138.003 138.928 138.299 138.528 138.771 138.528C139.299 138.528 139.547 139.104 139.899 139.104C140.139 139.104 140.267 138.896 140.267 138.48H140.651C140.707 139.12 140.411 139.528 139.939 139.528C139.411 139.528 139.163 138.952 138.811 138.952C138.579 138.952 138.443 139.16 138.443 139.576ZM139.371 144.352C138.211 144.352 137.371 143.432 137.371 142.16C137.371 140.896 138.211 139.984 139.371 139.984C140.539 139.984 141.379 140.896 141.379 142.16C141.379 143.432 140.539 144.352 139.371 144.352ZM139.371 143.864C140.195 143.864 140.811 143.208 140.811 142.16C140.811 141.128 140.195 140.472 139.371 140.472C138.555 140.472 137.939 141.128 137.939 142.16C137.939 143.208 138.555 143.864 139.371 143.864ZM146.149 142.16C146.149 143.464 145.421 144.352 144.301 144.352C143.669 144.352 143.133 144.008 142.845 143.408V145.816H142.285V140.056H142.805V140.968C143.093 140.344 143.653 139.976 144.301 139.976C145.421 139.976 146.149 140.872 146.149 142.16ZM145.581 142.16C145.581 141.096 145.029 140.464 144.205 140.464C143.421 140.464 142.837 141.088 142.837 142.16C142.837 143.208 143.405 143.864 144.205 143.864C145.029 143.864 145.581 143.24 145.581 142.16ZM150.202 143.096C150.202 143.872 149.578 144.352 148.538 144.352C147.49 144.352 146.85 143.824 146.77 142.952H147.306C147.346 143.552 147.818 143.928 148.538 143.928C149.226 143.928 149.642 143.664 149.642 143.184C149.642 142.768 149.402 142.576 148.762 142.448L148.154 142.328C147.354 142.176 146.93 141.784 146.93 141.176C146.93 140.472 147.554 139.976 148.474 139.976C149.442 139.976 150.082 140.496 150.146 141.336H149.618C149.562 140.752 149.138 140.408 148.474 140.408C147.882 140.408 147.474 140.688 147.474 141.128C147.474 141.544 147.73 141.744 148.354 141.864L148.986 141.984C149.826 142.144 150.202 142.496 150.202 143.096ZM153.767 144.272V143.504C153.519 144.032 153.007 144.352 152.351 144.352C151.479 144.352 150.911 143.864 150.911 143.104C150.911 142.28 151.567 141.848 152.847 141.848C153.103 141.848 153.295 141.864 153.711 141.896V141.544C153.711 140.84 153.335 140.424 152.695 140.424C152.007 140.424 151.575 140.848 151.567 141.536H151.055C151.079 140.6 151.727 139.976 152.687 139.976C153.671 139.976 154.247 140.552 154.247 141.528V144.272H153.767ZM151.447 143.088C151.447 143.6 151.839 143.944 152.431 143.944C153.215 143.944 153.711 143.432 153.711 142.64V142.264C153.351 142.232 153.103 142.224 152.871 142.224C151.911 142.224 151.447 142.504 151.447 143.088ZM157.657 144.272H157.097V138.528H157.657V142.016L159.689 140.056H160.353L158.225 142.12L160.529 144.272H159.801L157.657 142.248V144.272ZM161.872 139.08C161.872 139.328 161.688 139.504 161.416 139.504C161.152 139.504 160.968 139.328 160.968 139.08C160.968 138.84 161.152 138.664 161.416 138.664C161.688 138.664 161.872 138.84 161.872 139.08ZM161.704 144.272H161.144V140.056H161.704V144.272ZM163.478 141.816V144.272H162.918V140.056H163.438V140.848C163.71 140.328 164.222 139.976 164.83 139.976C165.71 139.976 166.278 140.536 166.278 141.536V144.272H165.718V141.728C165.718 140.92 165.35 140.464 164.662 140.464C164.006 140.464 163.478 141.032 163.478 141.816ZM168.017 141.816V144.272H167.457V140.056H167.977V140.848C168.249 140.328 168.761 139.976 169.369 139.976C170.249 139.976 170.817 140.536 170.817 141.536V144.272H170.257V141.728C170.257 140.92 169.889 140.464 169.201 140.464C168.545 140.464 168.017 141.032 168.017 141.816ZM172.724 139.08C172.724 139.328 172.54 139.504 172.268 139.504C172.004 139.504 171.82 139.328 171.82 139.08C171.82 138.84 172.004 138.664 172.268 138.664C172.54 138.664 172.724 138.84 172.724 139.08ZM172.556 144.272H171.996V140.056H172.556V144.272ZM175.937 143.736V144.232C175.721 144.32 175.537 144.352 175.329 144.352C174.633 144.352 174.097 143.992 174.097 143.08V140.528H173.105V140.056H174.097V138.808H174.657V140.056H175.977V140.528H174.657V142.96C174.657 143.616 174.977 143.84 175.441 143.84C175.617 143.84 175.761 143.808 175.937 143.736ZM179.416 144.272V143.504C179.168 144.032 178.656 144.352 178 144.352C177.128 144.352 176.56 143.864 176.56 143.104C176.56 142.28 177.216 141.848 178.496 141.848C178.752 141.848 178.944 141.864 179.36 141.896V141.544C179.36 140.84 178.984 140.424 178.344 140.424C177.656 140.424 177.224 140.848 177.216 141.536H176.704C176.728 140.6 177.376 139.976 178.336 139.976C179.32 139.976 179.896 140.552 179.896 141.528V144.272H179.416ZM177.096 143.088C177.096 143.6 177.488 143.944 178.08 143.944C178.864 143.944 179.36 143.432 179.36 142.64V142.264C179 142.232 178.752 142.224 178.52 142.224C177.56 142.224 177.096 142.504 177.096 143.088ZM181.634 144.272H181.074V140.056H181.594V140.848C181.874 140.304 182.37 139.976 182.97 139.976C183.626 139.976 184.114 140.336 184.29 140.952C184.554 140.36 185.082 139.976 185.746 139.976C186.618 139.976 187.162 140.552 187.162 141.536V144.272H186.61V141.72C186.61 140.92 186.242 140.464 185.562 140.464C184.922 140.464 184.402 141.024 184.402 141.8V144.272H183.842V141.72C183.842 140.92 183.474 140.464 182.794 140.464C182.146 140.464 181.634 141.024 181.634 141.8V144.272ZM189.067 139.08C189.067 139.328 188.883 139.504 188.611 139.504C188.347 139.504 188.163 139.328 188.163 139.08C188.163 138.84 188.347 138.664 188.611 138.664C188.883 138.664 189.067 138.84 189.067 139.08ZM188.899 144.272H188.339V140.056H188.899V144.272ZM193.265 143.096C193.265 143.872 192.641 144.352 191.601 144.352C190.553 144.352 189.913 143.824 189.833 142.952H190.369C190.409 143.552 190.881 143.928 191.601 143.928C192.289 143.928 192.705 143.664 192.705 143.184C192.705 142.768 192.465 142.576 191.825 142.448L191.217 142.328C190.417 142.176 189.993 141.784 189.993 141.176C189.993 140.472 190.617 139.976 191.537 139.976C192.505 139.976 193.145 140.496 193.209 141.336H192.681C192.625 140.752 192.201 140.408 191.537 140.408C190.945 140.408 190.537 140.688 190.537 141.128C190.537 141.544 190.793 141.744 191.417 141.864L192.049 141.984C192.889 142.144 193.265 142.496 193.265 143.096ZM195.894 144.352C194.71 144.352 193.926 143.464 193.926 142.128C193.926 140.896 194.742 139.976 195.862 139.976C197.062 139.976 197.846 140.944 197.75 142.296H194.486C194.534 143.296 195.062 143.912 195.886 143.912C196.59 143.912 197.078 143.52 197.214 142.848H197.766C197.574 143.784 196.862 144.352 195.894 144.352ZM195.854 140.408C195.094 140.408 194.558 140.992 194.486 141.912H197.166C197.118 140.968 196.63 140.408 195.854 140.408ZM199.235 144.272H198.675V138.528H199.235V142.016L201.267 140.056H201.931L199.803 142.12L202.107 144.272H201.379L199.235 142.248V144.272ZM205.796 143.096C205.796 143.872 205.172 144.352 204.132 144.352C203.084 144.352 202.444 143.824 202.364 142.952H202.9C202.94 143.552 203.412 143.928 204.132 143.928C204.82 143.928 205.236 143.664 205.236 143.184C205.236 142.768 204.996 142.576 204.356 142.448L203.748 142.328C202.948 142.176 202.524 141.784 202.524 141.176C202.524 140.472 203.148 139.976 204.068 139.976C205.036 139.976 205.676 140.496 205.74 141.336H205.212C205.156 140.752 204.732 140.408 204.068 140.408C203.476 140.408 203.068 140.688 203.068 141.128C203.068 141.544 203.324 141.744 203.948 141.864L204.58 141.984C205.42 142.144 205.796 142.496 205.796 143.096Z" fill="#FAF8F5"/>
<rect x="123.631" y="200.573" width="108" height="24" rx="1.65727" fill="#0E0F0E"/>
<path d="M149.301 213.433H147.691V216.073H146.941V208.893H149.301C150.781 208.893 151.791 209.703 151.791 211.153C151.791 212.603 150.781 213.433 149.301 213.433ZM149.291 209.533H147.691V212.793H149.291C150.361 212.793 151.041 212.203 151.041 211.153C151.041 210.113 150.361 209.533 149.291 209.533ZM154.909 216.173C153.459 216.173 152.409 215.023 152.409 213.433C152.409 211.853 153.459 210.713 154.909 210.713C156.369 210.713 157.419 211.853 157.419 213.433C157.419 215.023 156.369 216.173 154.909 216.173ZM154.909 215.563C155.939 215.563 156.709 214.743 156.709 213.433C156.709 212.143 155.939 211.323 154.909 211.323C153.889 211.323 153.119 212.143 153.119 213.433C153.119 214.743 153.889 215.563 154.909 215.563ZM163.381 213.433C163.381 215.063 162.471 216.173 161.071 216.173C160.281 216.173 159.611 215.743 159.251 214.993V218.003H158.551V210.803H159.201V211.943C159.561 211.163 160.261 210.703 161.071 210.703C162.471 210.703 163.381 211.823 163.381 213.433ZM162.671 213.433C162.671 212.103 161.981 211.313 160.951 211.313C159.971 211.313 159.241 212.093 159.241 213.433C159.241 214.743 159.951 215.563 160.951 215.563C161.981 215.563 162.671 214.783 162.671 213.433ZM167.878 213.943V210.803H168.568V216.073H167.918V215.123C167.648 215.733 167.008 216.173 166.238 216.173C165.168 216.173 164.458 215.563 164.458 214.233V210.803H165.158V214.083C165.158 215.153 165.688 215.563 166.428 215.563C167.268 215.563 167.878 214.883 167.878 213.943ZM174.914 213.433C174.914 215.063 174.004 216.173 172.604 216.173C171.814 216.173 171.144 215.743 170.784 214.993V218.003H170.084V210.803H170.734V211.943C171.094 211.163 171.794 210.703 172.604 210.703C174.004 210.703 174.914 211.823 174.914 213.433ZM174.204 213.433C174.204 212.103 173.514 211.313 172.484 211.313C171.504 211.313 170.774 212.093 170.774 213.433C170.774 214.743 171.484 215.563 172.484 215.563C173.514 215.563 174.204 214.783 174.204 213.433ZM182.521 216.073L181.141 211.733L179.771 216.073H179.061L177.521 210.803H178.211L179.431 215.083L180.801 210.803H181.491L182.851 215.093L184.071 210.803H184.771L183.221 216.073H182.521ZM186.59 209.583C186.59 209.893 186.36 210.113 186.02 210.113C185.69 210.113 185.46 209.893 185.46 209.583C185.46 209.283 185.69 209.063 186.02 209.063C186.36 209.063 186.59 209.283 186.59 209.583ZM186.38 216.073H185.68V210.803H186.38V216.073ZM187.507 213.433C187.507 211.813 188.407 210.703 189.827 210.703C190.617 210.703 191.287 211.153 191.637 211.903V208.893H192.337V216.073H191.687V214.963C191.317 215.733 190.637 216.173 189.827 216.173C188.407 216.173 187.507 215.053 187.507 213.433ZM188.217 213.433C188.217 214.773 188.897 215.563 189.927 215.563C190.947 215.563 191.647 214.733 191.647 213.413C191.647 212.083 190.927 211.313 189.927 211.313C188.897 211.313 188.217 212.093 188.217 213.433ZM195.844 218.113C194.504 218.113 193.664 217.413 193.604 216.233H194.274C194.334 217.093 194.894 217.553 195.834 217.553C196.874 217.553 197.424 217.003 197.424 215.963V214.863C197.104 215.603 196.464 216.033 195.684 216.033C194.354 216.033 193.464 214.963 193.464 213.363C193.464 211.763 194.344 210.703 195.674 210.703C196.464 210.703 197.124 211.153 197.464 211.923V210.803H198.114V215.953C198.114 217.313 197.284 218.113 195.844 218.113ZM194.164 213.363C194.164 214.653 194.774 215.433 195.784 215.433C196.774 215.433 197.434 214.633 197.434 213.413C197.434 212.123 196.784 211.303 195.784 211.303C194.784 211.303 194.164 212.083 194.164 213.363ZM201.705 216.173C200.225 216.173 199.245 215.063 199.245 213.393C199.245 211.853 200.265 210.703 201.665 210.703C203.165 210.703 204.145 211.913 204.025 213.603H199.945C200.005 214.853 200.665 215.623 201.695 215.623C202.575 215.623 203.185 215.133 203.355 214.293H204.045C203.805 215.463 202.915 216.173 201.705 216.173ZM201.655 211.243C200.705 211.243 200.035 211.973 199.945 213.123H203.295C203.235 211.943 202.625 211.243 201.655 211.243ZM207.882 215.403V216.023C207.612 216.133 207.382 216.173 207.122 216.173C206.252 216.173 205.582 215.723 205.582 214.583V211.393H204.342V210.803H205.582V209.243H206.282V210.803H207.932V211.393H206.282V214.433C206.282 215.253 206.682 215.533 207.262 215.533C207.482 215.533 207.662 215.493 207.882 215.403Z" fill="#FAF8F5"/>
<rect x="126" y="204.074" width="108" height="24" rx="2" fill="#585858" fill-opacity="0.4"/>
<path d="M45.8333 273.5C45.8333 274.973 47.0272 276.167 48.5 276.167C49.9728 276.167 51.1667 274.973 51.1667 273.5C51.1667 272.027 49.9728 270.833 48.5 270.833C47.0272 270.833 45.8333 272.027 45.8333 273.5ZM304.833 273.5C304.833 274.973 306.027 276.167 307.5 276.167C308.973 276.167 310.167 274.973 310.167 273.5C310.167 272.027 308.973 270.833 307.5 270.833C306.027 270.833 304.833 272.027 304.833 273.5ZM49.4962 274H49.9962V273H49.4962V273.5V274ZM51.4885 273H50.9885V274H51.4885V273.5V273ZM53.4808 274H53.9808V273H53.4808V273.5V274ZM55.4731 273H54.9731V274H55.4731V273.5V273ZM57.4654 274H57.9654V273H57.4654V273.5V274ZM59.4577 273H58.9577V274H59.4577V273.5V273ZM61.45 274H61.95V273H61.45V273.5V274ZM63.4423 273H62.9423V274H63.4423V273.5V273ZM65.4346 274H65.9346V273H65.4346V273.5V274ZM67.4269 273H66.9269V274H67.4269V273.5V273ZM69.4192 274H69.9192V273H69.4192V273.5V274ZM71.4115 273H70.9115V274H71.4115V273.5V273ZM73.4038 274H73.9038V273H73.4038V273.5V274ZM75.3962 273H74.8962V274H75.3962V273.5V273ZM77.3885 274H77.8885V273H77.3885V273.5V274ZM79.3808 273H78.8808V274H79.3808V273.5V273ZM81.3731 274H81.8731V273H81.3731V273.5V274ZM83.3654 273H82.8654V274H83.3654V273.5V273ZM85.3577 274H85.8577V273H85.3577V273.5V274ZM87.35 273H86.85V274H87.35V273.5V273ZM89.3423 274H89.8423V273H89.3423V273.5V274ZM91.3346 273H90.8346V274H91.3346V273.5V273ZM93.3269 274H93.8269V273H93.3269V273.5V274ZM95.3192 273H94.8192V274H95.3192V273.5V273ZM97.3116 274H97.8116V273H97.3116V273.5V274ZM99.3039 273H98.8039V274H99.3039V273.5V273ZM101.296 274H101.796V273H101.296V273.5V274ZM103.288 273H102.788V274H103.288V273.5V273ZM105.281 274H105.781V273H105.281V273.5V274ZM107.273 273H106.773V274H107.273V273.5V273ZM109.265 274H109.765V273H109.265V273.5V274ZM111.258 273H110.758V274H111.258V273.5V273ZM113.25 274H113.75V273H113.25V273.5V274ZM115.242 273H114.742V274H115.242V273.5V273ZM117.235 274H117.735V273H117.235V273.5V274ZM119.227 273H118.727V274H119.227V273.5V273ZM121.219 274H121.719V273H121.219V273.5V274ZM123.212 273H122.712V274H123.212V273.5V273ZM125.204 274H125.704V273H125.204V273.5V274ZM127.196 273H126.696V274H127.196V273.5V273ZM129.189 274H129.689V273H129.189V273.5V274ZM131.181 273H130.681V274H131.181V273.5V273ZM133.173 274H133.673V273H133.173V273.5V274ZM135.165 273H134.665V274H135.165V273.5V273ZM137.158 274H137.658V273H137.158V273.5V274ZM139.15 273H138.65V274H139.15V273.5V273ZM141.142 274H141.642V273H141.142V273.5V274ZM143.135 273H142.635V274H143.135V273.5V273ZM145.127 274H145.627V273H145.127V273.5V274ZM147.119 273H146.619V274H147.119V273.5V273ZM149.112 274H149.612V273H149.112V273.5V274ZM151.104 273H150.604V274H151.104V273.5V273ZM153.096 274H153.596V273H153.096V273.5V274ZM155.089 273H154.589V274H155.089V273.5V273ZM157.081 274H157.581V273H157.081V273.5V274ZM159.073 273H158.573V274H159.073V273.5V273ZM161.065 274H161.565V273H161.065V273.5V274ZM163.058 273H162.558V274H163.058V273.5V273ZM165.05 274H165.55V273H165.05V273.5V274ZM167.042 273H166.542V274H167.042V273.5V273ZM169.035 274H169.535V273H169.035V273.5V274ZM171.027 273H170.527V274H171.027V273.5V273ZM173.019 274H173.519V273H173.019V273.5V274ZM175.012 273H174.512V274H175.012V273.5V273ZM177.004 274H177.504V273H177.004V273.5V274ZM178.996 273H178.496V274H178.996V273.5V273ZM180.989 274H181.489V273H180.989V273.5V274ZM182.981 273H182.481V274H182.981V273.5V273ZM184.973 274H185.473V273H184.973V273.5V274ZM186.965 273H186.465V274H186.965V273.5V273ZM188.958 274H189.458V273H188.958V273.5V274ZM190.95 273H190.45V274H190.95V273.5V273ZM192.942 274H193.442V273H192.942V273.5V274ZM194.935 273H194.435V274H194.935V273.5V273ZM196.927 274H197.427V273H196.927V273.5V274ZM198.919 273H198.419V274H198.919V273.5V273ZM200.912 274H201.412V273H200.912V273.5V274ZM202.904 273H202.404V274H202.904V273.5V273ZM204.896 274H205.396V273H204.896V273.5V274ZM206.889 273H206.389V274H206.889V273.5V273ZM208.881 274H209.381V273H208.881V273.5V274ZM210.873 273H210.373V274H210.873V273.5V273ZM212.866 274H213.366V273H212.866V273.5V274ZM214.858 273H214.358V274H214.858V273.5V273ZM216.85 274H217.35V273H216.85V273.5V274ZM218.842 273H218.342V274H218.842V273.5V273ZM220.835 274H221.335V273H220.835V273.5V274ZM222.827 273H222.327V274H222.827V273.5V273ZM224.819 274H225.319V273H224.819V273.5V274ZM226.812 273H226.312V274H226.812V273.5V273ZM228.804 274H229.304V273H228.804V273.5V274ZM230.796 273H230.296V274H230.796V273.5V273ZM232.789 274H233.289V273H232.789V273.5V274ZM234.781 273H234.281V274H234.781V273.5V273ZM236.773 274H237.273V273H236.773V273.5V274ZM238.766 273H238.266V274H238.766V273.5V273ZM240.758 274H241.258V273H240.758V273.5V274ZM242.75 273H242.25V274H242.75V273.5V273ZM244.742 274H245.242V273H244.742V273.5V274ZM246.735 273H246.235V274H246.735V273.5V273ZM248.727 274H249.227V273H248.727V273.5V274ZM250.719 273H250.219V274H250.719V273.5V273ZM252.712 274H253.212V273H252.712V273.5V274ZM254.704 273H254.204V274H254.704V273.5V273ZM256.696 274H257.196V273H256.696V273.5V274ZM258.689 273H258.189V274H258.689V273.5V273ZM260.681 274H261.181V273H260.681V273.5V274ZM262.673 273H262.173V274H262.673V273.5V273ZM264.666 274H265.166V273H264.666V273.5V274ZM266.658 273H266.158V274H266.658V273.5V273ZM268.65 274H269.15V273H268.65V273.5V274ZM270.642 273H270.142V274H270.642V273.5V273ZM272.635 274H273.135V273H272.635V273.5V274ZM274.627 273H274.127V274H274.627V273.5V273ZM276.619 274H277.119V273H276.619V273.5V274ZM278.612 273H278.112V274H278.612V273.5V273ZM280.604 274H281.104V273H280.604V273.5V274ZM282.596 273H282.096V274H282.596V273.5V273ZM284.589 274H285.089V273H284.589V273.5V274ZM286.581 273H286.081V274H286.581V273.5V273ZM288.573 274H289.073V273H288.573V273.5V274ZM290.566 273H290.066V274H290.566V273.5V273ZM292.558 274H293.058V273H292.558V273.5V274ZM294.55 273H294.05V274H294.55V273.5V273ZM296.543 274H297.043V273H296.543V273.5V274ZM298.535 273H298.035V274H298.535V273.5V273ZM300.527 274H301.027V273H300.527V273.5V274ZM302.519 273H302.019V274H302.519V273.5V273ZM304.512 274H305.012V273H304.512V273.5V274ZM306.504 273H306.004V274H306.504V273.5V273ZM48.5 273.5V274H49.4962V273.5V273H48.5V273.5ZM51.4885 273.5V274H53.4808V273.5V273H51.4885V273.5ZM55.4731 273.5V274H57.4654V273.5V273H55.4731V273.5ZM59.4577 273.5V274H61.45V273.5V273H59.4577V273.5ZM63.4423 273.5V274H65.4346V273.5V273H63.4423V273.5ZM67.4269 273.5V274H69.4192V273.5V273H67.4269V273.5ZM71.4115 273.5V274H73.4038V273.5V273H71.4115V273.5ZM75.3962 273.5V274H77.3885V273.5V273H75.3962V273.5ZM79.3808 273.5V274H81.3731V273.5V273H79.3808V273.5ZM83.3654 273.5V274H85.3577V273.5V273H83.3654V273.5ZM87.35 273.5V274H89.3423V273.5V273H87.35V273.5ZM91.3346 273.5V274H93.3269V273.5V273H91.3346V273.5ZM95.3192 273.5V274H97.3116V273.5V273H95.3192V273.5ZM99.3039 273.5V274H101.296V273.5V273H99.3039V273.5ZM103.288 273.5V274H105.281V273.5V273H103.288V273.5ZM107.273 273.5V274H109.265V273.5V273H107.273V273.5ZM111.258 273.5V274H113.25V273.5V273H111.258V273.5ZM115.242 273.5V274H117.235V273.5V273H115.242V273.5ZM119.227 273.5V274H121.219V273.5V273H119.227V273.5ZM123.212 273.5V274H125.204V273.5V273H123.212V273.5ZM127.196 273.5V274H129.189V273.5V273H127.196V273.5ZM131.181 273.5V274H133.173V273.5V273H131.181V273.5ZM135.165 273.5V274H137.158V273.5V273H135.165V273.5ZM139.15 273.5V274H141.142V273.5V273H139.15V273.5ZM143.135 273.5V274H145.127V273.5V273H143.135V273.5ZM147.119 273.5V274H149.112V273.5V273H147.119V273.5ZM151.104 273.5V274H153.096V273.5V273H151.104V273.5ZM155.089 273.5V274H157.081V273.5V273H155.089V273.5ZM159.073 273.5V274H161.065V273.5V273H159.073V273.5ZM163.058 273.5V274H165.05V273.5V273H163.058V273.5ZM167.042 273.5V274H169.035V273.5V273H167.042V273.5ZM171.027 273.5V274H173.019V273.5V273H171.027V273.5ZM175.012 273.5V274H177.004V273.5V273H175.012V273.5ZM178.996 273.5V274H180.989V273.5V273H178.996V273.5ZM182.981 273.5V274H184.973V273.5V273H182.981V273.5ZM186.965 273.5V274H188.958V273.5V273H186.965V273.5ZM190.95 273.5V274H192.942V273.5V273H190.95V273.5ZM194.935 273.5V274H196.927V273.5V273H194.935V273.5ZM198.919 273.5V274H200.912V273.5V273H198.919V273.5ZM202.904 273.5V274H204.896V273.5V273H202.904V273.5ZM206.889 273.5V274H208.881V273.5V273H206.889V273.5ZM210.873 273.5V274H212.866V273.5V273H210.873V273.5ZM214.858 273.5V274H216.85V273.5V273H214.858V273.5ZM218.842 273.5V274H220.835V273.5V273H218.842V273.5ZM222.827 273.5V274H224.819V273.5V273H222.827V273.5ZM226.812 273.5V274H228.804V273.5V273H226.812V273.5ZM230.796 273.5V274H232.789V273.5V273H230.796V273.5ZM234.781 273.5V274H236.773V273.5V273H234.781V273.5ZM238.766 273.5V274H240.758V273.5V273H238.766V273.5ZM242.75 273.5V274H244.742V273.5V273H242.75V273.5ZM246.735 273.5V274H248.727V273.5V273H246.735V273.5ZM250.719 273.5V274H252.712V273.5V273H250.719V273.5ZM254.704 273.5V274H256.696V273.5V273H254.704V273.5ZM258.689 273.5V274H260.681V273.5V273H258.689V273.5ZM262.673 273.5V274H264.666V273.5V273H262.673V273.5ZM266.658 273.5V274H268.65V273.5V273H266.658V273.5ZM270.642 273.5V274H272.635V273.5V273H270.642V273.5ZM274.627 273.5V274H276.619V273.5V273H274.627V273.5ZM278.612 273.5V274H280.604V273.5V273H278.612V273.5ZM282.596 273.5V274H284.589V273.5V273H282.596V273.5ZM286.581 273.5V274H288.573V273.5V273H286.581V273.5ZM290.566 273.5V274H292.558V273.5V273H290.566V273.5ZM294.55 273.5V274H296.543V273.5V273H294.55V273.5ZM298.535 273.5V274H300.527V273.5V273H298.535V273.5ZM302.519 273.5V274H304.512V273.5V273H302.519V273.5ZM306.504 273.5V274H307.5V273.5V273H306.504V273.5Z" fill="black"/>
<circle cx="96.5" cy="273.5" r="2.5" fill="black"/>
<circle cx="150.833" cy="273.5" r="2.5" fill="black"/>
<circle cx="205.167" cy="273.5" r="2.5" fill="black"/>
<circle cx="259.5" cy="273.5" r="2.5" fill="black"/>
<circle cx="147.5" cy="273.5" r="6" fill="#0E0F0E"/>
<circle cx="147" cy="273" r="5.75" fill="#437540" stroke="#0E0F0E" stroke-width="0.5"/>
<path d="M45.8333 295.5C45.8333 296.973 47.0272 298.167 48.5 298.167C49.9728 298.167 51.1667 296.973 51.1667 295.5C51.1667 294.027 49.9728 292.833 48.5 292.833C47.0272 292.833 45.8333 294.027 45.8333 295.5ZM304.833 295.5C304.833 296.973 306.027 298.167 307.5 298.167C308.973 298.167 310.167 296.973 310.167 295.5C310.167 294.027 308.973 292.833 307.5 292.833C306.027 292.833 304.833 294.027 304.833 295.5ZM49.4962 296H49.9962V295H49.4962V295.5V296ZM51.4885 295H50.9885V296H51.4885V295.5V295ZM53.4808 296H53.9808V295H53.4808V295.5V296ZM55.4731 295H54.9731V296H55.4731V295.5V295ZM57.4654 296H57.9654V295H57.4654V295.5V296ZM59.4577 295H58.9577V296H59.4577V295.5V295ZM61.45 296H61.95V295H61.45V295.5V296ZM63.4423 295H62.9423V296H63.4423V295.5V295ZM65.4346 296H65.9346V295H65.4346V295.5V296ZM67.4269 295H66.9269V296H67.4269V295.5V295ZM69.4192 296H69.9192V295H69.4192V295.5V296ZM71.4115 295H70.9115V296H71.4115V295.5V295ZM73.4038 296H73.9038V295H73.4038V295.5V296ZM75.3962 295H74.8962V296H75.3962V295.5V295ZM77.3885 296H77.8885V295H77.3885V295.5V296ZM79.3808 295H78.8808V296H79.3808V295.5V295ZM81.3731 296H81.8731V295H81.3731V295.5V296ZM83.3654 295H82.8654V296H83.3654V295.5V295ZM85.3577 296H85.8577V295H85.3577V295.5V296ZM87.35 295H86.85V296H87.35V295.5V295ZM89.3423 296H89.8423V295H89.3423V295.5V296ZM91.3346 295H90.8346V296H91.3346V295.5V295ZM93.3269 296H93.8269V295H93.3269V295.5V296ZM95.3192 295H94.8192V296H95.3192V295.5V295ZM97.3116 296H97.8116V295H97.3116V295.5V296ZM99.3039 295H98.8039V296H99.3039V295.5V295ZM101.296 296H101.796V295H101.296V295.5V296ZM103.288 295H102.788V296H103.288V295.5V295ZM105.281 296H105.781V295H105.281V295.5V296ZM107.273 295H106.773V296H107.273V295.5V295ZM109.265 296H109.765V295H109.265V295.5V296ZM111.258 295H110.758V296H111.258V295.5V295ZM113.25 296H113.75V295H113.25V295.5V296ZM115.242 295H114.742V296H115.242V295.5V295ZM117.235 296H117.735V295H117.235V295.5V296ZM119.227 295H118.727V296H119.227V295.5V295ZM121.219 296H121.719V295H121.219V295.5V296ZM123.212 295H122.712V296H123.212V295.5V295ZM125.204 296H125.704V295H125.204V295.5V296ZM127.196 295H126.696V296H127.196V295.5V295ZM129.189 296H129.689V295H129.189V295.5V296ZM131.181 295H130.681V296H131.181V295.5V295ZM133.173 296H133.673V295H133.173V295.5V296ZM135.165 295H134.665V296H135.165V295.5V295ZM137.158 296H137.658V295H137.158V295.5V296ZM139.15 295H138.65V296H139.15V295.5V295ZM141.142 296H141.642V295H141.142V295.5V296ZM143.135 295H142.635V296H143.135V295.5V295ZM145.127 296H145.627V295H145.127V295.5V296ZM147.119 295H146.619V296H147.119V295.5V295ZM149.112 296H149.612V295H149.112V295.5V296ZM151.104 295H150.604V296H151.104V295.5V295ZM153.096 296H153.596V295H153.096V295.5V296ZM155.089 295H154.589V296H155.089V295.5V295ZM157.081 296H157.581V295H157.081V295.5V296ZM159.073 295H158.573V296H159.073V295.5V295ZM161.065 296H161.565V295H161.065V295.5V296ZM163.058 295H162.558V296H163.058V295.5V295ZM165.05 296H165.55V295H165.05V295.5V296ZM167.042 295H166.542V296H167.042V295.5V295ZM169.035 296H169.535V295H169.035V295.5V296ZM171.027 295H170.527V296H171.027V295.5V295ZM173.019 296H173.519V295H173.019V295.5V296ZM175.012 295H174.512V296H175.012V295.5V295ZM177.004 296H177.504V295H177.004V295.5V296ZM178.996 295H178.496V296H178.996V295.5V295ZM180.989 296H181.489V295H180.989V295.5V296ZM182.981 295H182.481V296H182.981V295.5V295ZM184.973 296H185.473V295H184.973V295.5V296ZM186.965 295H186.465V296H186.965V295.5V295ZM188.958 296H189.458V295H188.958V295.5V296ZM190.95 295H190.45V296H190.95V295.5V295ZM192.942 296H193.442V295H192.942V295.5V296ZM194.935 295H194.435V296H194.935V295.5V295ZM196.927 296H197.427V295H196.927V295.5V296ZM198.919 295H198.419V296H198.919V295.5V295ZM200.912 296H201.412V295H200.912V295.5V296ZM202.904 295H202.404V296H202.904V295.5V295ZM204.896 296H205.396V295H204.896V295.5V296ZM206.889 295H206.389V296H206.889V295.5V295ZM208.881 296H209.381V295H208.881V295.5V296ZM210.873 295H210.373V296H210.873V295.5V295ZM212.866 296H213.366V295H212.866V295.5V296ZM214.858 295H214.358V296H214.858V295.5V295ZM216.85 296H217.35V295H216.85V295.5V296ZM218.842 295H218.342V296H218.842V295.5V295ZM220.835 296H221.335V295H220.835V295.5V296ZM222.827 295H222.327V296H222.827V295.5V295ZM224.819 296H225.319V295H224.819V295.5V296ZM226.812 295H226.312V296H226.812V295.5V295ZM228.804 296H229.304V295H228.804V295.5V296ZM230.796 295H230.296V296H230.796V295.5V295ZM232.789 296H233.289V295H232.789V295.5V296ZM234.781 295H234.281V296H234.781V295.5V295ZM236.773 296H237.273V295H236.773V295.5V296ZM238.766 295H238.266V296H238.766V295.5V295ZM240.758 296H241.258V295H240.758V295.5V296ZM242.75 295H242.25V296H242.75V295.5V295ZM244.742 296H245.242V295H244.742V295.5V296ZM246.735 295H246.235V296H246.735V295.5V295ZM248.727 296H249.227V295H248.727V295.5V296ZM250.719 295H250.219V296H250.719V295.5V295ZM252.712 296H253.212V295H252.712V295.5V296ZM254.704 295H254.204V296H254.704V295.5V295ZM256.696 296H257.196V295H256.696V295.5V296ZM258.689 295H258.189V296H258.689V295.5V295ZM260.681 296H261.181V295H260.681V295.5V296ZM262.673 295H262.173V296H262.673V295.5V295ZM264.666 296H265.166V295H264.666V295.5V296ZM266.658 295H266.158V296H266.658V295.5V295ZM268.65 296H269.15V295H268.65V295.5V296ZM270.642 295H270.142V296H270.642V295.5V295ZM272.635 296H273.135V295H272.635V295.5V296ZM274.627 295H274.127V296H274.627V295.5V295ZM276.619 296H277.119V295H276.619V295.5V296ZM278.612 295H278.112V296H278.612V295.5V295ZM280.604 296H281.104V295H280.604V295.5V296ZM282.596 295H282.096V296H282.596V295.5V295ZM284.589 296H285.089V295H284.589V295.5V296ZM286.581 295H286.081V296H286.581V295.5V295ZM288.573 296H289.073V295H288.573V295.5V296ZM290.566 295H290.066V296H290.566V295.5V295ZM292.558 296H293.058V295H292.558V295.5V296ZM294.55 295H294.05V296H294.55V295.5V295ZM296.543 296H297.043V295H296.543V295.5V296ZM298.535 295H298.035V296H298.535V295.5V295ZM300.527 296H301.027V295H300.527V295.5V296ZM302.519 295H302.019V296H302.519V295.5V295ZM304.512 296H305.012V295H304.512V295.5V296ZM306.504 295H306.004V296H306.504V295.5V295ZM48.5 295.5V296H49.4962V295.5V295H48.5V295.5ZM51.4885 295.5V296H53.4808V295.5V295H51.4885V295.5ZM55.4731 295.5V296H57.4654V295.5V295H55.4731V295.5ZM59.4577 295.5V296H61.45V295.5V295H59.4577V295.5ZM63.4423 295.5V296H65.4346V295.5V295H63.4423V295.5ZM67.4269 295.5V296H69.4192V295.5V295H67.4269V295.5ZM71.4115 295.5V296H73.4038V295.5V295H71.4115V295.5ZM75.3962 295.5V296H77.3885V295.5V295H75.3962V295.5ZM79.3808 295.5V296H81.3731V295.5V295H79.3808V295.5ZM83.3654 295.5V296H85.3577V295.5V295H83.3654V295.5ZM87.35 295.5V296H89.3423V295.5V295H87.35V295.5ZM91.3346 295.5V296H93.3269V295.5V295H91.3346V295.5ZM95.3192 295.5V296H97.3116V295.5V295H95.3192V295.5ZM99.3039 295.5V296H101.296V295.5V295H99.3039V295.5ZM103.288 295.5V296H105.281V295.5V295H103.288V295.5ZM107.273 295.5V296H109.265V295.5V295H107.273V295.5ZM111.258 295.5V296H113.25V295.5V295H111.258V295.5ZM115.242 295.5V296H117.235V295.5V295H115.242V295.5ZM119.227 295.5V296H121.219V295.5V295H119.227V295.5ZM123.212 295.5V296H125.204V295.5V295H123.212V295.5ZM127.196 295.5V296H129.189V295.5V295H127.196V295.5ZM131.181 295.5V296H133.173V295.5V295H131.181V295.5ZM135.165 295.5V296H137.158V295.5V295H135.165V295.5ZM139.15 295.5V296H141.142V295.5V295H139.15V295.5ZM143.135 295.5V296H145.127V295.5V295H143.135V295.5ZM147.119 295.5V296H149.112V295.5V295H147.119V295.5ZM151.104 295.5V296H153.096V295.5V295H151.104V295.5ZM155.089 295.5V296H157.081V295.5V295H155.089V295.5ZM159.073 295.5V296H161.065V295.5V295H159.073V295.5ZM163.058 295.5V296H165.05V295.5V295H163.058V295.5ZM167.042 295.5V296H169.035V295.5V295H167.042V295.5ZM171.027 295.5V296H173.019V295.5V295H171.027V295.5ZM175.012 295.5V296H177.004V295.5V295H175.012V295.5ZM178.996 295.5V296H180.989V295.5V295H178.996V295.5ZM182.981 295.5V296H184.973V295.5V295H182.981V295.5ZM186.965 295.5V296H188.958V295.5V295H186.965V295.5ZM190.95 295.5V296H192.942V295.5V295H190.95V295.5ZM194.935 295.5V296H196.927V295.5V295H194.935V295.5ZM198.919 295.5V296H200.912V295.5V295H198.919V295.5ZM202.904 295.5V296H204.896V295.5V295H202.904V295.5ZM206.889 295.5V296H208.881V295.5V295H206.889V295.5ZM210.873 295.5V296H212.866V295.5V295H210.873V295.5ZM214.858 295.5V296H216.85V295.5V295H214.858V295.5ZM218.842 295.5V296H220.835V295.5V295H218.842V295.5ZM222.827 295.5V296H224.819V295.5V295H222.827V295.5ZM226.812 295.5V296H228.804V295.5V295H226.812V295.5ZM230.796 295.5V296H232.789V295.5V295H230.796V295.5ZM234.781 295.5V296H236.773V295.5V295H234.781V295.5ZM238.766 295.5V296H240.758V295.5V295H238.766V295.5ZM242.75 295.5V296H244.742V295.5V295H242.75V295.5ZM246.735 295.5V296H248.727V295.5V295H246.735V295.5ZM250.719 295.5V296H252.712V295.5V295H250.719V295.5ZM254.704 295.5V296H256.696V295.5V295H254.704V295.5ZM258.689 295.5V296H260.681V295.5V295H258.689V295.5ZM262.673 295.5V296H264.666V295.5V295H262.673V295.5ZM266.658 295.5V296H268.65V295.5V295H266.658V295.5ZM270.642 295.5V296H272.635V295.5V295H270.642V295.5ZM274.627 295.5V296H276.619V295.5V295H274.627V295.5ZM278.612 295.5V296H280.604V295.5V295H278.612V295.5ZM282.596 295.5V296H284.589V295.5V295H282.596V295.5ZM286.581 295.5V296H288.573V295.5V295H286.581V295.5ZM290.566 295.5V296H292.558V295.5V295H290.566V295.5ZM294.55 295.5V296H296.543V295.5V295H294.55V295.5ZM298.535 295.5V296H300.527V295.5V295H298.535V295.5ZM302.519 295.5V296H304.512V295.5V295H302.519V295.5ZM306.504 295.5V296H307.5V295.5V295H306.504V295.5Z" fill="black"/>
<circle cx="96.5" cy="295.5" r="2.5" fill="black"/>
<circle cx="150.833" cy="295.5" r="2.5" fill="black"/>
<circle cx="205.167" cy="295.5" r="2.5" fill="black"/>
<circle cx="259.5" cy="295.5" r="2.5" fill="black"/>
<circle cx="259.5" cy="295.5" r="6" fill="#0E0F0E"/>
<circle cx="259" cy="295" r="5.75" fill="#437540" stroke="#0E0F0E" stroke-width="0.5"/>
<path d="M45.8333 317.5C45.8333 318.973 47.0272 320.167 48.5 320.167C49.9728 320.167 51.1667 318.973 51.1667 317.5C51.1667 316.027 49.9728 314.833 48.5 314.833C47.0272 314.833 45.8333 316.027 45.8333 317.5ZM304.833 317.5C304.833 318.973 306.027 320.167 307.5 320.167C308.973 320.167 310.167 318.973 310.167 317.5C310.167 316.027 308.973 314.833 307.5 314.833C306.027 314.833 304.833 316.027 304.833 317.5ZM49.4962 318H49.9962V317H49.4962V317.5V318ZM51.4885 317H50.9885V318H51.4885V317.5V317ZM53.4808 318H53.9808V317H53.4808V317.5V318ZM55.4731 317H54.9731V318H55.4731V317.5V317ZM57.4654 318H57.9654V317H57.4654V317.5V318ZM59.4577 317H58.9577V318H59.4577V317.5V317ZM61.45 318H61.95V317H61.45V317.5V318ZM63.4423 317H62.9423V318H63.4423V317.5V317ZM65.4346 318H65.9346V317H65.4346V317.5V318ZM67.4269 317H66.9269V318H67.4269V317.5V317ZM69.4192 318H69.9192V317H69.4192V317.5V318ZM71.4115 317H70.9115V318H71.4115V317.5V317ZM73.4038 318H73.9038V317H73.4038V317.5V318ZM75.3962 317H74.8962V318H75.3962V317.5V317ZM77.3885 318H77.8885V317H77.3885V317.5V318ZM79.3808 317H78.8808V318H79.3808V317.5V317ZM81.3731 318H81.8731V317H81.3731V317.5V318ZM83.3654 317H82.8654V318H83.3654V317.5V317ZM85.3577 318H85.8577V317H85.3577V317.5V318ZM87.35 317H86.85V318H87.35V317.5V317ZM89.3423 318H89.8423V317H89.3423V317.5V318ZM91.3346 317H90.8346V318H91.3346V317.5V317ZM93.3269 318H93.8269V317H93.3269V317.5V318ZM95.3192 317H94.8192V318H95.3192V317.5V317ZM97.3116 318H97.8116V317H97.3116V317.5V318ZM99.3039 317H98.8039V318H99.3039V317.5V317ZM101.296 318H101.796V317H101.296V317.5V318ZM103.288 317H102.788V318H103.288V317.5V317ZM105.281 318H105.781V317H105.281V317.5V318ZM107.273 317H106.773V318H107.273V317.5V317ZM109.265 318H109.765V317H109.265V317.5V318ZM111.258 317H110.758V318H111.258V317.5V317ZM113.25 318H113.75V317H113.25V317.5V318ZM115.242 317H114.742V318H115.242V317.5V317ZM117.235 318H117.735V317H117.235V317.5V318ZM119.227 317H118.727V318H119.227V317.5V317ZM121.219 318H121.719V317H121.219V317.5V318ZM123.212 317H122.712V318H123.212V317.5V317ZM125.204 318H125.704V317H125.204V317.5V318ZM127.196 317H126.696V318H127.196V317.5V317ZM129.189 318H129.689V317H129.189V317.5V318ZM131.181 317H130.681V318H131.181V317.5V317ZM133.173 318H133.673V317H133.173V317.5V318ZM135.165 317H134.665V318H135.165V317.5V317ZM137.158 318H137.658V317H137.158V317.5V318ZM139.15 317H138.65V318H139.15V317.5V317ZM141.142 318H141.642V317H141.142V317.5V318ZM143.135 317H142.635V318H143.135V317.5V317ZM145.127 318H145.627V317H145.127V317.5V318ZM147.119 317H146.619V318H147.119V317.5V317ZM149.112 318H149.612V317H149.112V317.5V318ZM151.104 317H150.604V318H151.104V317.5V317ZM153.096 318H153.596V317H153.096V317.5V318ZM155.089 317H154.589V318H155.089V317.5V317ZM157.081 318H157.581V317H157.081V317.5V318ZM159.073 317H158.573V318H159.073V317.5V317ZM161.065 318H161.565V317H161.065V317.5V318ZM163.058 317H162.558V318H163.058V317.5V317ZM165.05 318H165.55V317H165.05V317.5V318ZM167.042 317H166.542V318H167.042V317.5V317ZM169.035 318H169.535V317H169.035V317.5V318ZM171.027 317H170.527V318H171.027V317.5V317ZM173.019 318H173.519V317H173.019V317.5V318ZM175.012 317H174.512V318H175.012V317.5V317ZM177.004 318H177.504V317H177.004V317.5V318ZM178.996 317H178.496V318H178.996V317.5V317ZM180.989 318H181.489V317H180.989V317.5V318ZM182.981 317H182.481V318H182.981V317.5V317ZM184.973 318H185.473V317H184.973V317.5V318ZM186.965 317H186.465V318H186.965V317.5V317ZM188.958 318H189.458V317H188.958V317.5V318ZM190.95 317H190.45V318H190.95V317.5V317ZM192.942 318H193.442V317H192.942V317.5V318ZM194.935 317H194.435V318H194.935V317.5V317ZM196.927 318H197.427V317H196.927V317.5V318ZM198.919 317H198.419V318H198.919V317.5V317ZM200.912 318H201.412V317H200.912V317.5V318ZM202.904 317H202.404V318H202.904V317.5V317ZM204.896 318H205.396V317H204.896V317.5V318ZM206.889 317H206.389V318H206.889V317.5V317ZM208.881 318H209.381V317H208.881V317.5V318ZM210.873 317H210.373V318H210.873V317.5V317ZM212.866 318H213.366V317H212.866V317.5V318ZM214.858 317H214.358V318H214.858V317.5V317ZM216.85 318H217.35V317H216.85V317.5V318ZM218.842 317H218.342V318H218.842V317.5V317ZM220.835 318H221.335V317H220.835V317.5V318ZM222.827 317H222.327V318H222.827V317.5V317ZM224.819 318H225.319V317H224.819V317.5V318ZM226.812 317H226.312V318H226.812V317.5V317ZM228.804 318H229.304V317H228.804V317.5V318ZM230.796 317H230.296V318H230.796V317.5V317ZM232.789 318H233.289V317H232.789V317.5V318ZM234.781 317H234.281V318H234.781V317.5V317ZM236.773 318H237.273V317H236.773V317.5V318ZM238.766 317H238.266V318H238.766V317.5V317ZM240.758 318H241.258V317H240.758V317.5V318ZM242.75 317H242.25V318H242.75V317.5V317ZM244.742 318H245.242V317H244.742V317.5V318ZM246.735 317H246.235V318H246.735V317.5V317ZM248.727 318H249.227V317H248.727V317.5V318ZM250.719 317H250.219V318H250.719V317.5V317ZM252.712 318H253.212V317H252.712V317.5V318ZM254.704 317H254.204V318H254.704V317.5V317ZM256.696 318H257.196V317H256.696V317.5V318ZM258.689 317H258.189V318H258.689V317.5V317ZM260.681 318H261.181V317H260.681V317.5V318ZM262.673 317H262.173V318H262.673V317.5V317ZM264.666 318H265.166V317H264.666V317.5V318ZM266.658 317H266.158V318H266.658V317.5V317ZM268.65 318H269.15V317H268.65V317.5V318ZM270.642 317H270.142V318H270.642V317.5V317ZM272.635 318H273.135V317H272.635V317.5V318ZM274.627 317H274.127V318H274.627V317.5V317ZM276.619 318H277.119V317H276.619V317.5V318ZM278.612 317H278.112V318H278.612V317.5V317ZM280.604 318H281.104V317H280.604V317.5V318ZM282.596 317H282.096V318H282.596V317.5V317ZM284.589 318H285.089V317H284.589V317.5V318ZM286.581 317H286.081V318H286.581V317.5V317ZM288.573 318H289.073V317H288.573V317.5V318ZM290.566 317H290.066V318H290.566V317.5V317ZM292.558 318H293.058V317H292.558V317.5V318ZM294.55 317H294.05V318H294.55V317.5V317ZM296.543 318H297.043V317H296.543V317.5V318ZM298.535 317H298.035V318H298.535V317.5V317ZM300.527 318H301.027V317H300.527V317.5V318ZM302.519 317H302.019V318H302.519V317.5V317ZM304.512 318H305.012V317H304.512V317.5V318ZM306.504 317H306.004V318H306.504V317.5V317ZM48.5 317.5V318H49.4962V317.5V317H48.5V317.5ZM51.4885 317.5V318H53.4808V317.5V317H51.4885V317.5ZM55.4731 317.5V318H57.4654V317.5V317H55.4731V317.5ZM59.4577 317.5V318H61.45V317.5V317H59.4577V317.5ZM63.4423 317.5V318H65.4346V317.5V317H63.4423V317.5ZM67.4269 317.5V318H69.4192V317.5V317H67.4269V317.5ZM71.4115 317.5V318H73.4038V317.5V317H71.4115V317.5ZM75.3962 317.5V318H77.3885V317.5V317H75.3962V317.5ZM79.3808 317.5V318H81.3731V317.5V317H79.3808V317.5ZM83.3654 317.5V318H85.3577V317.5V317H83.3654V317.5ZM87.35 317.5V318H89.3423V317.5V317H87.35V317.5ZM91.3346 317.5V318H93.3269V317.5V317H91.3346V317.5ZM95.3192 317.5V318H97.3116V317.5V317H95.3192V317.5ZM99.3039 317.5V318H101.296V317.5V317H99.3039V317.5ZM103.288 317.5V318H105.281V317.5V317H103.288V317.5ZM107.273 317.5V318H109.265V317.5V317H107.273V317.5ZM111.258 317.5V318H113.25V317.5V317H111.258V317.5ZM115.242 317.5V318H117.235V317.5V317H115.242V317.5ZM119.227 317.5V318H121.219V317.5V317H119.227V317.5ZM123.212 317.5V318H125.204V317.5V317H123.212V317.5ZM127.196 317.5V318H129.189V317.5V317H127.196V317.5ZM131.181 317.5V318H133.173V317.5V317H131.181V317.5ZM135.165 317.5V318H137.158V317.5V317H135.165V317.5ZM139.15 317.5V318H141.142V317.5V317H139.15V317.5ZM143.135 317.5V318H145.127V317.5V317H143.135V317.5ZM147.119 317.5V318H149.112V317.5V317H147.119V317.5ZM151.104 317.5V318H153.096V317.5V317H151.104V317.5ZM155.089 317.5V318H157.081V317.5V317H155.089V317.5ZM159.073 317.5V318H161.065V317.5V317H159.073V317.5ZM163.058 317.5V318H165.05V317.5V317H163.058V317.5ZM167.042 317.5V318H169.035V317.5V317H167.042V317.5ZM171.027 317.5V318H173.019V317.5V317H171.027V317.5ZM175.012 317.5V318H177.004V317.5V317H175.012V317.5ZM178.996 317.5V318H180.989V317.5V317H178.996V317.5ZM182.981 317.5V318H184.973V317.5V317H182.981V317.5ZM186.965 317.5V318H188.958V317.5V317H186.965V317.5ZM190.95 317.5V318H192.942V317.5V317H190.95V317.5ZM194.935 317.5V318H196.927V317.5V317H194.935V317.5ZM198.919 317.5V318H200.912V317.5V317H198.919V317.5ZM202.904 317.5V318H204.896V317.5V317H202.904V317.5ZM206.889 317.5V318H208.881V317.5V317H206.889V317.5ZM210.873 317.5V318H212.866V317.5V317H210.873V317.5ZM214.858 317.5V318H216.85V317.5V317H214.858V317.5ZM218.842 317.5V318H220.835V317.5V317H218.842V317.5ZM222.827 317.5V318H224.819V317.5V317H222.827V317.5ZM226.812 317.5V318H228.804V317.5V317H226.812V317.5ZM230.796 317.5V318H232.789V317.5V317H230.796V317.5ZM234.781 317.5V318H236.773V317.5V317H234.781V317.5ZM238.766 317.5V318H240.758V317.5V317H238.766V317.5ZM242.75 317.5V318H244.742V317.5V317H242.75V317.5ZM246.735 317.5V318H248.727V317.5V317H246.735V317.5ZM250.719 317.5V318H252.712V317.5V317H250.719V317.5ZM254.704 317.5V318H256.696V317.5V317H254.704V317.5ZM258.689 317.5V318H260.681V317.5V317H258.689V317.5ZM262.673 317.5V318H264.666V317.5V317H262.673V317.5ZM266.658 317.5V318H268.65V317.5V317H266.658V317.5ZM270.642 317.5V318H272.635V317.5V317H270.642V317.5ZM274.627 317.5V318H276.619V317.5V317H274.627V317.5ZM278.612 317.5V318H280.604V317.5V317H278.612V317.5ZM282.596 317.5V318H284.589V317.5V317H282.596V317.5ZM286.581 317.5V318H288.573V317.5V317H286.581V317.5ZM290.566 317.5V318H292.558V317.5V317H290.566V317.5ZM294.55 317.5V318H296.543V317.5V317H294.55V317.5ZM298.535 317.5V318H300.527V317.5V317H298.535V317.5ZM302.519 317.5V318H304.512V317.5V317H302.519V317.5ZM306.504 317.5V318H307.5V317.5V317H306.504V317.5Z" fill="black"/>
<circle cx="96.5" cy="317.5" r="2.5" fill="black"/>
<circle cx="150.833" cy="317.5" r="2.5" fill="black"/>
<circle cx="205.167" cy="317.5" r="2.5" fill="black"/>
<circle cx="259.5" cy="317.5" r="2.5" fill="black"/>
<circle cx="205.5" cy="317.5" r="6" fill="#0E0F0E"/>
<circle cx="205" cy="317" r="5.75" fill="#437540" stroke="#0E0F0E" stroke-width="0.5"/>
</svg>
