<svg width="295" height="310" viewBox="0 0 295 310" fill="none" xmlns="http://www.w3.org/2000/svg">
<g clip-path="url(#clip0_2320_10045)">
<path opacity="0.25" d="M248 78.812H47V233.683L147.5 290L248 233.683V78.812Z" stroke="#BFBEBC" stroke-dasharray="2 2"/>
<path opacity="0.5" d="M227.901 99.9302H67.1006V223.827L147.501 268.881L227.901 223.827V99.9302Z" stroke="#BFBEBC" stroke-dasharray="2 2"/>
<path opacity="0.75" d="M207.801 121.048H87.2012V213.971L147.501 247.761L207.801 213.971V121.048Z" stroke="#BFBEBC" stroke-dasharray="2 2"/>
<path d="M187.797 142.067H107.206V204.163L147.502 226.743L187.797 204.163V142.067Z" stroke="#BFBEBC"/>
</g>
<path d="M146.717 308.991C146.649 308.99 146.582 308.991 146.515 308.989V308.996C146.508 308.996 146.502 308.996 146.495 308.996L146.489 309.994C146.826 309.997 147.162 309.999 147.499 309.999V310L147.5 309.999V310C147.838 310 148.175 309.997 148.512 309.994L148.505 308.996C148.498 308.996 148.492 308.996 148.485 308.996V308.989C148.418 308.991 148.351 308.99 148.283 308.991L148.264 308.91C148.007 308.97 147.753 308.999 147.5 308.999H147.499C147.245 308.999 146.991 308.971 146.734 308.91L146.717 308.991ZM151.095 307.072C150.637 307.552 150.188 307.937 149.75 308.231L150.307 309.06C150.356 309.027 150.402 308.99 150.451 308.955L150.484 309.482L150.511 309.903C150.517 309.903 150.524 309.902 150.53 309.901L150.531 309.965C151.203 309.951 151.874 309.933 152.543 309.909L152.508 308.912C152.478 308.913 152.449 308.913 152.419 308.914L152.4 308.741C151.778 308.807 151.154 308.859 150.528 308.899C150.961 308.585 151.392 308.207 151.817 307.762L151.457 307.418L151.095 307.072ZM143.542 307.418L143.541 307.417L143.182 307.762C143.607 308.208 144.039 308.585 144.472 308.899C143.846 308.859 143.222 308.807 142.6 308.741L142.582 308.914C142.552 308.913 142.522 308.913 142.492 308.912L142.458 309.909C143.127 309.933 143.798 309.951 144.47 309.965L144.472 309.901C144.478 309.902 144.484 309.903 144.49 309.903L144.516 309.482L144.55 308.956C144.598 308.99 144.644 309.027 144.692 309.06L145.248 308.231C144.81 307.937 144.361 307.552 143.903 307.072L143.542 307.418ZM156.284 308.164C155.641 308.287 154.996 308.397 154.349 308.493L154.496 309.479C154.508 309.478 154.52 309.475 154.532 309.474L154.549 309.824C155.221 309.791 155.892 309.754 156.562 309.711L156.531 309.214L156.499 308.714C156.463 308.716 156.427 308.717 156.392 308.72L156.284 308.164ZM138.61 308.72C138.574 308.717 138.537 308.716 138.501 308.714L138.47 309.214L138.469 309.213L138.438 309.711C139.109 309.754 139.78 309.791 140.452 309.824L140.47 309.474C140.481 309.475 140.493 309.478 140.505 309.479L140.651 308.493C140.004 308.397 139.359 308.287 138.716 308.164L138.61 308.72ZM160.11 307.268C159.477 307.443 158.842 307.605 158.204 307.755L158.318 308.242H158.317L158.432 308.729C158.457 308.722 158.483 308.715 158.509 308.709L158.575 309.568C159.245 309.516 159.913 309.46 160.58 309.398L160.488 308.403C160.116 308.438 159.743 308.467 159.37 308.498C159.707 308.412 160.043 308.323 160.378 308.23L160.3 307.948L160.11 307.268ZM134.7 307.948L134.623 308.23C134.959 308.324 135.295 308.412 135.632 308.498C135.258 308.467 134.884 308.438 134.512 308.403L134.421 309.398C135.088 309.46 135.756 309.516 136.426 309.568L136.493 308.709C136.519 308.715 136.544 308.723 136.569 308.729L136.683 308.242L136.796 307.755C136.158 307.605 135.523 307.443 134.89 307.268L134.7 307.948ZM162.471 308.206L162.577 309.2L162.578 309.201C163.248 309.13 163.917 309.052 164.584 308.971L164.527 308.496L164.464 307.979C163.801 308.059 163.136 308.135 162.471 308.206ZM130.473 308.496L130.417 308.971C131.084 309.052 131.753 309.13 132.423 309.201V309.2L132.529 308.206C131.864 308.135 131.199 308.059 130.536 307.979L130.473 308.496ZM166.449 307.724L166.545 308.43L166.583 308.714C167.248 308.624 167.912 308.527 168.574 308.428L168.426 307.441C167.768 307.54 167.109 307.634 166.449 307.724ZM126.427 308.428C127.089 308.527 127.753 308.624 128.418 308.714L128.552 307.724C127.891 307.634 127.232 307.54 126.574 307.441L126.427 308.428ZM170.398 307.13L170.561 308.114C171.225 308.005 171.888 307.89 172.55 307.771L172.373 306.79C171.716 306.908 171.058 307.021 170.398 307.13ZM122.451 307.771C123.113 307.89 123.776 308.005 124.44 308.114L124.602 307.13C123.942 307.021 123.284 306.908 122.628 306.79L122.451 307.771ZM163.854 306.068C163.234 306.293 162.613 306.506 161.989 306.706L162.156 307.227L162.294 307.657C162.93 307.453 163.564 307.235 164.195 307.006L163.854 306.068ZM130.807 307.006C131.438 307.235 132.071 307.453 132.707 307.657L132.844 307.227L133.011 306.706C132.387 306.506 131.766 306.293 131.146 306.068L130.807 307.006ZM174.338 306.422L174.529 307.4C175.188 307.272 175.845 307.14 176.5 307.003L176.295 306.026C175.644 306.163 174.992 306.295 174.338 306.422ZM118.501 307.003C119.156 307.14 119.813 307.272 120.472 307.4L120.662 306.422C120.008 306.295 119.356 306.163 118.705 306.026L118.501 307.003ZM178.25 305.603L178.469 306.575C179.125 306.428 179.78 306.278 180.433 306.121L180.317 305.639L180.199 305.149C179.551 305.305 178.901 305.456 178.25 305.603ZM114.683 305.639L114.568 306.121C115.221 306.278 115.876 306.428 116.532 306.575L116.75 305.603C116.099 305.456 115.449 305.305 114.801 305.149L114.683 305.639ZM167.497 304.588C166.896 304.858 166.292 305.117 165.686 305.363L166.061 306.288C166.679 306.037 167.294 305.774 167.907 305.498L167.737 305.12L167.497 304.588ZM127.263 305.12L127.094 305.499C127.707 305.775 128.322 306.037 128.94 306.288L129.314 305.363C128.708 305.117 128.104 304.858 127.503 304.588L127.263 305.12ZM153.342 304.022C152.99 304.609 152.638 305.145 152.286 305.629L153.094 306.217C153.465 305.706 153.834 305.146 154.199 304.537L153.771 304.279V304.28L153.342 304.022ZM140.8 304.536C141.165 305.145 141.534 305.706 141.905 306.217L142.712 305.629C142.36 305.145 142.008 304.609 141.656 304.022L140.8 304.536ZM182.14 304.67L182.387 305.639C183.036 305.473 183.685 305.303 184.331 305.129L184.07 304.163C183.429 304.336 182.785 304.506 182.14 304.67ZM110.67 305.129C111.316 305.303 111.964 305.473 112.614 305.639L112.86 304.67C112.215 304.506 111.571 304.336 110.93 304.163L110.67 305.129ZM171.029 302.847C170.448 303.158 169.864 303.459 169.277 303.748L169.72 304.646C170.316 304.351 170.91 304.045 171.501 303.728L171.029 302.847ZM123.5 303.728C124.091 304.045 124.685 304.351 125.281 304.646L125.723 303.748C125.136 303.459 124.552 303.158 123.971 302.847L123.5 303.728ZM186 303.627L186.274 304.588C186.921 304.403 187.565 304.214 188.208 304.021L187.92 303.064C187.282 303.257 186.642 303.444 186 303.627ZM106.793 304.021C107.436 304.214 108.08 304.403 108.727 304.588L109 303.627C108.358 303.444 107.718 303.257 107.08 303.064L106.793 304.021ZM189.828 302.475L190.131 303.426C190.771 303.223 191.408 303.015 192.044 302.804L191.917 302.42L191.729 301.857C191.098 302.067 190.464 302.273 189.828 302.475ZM103.083 302.42L102.957 302.804C103.593 303.015 104.23 303.223 104.87 303.426L105.172 302.475C104.536 302.273 103.902 302.068 103.271 301.857L103.083 302.42ZM155.146 300.547C154.863 301.167 154.578 301.754 154.292 302.309L154.737 302.538H154.736L155.181 302.767C155.475 302.197 155.767 301.596 156.056 300.963L155.146 300.547ZM138.944 300.963C139.233 301.596 139.525 302.197 139.819 302.767L140.262 302.538L140.706 302.309C140.42 301.754 140.135 301.167 139.852 300.547L138.944 300.963ZM174.44 300.87C173.881 301.218 173.32 301.557 172.756 301.884L173.256 302.747C173.829 302.415 174.401 302.073 174.969 301.719L174.44 300.87ZM120.032 301.719C120.6 302.073 121.172 302.415 121.745 302.747L122.244 301.884C121.68 301.557 121.119 301.219 120.56 300.871L120.032 301.719ZM193.624 301.212L193.953 302.154C194.587 301.933 195.22 301.708 195.851 301.479L195.508 300.541C194.882 300.769 194.254 300.993 193.624 301.212ZM99.1504 301.479C99.7809 301.708 100.413 301.933 101.048 302.154L101.376 301.212C100.746 300.993 100.118 300.769 99.4922 300.541L99.1504 301.479ZM197.38 299.844L197.735 300.777C198.363 300.538 198.989 300.296 199.613 300.048L199.245 299.119C198.626 299.365 198.003 299.606 197.38 299.844ZM95.3877 300.048C96.0116 300.296 96.6377 300.538 97.2656 300.777L97.6201 299.844C96.9968 299.606 96.3753 299.365 95.7559 299.119L95.3877 300.048ZM177.728 298.681C177.191 299.061 176.652 299.433 176.11 299.794L176.666 300.626C177.216 300.26 177.761 299.882 178.306 299.495L177.728 298.681ZM116.695 299.495C117.24 299.882 117.785 300.26 118.335 300.626L118.89 299.794C118.348 299.433 117.809 299.061 117.272 298.681L116.695 299.495ZM201.099 298.367L201.48 299.292C202.101 299.035 202.719 298.774 203.336 298.509L203.139 298.051L202.94 297.591C202.329 297.854 201.715 298.113 201.099 298.367ZM91.8623 298.051L91.8613 298.05L91.665 298.509C92.2815 298.774 92.8999 299.035 93.5205 299.292L93.9014 298.367C93.2855 298.113 92.6714 297.854 92.0596 297.591L91.8623 298.051ZM156.653 296.903C156.411 297.545 156.168 298.162 155.923 298.756L156.387 298.947H156.386L156.848 299.138C157.097 298.534 157.345 297.906 157.59 297.256L156.653 296.903ZM137.409 297.256V297.257C137.654 297.907 137.902 298.534 138.151 299.138L139.075 298.756C138.83 298.162 138.587 297.545 138.345 296.903L137.409 297.256ZM180.888 296.299C180.37 296.712 179.85 297.116 179.327 297.51L179.929 298.307C180.459 297.907 180.987 297.5 181.512 297.082L181.511 297.081L180.888 296.299ZM113.489 297.081V297.082C114.014 297.5 114.542 297.907 115.072 298.307L115.673 297.51C115.15 297.116 114.63 296.713 114.112 296.3L113.489 297.081ZM204.771 296.788L205.009 297.319L205.179 297.7C205.792 297.426 206.403 297.147 207.012 296.864L206.593 295.959C205.988 296.24 205.381 296.516 204.771 296.788ZM87.9893 296.864C88.5983 297.147 89.209 297.426 89.8223 297.7L89.9912 297.319L90.2285 296.788C89.6194 296.516 89.0121 296.24 88.4072 295.959L87.9893 296.864ZM208.4 295.104L208.833 296.003C209.438 295.712 210.04 295.417 210.641 295.118L210.196 294.225C209.6 294.522 209.001 294.816 208.4 295.104ZM84.3604 295.118C84.9606 295.417 85.5633 295.712 86.168 296.003L86.5996 295.104C85.999 294.816 85.3999 294.522 84.8037 294.225L84.3604 295.118ZM183.922 293.745C183.423 294.188 182.92 294.621 182.416 295.046L183.06 295.81C183.57 295.379 184.079 294.94 184.584 294.492L183.922 293.745ZM110.416 294.492C110.922 294.94 111.43 295.379 111.941 295.81L112.584 295.046C112.08 294.621 111.577 294.188 111.078 293.745L110.416 294.492ZM157.958 293.167C157.75 293.809 157.54 294.434 157.329 295.04L157.802 295.205H157.801L158.272 295.369C158.486 294.756 158.699 294.124 158.909 293.476L157.958 293.167ZM136.09 293.476C136.3 294.124 136.513 294.756 136.727 295.369L137.669 295.04C137.458 294.434 137.248 293.809 137.04 293.167L136.09 293.476ZM211.979 293.32L212.438 294.206C213.034 293.898 213.629 293.587 214.221 293.271L213.751 292.391C213.163 292.705 212.572 293.014 211.979 293.32ZM80.7803 293.271C81.3723 293.587 81.9669 293.898 82.5635 294.206L83.0205 293.32C82.4278 293.014 81.8372 292.705 81.249 292.391L80.7803 293.271ZM186.82 291.047C186.343 291.513 185.862 291.971 185.379 292.421L186.06 293.152C186.548 292.697 187.034 292.233 187.518 291.762L186.82 291.047ZM107.483 291.762C107.967 292.233 108.453 292.697 108.941 293.152L109.621 292.421C109.138 291.971 108.657 291.513 108.18 291.047L107.483 291.762ZM215.508 291.437L215.991 292.312C216.579 291.987 217.164 291.659 217.747 291.326L217.252 290.458C216.673 290.788 216.091 291.114 215.508 291.437ZM77.2529 291.326H77.2539C77.8369 291.659 78.4221 291.987 79.0098 292.312L79.4922 291.437C78.9086 291.114 78.3269 290.788 77.748 290.458L77.2529 291.326ZM159.117 289.359C158.933 290.002 158.748 290.631 158.562 291.245L159.518 291.536C159.706 290.916 159.892 290.282 160.077 289.635L159.117 289.359ZM134.922 289.635C135.107 290.282 135.293 290.916 135.481 291.536L136.437 291.245C136.25 290.631 136.065 290.002 135.881 289.359L134.922 289.635ZM189.59 288.22C189.136 288.704 188.678 289.181 188.219 289.65L188.934 290.35L189.789 289.464C189.966 289.278 190.141 289.091 190.317 288.903L189.59 288.22ZM104.684 288.903C105.142 289.393 105.603 289.876 106.067 290.35L106.781 289.65C106.322 289.181 105.864 288.704 105.41 288.22L104.684 288.903ZM218.982 289.455L219.49 290.316C220.069 289.976 220.644 289.63 221.218 289.281L220.699 288.429C220.13 288.775 219.557 289.117 218.982 289.455ZM73.7832 289.281C74.3569 289.63 74.9322 289.976 75.5107 290.316L76.0176 289.455C75.4431 289.117 74.8705 288.775 74.3008 288.429L73.7832 289.281ZM222.401 287.378L222.932 288.224C223.501 287.867 224.067 287.507 224.631 287.143L224.089 286.305C223.529 286.666 222.966 287.024 222.401 287.378ZM70.3701 287.143C70.934 287.507 71.5004 287.867 72.0693 288.224L72.5986 287.378C72.0337 287.024 71.4711 286.666 70.9111 286.305L70.3701 287.143ZM159.659 287.409L160.625 287.67C160.794 287.044 160.961 286.407 161.127 285.758L160.644 285.633V285.634L160.159 285.509C159.994 286.154 159.827 286.788 159.659 287.409ZM133.872 285.757C134.039 286.406 134.205 287.044 134.374 287.67L135.339 287.409C135.171 286.788 135.004 286.154 134.839 285.509L133.872 285.757ZM192.242 285.27C191.811 285.769 191.377 286.262 190.94 286.748L191.685 287.416C192.126 286.925 192.563 286.426 192.999 285.921L192.242 285.27ZM102.002 285.921C102.438 286.426 102.875 286.925 103.316 287.416L104.06 286.748C103.623 286.262 103.189 285.769 102.758 285.27L102.002 285.921ZM225.762 285.208L226.039 285.624H226.038L226.314 286.038C226.873 285.666 227.43 285.291 227.983 284.911L227.419 284.088C226.869 284.465 226.317 284.839 225.762 285.208ZM67.2988 284.501L67.2979 284.5L67.0176 284.911C67.5713 285.291 68.1277 285.666 68.6865 286.038L68.9619 285.624L69.2383 285.208C68.6832 284.839 68.131 284.465 67.5811 284.088L67.2988 284.501ZM99.4375 282.828C99.857 283.354 100.278 283.874 100.703 284.387L101.472 283.748C101.051 283.241 100.632 282.726 100.217 282.205L99.4375 282.828ZM194.782 282.205C194.367 282.726 193.949 283.241 193.528 283.748L194.297 284.386C194.722 283.873 195.144 283.354 195.563 282.828L194.782 282.205ZM160.65 283.547L161.137 283.665H161.136L161.621 283.783C161.775 283.15 161.928 282.507 162.08 281.854L161.595 281.741L161.107 281.627C160.956 282.277 160.804 282.917 160.65 283.547ZM132.919 281.854C133.071 282.507 133.224 283.15 133.378 283.783L134.348 283.547C134.194 282.917 134.042 282.277 133.891 281.627L132.919 281.854ZM229.062 282.945L229.382 283.399L229.637 283.762C230.185 283.375 230.732 282.985 231.275 282.59L230.688 281.781C230.148 282.173 229.606 282.561 229.062 282.945ZM63.7256 282.59C64.2689 282.985 64.8156 283.375 65.3643 283.762L65.6182 283.399L65.9385 282.945C65.394 282.561 64.8518 282.173 64.3125 281.781L63.7256 282.59ZM232.298 280.595L232.896 281.396L234.325 280.314C234.384 280.269 234.442 280.224 234.501 280.179L233.892 279.386C233.363 279.792 232.832 280.196 232.298 280.595ZM60.5 280.179C61.0322 280.588 61.5669 280.994 62.1045 281.396L62.7021 280.595C62.1681 280.196 61.6371 279.792 61.1084 279.386L60.5 280.179ZM197.206 279.051C196.807 279.589 196.406 280.122 196.002 280.647L196.795 281.257C197.202 280.726 197.607 280.189 198.009 279.646L197.608 279.349L197.206 279.051ZM97.3926 279.349L97.3916 279.348L96.9922 279.646C97.3943 280.189 97.7985 280.726 98.2061 281.257L98.998 280.647C98.5942 280.122 98.1926 279.589 97.7939 279.051L97.3926 279.349ZM161.554 279.664L162.528 279.881C162.671 279.239 162.812 278.588 162.952 277.928L161.977 277.72C161.837 278.377 161.696 279.025 161.554 279.664ZM132.047 277.928C132.187 278.588 132.329 279.239 132.472 279.881L132.957 279.772L133.444 279.664C133.302 279.025 133.162 278.377 133.022 277.72L132.047 277.928ZM235.47 278.156L236.089 278.939C236.615 278.523 237.138 278.103 237.659 277.68L237.03 276.905C236.513 277.326 235.993 277.743 235.47 278.156ZM57.6553 277.294L57.6543 277.293L57.3418 277.68C57.8627 278.103 58.3858 278.523 58.9121 278.939L59.5303 278.156C59.0074 277.743 58.4871 277.326 57.9697 276.905L57.6553 277.294ZM94.668 276.39C95.0488 276.942 95.4312 277.49 95.8174 278.03L96.1523 277.789L96.6289 277.448C96.2464 276.913 95.8667 276.371 95.4893 275.823L94.668 276.39ZM199.511 275.823C199.133 276.371 198.754 276.913 198.371 277.448L198.778 277.739H198.777L199.185 278.029C199.57 277.489 199.953 276.943 200.333 276.391L199.511 275.823ZM238.573 275.633L239.214 276.398C239.729 275.968 240.241 275.534 240.751 275.097L240.101 274.34C239.594 274.774 239.085 275.205 238.573 275.633ZM54.5742 274.72L54.5732 274.719L54.25 275.097C54.7596 275.534 55.2719 275.968 55.7871 276.398L56.4268 275.633C55.915 275.205 55.4056 274.774 54.8994 274.34L54.5742 274.72ZM162.384 275.763L163.361 275.963C163.494 275.31 163.627 274.65 163.758 273.981L163.27 273.886L162.778 273.789C162.648 274.455 162.516 275.113 162.384 275.763ZM131.73 273.886L131.729 273.885L131.241 273.981C131.372 274.65 131.505 275.31 131.638 275.962L132.614 275.763C132.482 275.113 132.35 274.455 132.22 273.789L131.73 273.886ZM201.718 272.511C201.36 273.067 200.999 273.618 200.636 274.163L201.468 274.717C201.834 274.167 202.197 273.611 202.558 273.051L201.718 272.511ZM92.4434 273.051C92.8041 273.611 93.1663 274.167 93.5322 274.717L94.3643 274.163C94.0013 273.618 93.6402 273.067 93.2822 272.511L92.4434 273.051ZM241.609 273.027L242.27 273.775C242.773 273.331 243.274 272.884 243.771 272.434L243.101 271.694C242.607 272.142 242.109 272.587 241.609 273.027ZM51.2295 272.434C51.7269 272.884 52.2273 273.332 52.7305 273.775L53.3906 273.026C52.8909 272.586 52.3934 272.142 51.8994 271.694L51.2295 272.434ZM163.152 271.841L163.645 271.934H163.644L164.135 272.026C164.259 271.367 164.382 270.701 164.504 270.027L163.521 269.849C163.399 270.52 163.276 271.184 163.152 271.841ZM130.496 270.027C130.618 270.701 130.74 271.367 130.864 272.026L131.846 271.841C131.722 271.184 131.599 270.52 131.478 269.849L130.496 270.027ZM90.7432 269.376L90.7422 269.375L90.3154 269.633C90.6646 270.213 91.0166 270.788 91.3711 271.357L92.2178 270.829C91.8661 270.264 91.5174 269.693 91.1709 269.117L90.7432 269.376ZM202.781 270.829L203.63 271.356C203.984 270.787 204.336 270.213 204.686 269.633L204.258 269.376L203.829 269.117C203.483 269.693 203.133 270.264 202.781 270.829ZM244.574 270.341L245.256 271.072C245.747 270.615 246.236 270.154 246.722 269.689L246.03 268.967C245.548 269.428 245.063 269.886 244.574 270.341ZM48.2783 269.689H48.2793C48.765 270.154 49.2535 270.615 49.7451 271.072L50.4258 270.341C49.9375 269.886 49.4521 269.428 48.9697 268.967L48.2783 269.689ZM247.467 267.576L248.166 268.289C248.645 267.819 249.121 267.345 249.594 266.868L248.885 266.165C248.415 266.639 247.942 267.109 247.467 267.576ZM45.4072 266.868C45.8802 267.345 46.3559 267.819 46.835 268.289L47.5332 267.576C47.0575 267.109 46.585 266.639 46.1152 266.165L45.4072 266.868ZM163.867 267.898L164.36 267.984H164.359L164.851 268.07C164.965 267.416 165.077 266.756 165.189 266.089L164.206 265.923C164.094 266.588 163.981 267.246 163.867 267.898ZM129.81 266.089C129.922 266.756 130.034 267.416 130.148 268.07L130.639 267.984L131.131 267.898C131.017 267.246 130.905 266.588 130.793 265.923L129.81 266.089ZM204.835 267.418L205.698 267.921C206.033 267.346 206.366 266.766 206.696 266.181L206.262 265.935V265.936L205.826 265.689C205.498 266.271 205.168 266.847 204.835 267.418ZM88.3047 266.181C88.6347 266.766 88.9675 267.346 89.3027 267.921L90.165 267.418C89.8321 266.847 89.5007 266.271 89.1729 265.689L88.3047 266.181ZM250.285 264.735L251.003 265.429C251.469 264.946 251.932 264.46 252.393 263.971L251.666 263.287C251.209 263.773 250.748 264.256 250.285 264.735ZM42.9707 263.63L42.9697 263.629L42.6084 263.971C43.0686 264.46 43.5317 264.946 43.998 265.429L44.7148 264.734C44.2517 264.255 43.791 263.773 43.334 263.287L42.9707 263.63ZM206.8 263.936L207.678 264.415C207.994 263.835 208.308 263.251 208.619 262.662L207.736 262.194C207.427 262.779 207.114 263.36 206.8 263.936ZM86.3818 262.662C86.6934 263.251 87.0066 263.835 87.3232 264.415L88.2002 263.936C87.8856 263.36 87.5733 262.779 87.2637 262.194L86.3818 262.662ZM164.534 263.933L165.028 264.013H165.027L165.521 264.093C165.626 263.444 165.731 262.789 165.834 262.129L164.847 261.975C164.744 262.633 164.639 263.286 164.534 263.933ZM129.165 262.129C129.268 262.789 129.373 263.444 129.479 264.093L129.971 264.013L130.464 263.933C130.359 263.286 130.255 262.633 130.152 261.975L129.165 262.129ZM253.026 261.821L253.396 262.159H253.395L253.762 262.496C254.215 262.001 254.666 261.503 255.113 261.002L254.368 260.337C253.924 260.835 253.477 261.33 253.026 261.821ZM39.8877 261.002C40.335 261.503 40.7857 262.001 41.2393 262.496L41.6055 262.159L41.9736 261.821C41.5232 261.33 41.076 260.835 40.6318 260.337L39.8877 261.002ZM208.658 260.427L209.547 260.883C209.853 260.286 210.157 259.685 210.458 259.08L209.562 258.635C209.264 259.236 208.962 259.834 208.658 260.427ZM84.9902 258.858L84.9893 258.857L84.543 259.08C84.8439 259.685 85.1481 260.286 85.4541 260.883L86.3418 260.427C86.0378 259.834 85.7365 259.236 85.4375 258.635L84.9902 258.858ZM165.153 259.981L165.648 260.057H165.647L166.14 260.131C166.239 259.475 166.337 258.813 166.435 258.146L165.447 258.002C165.35 258.667 165.252 259.327 165.153 259.981ZM128.564 258.146C128.662 258.813 128.76 259.475 128.859 260.131L129.351 260.057L129.846 259.981C129.747 259.327 129.649 258.667 129.552 258.002L128.564 258.146ZM255.691 258.835L256.446 259.49C256.886 258.984 257.323 258.475 257.757 257.963L256.993 257.316C256.562 257.825 256.128 258.332 255.691 258.835ZM37.2441 257.963C37.6777 258.475 38.1148 258.984 38.5547 259.49L39.3086 258.834C38.8716 258.331 38.4375 257.825 38.0068 257.316L37.2441 257.963ZM210.432 256.858L210.883 257.075H210.882L211.332 257.292C211.621 256.692 211.907 256.088 212.191 255.479L211.286 255.057C211.004 255.661 210.719 256.262 210.432 256.858ZM82.8096 255.479C83.0937 256.088 83.3798 256.692 83.6689 257.292L84.5684 256.858C84.281 256.262 83.9962 255.661 83.7139 255.057L82.8096 255.479ZM258.275 255.781L259.047 256.418L260.183 255.022C260.228 254.966 260.272 254.91 260.317 254.854L259.538 254.229C259.12 254.749 258.699 255.267 258.275 255.781ZM34.6836 254.854C35.1041 255.378 35.5262 255.9 35.9531 256.418V256.417L36.3389 256.1L36.7246 255.781C36.3005 255.267 35.8796 254.749 35.4619 254.229L34.6836 254.854ZM165.73 256.029L166.227 256.1H166.226L166.72 256.169C166.813 255.505 166.906 254.836 166.998 254.162L166.008 254.027C165.916 254.7 165.824 255.367 165.73 256.029ZM128.002 254.162C128.094 254.836 128.186 255.505 128.279 256.169L128.773 256.1L129.269 256.029C129.175 255.367 129.082 254.7 128.99 254.027L128.002 254.162ZM212.126 253.23L212.583 253.438H212.582L213.037 253.644L213.038 253.645C213.311 253.042 213.579 252.435 213.847 251.825L212.932 251.424C212.666 252.03 212.397 252.632 212.126 253.23ZM81.1543 251.825C81.4221 252.435 81.6902 253.042 81.9629 253.645V253.644L82.874 253.23C82.6031 252.632 82.3344 252.03 82.0684 251.424L81.1543 251.825ZM260.781 252.659L261.568 253.273C261.981 252.745 262.39 252.214 262.796 251.68L262.001 251.075C261.598 251.606 261.191 252.134 260.781 252.659ZM32.2051 251.68C32.6111 252.214 33.02 252.745 33.4326 253.273L33.8252 252.967L34.2188 252.658C33.8089 252.133 33.4024 251.606 32.999 251.075L32.2051 251.68ZM166.273 252.052L166.77 252.117H166.769L167.263 252.182C167.349 251.525 167.437 250.863 167.521 250.197L166.53 250.07C166.445 250.735 166.36 251.396 166.273 252.052ZM127.478 250.197C127.562 250.863 127.65 251.525 127.736 252.182L128.229 252.117L128.726 252.052C128.639 251.396 128.554 250.735 128.469 250.07L127.478 250.197ZM263.201 249.475L264.004 250.068C264.403 249.529 264.8 248.986 265.192 248.44L264.382 247.857C263.992 248.399 263.598 248.938 263.201 249.475ZM29.8086 248.44C30.2014 248.986 30.5976 249.529 30.9971 250.068L31.3965 249.772L31.7988 249.475C31.4019 248.938 31.0075 248.399 30.6172 247.857L29.8086 248.44ZM213.723 249.595L214.642 249.986C214.904 249.37 215.164 248.749 215.422 248.125L214.498 247.743C214.242 248.364 213.984 248.981 213.723 249.595ZM79.5791 248.125C79.8366 248.749 80.0968 249.37 80.3594 249.986L80.8174 249.791L81.2773 249.595C81.0163 248.981 80.7581 248.364 80.502 247.743L79.5791 248.125ZM166.781 248.063L167.773 248.186C167.854 247.529 167.933 246.869 168.013 246.205L167.021 246.086C166.942 246.749 166.862 247.409 166.781 248.063ZM126.986 246.205C127.066 246.869 127.145 247.529 127.226 248.186L128.217 248.063C128.136 247.409 128.056 246.749 127.977 246.086L126.986 246.205ZM265.541 246.227L265.951 246.514H265.95L266.358 246.799C266.743 246.25 267.125 245.698 267.503 245.144L266.678 244.581C266.302 245.132 265.923 245.681 265.541 246.227ZM27.498 245.144C27.876 245.698 28.2579 246.25 28.6426 246.799L29.0498 246.514L29.459 246.227C29.0768 245.681 28.6978 245.132 28.3223 244.581L27.498 245.144ZM215.246 245.904L216.174 246.275L216.175 246.276C216.422 245.659 216.665 245.037 216.907 244.413L215.975 244.052C215.734 244.672 215.492 245.29 215.246 245.904ZM78.0938 244.413C78.3358 245.037 78.5792 245.659 78.8262 246.276V246.275L79.7539 245.904C79.5084 245.29 79.2661 244.672 79.0254 244.052L78.0938 244.413ZM167.255 244.101L167.752 244.158H167.751L168.247 244.216C168.324 243.549 168.4 242.878 168.476 242.203L167.482 242.093C167.407 242.766 167.332 243.435 167.255 244.101ZM126.523 242.203C126.599 242.878 126.675 243.549 126.752 244.216L127.744 244.101C127.667 243.435 127.591 242.766 127.516 242.093L126.523 242.203ZM267.794 242.92L268.626 243.473C268.997 242.912 269.366 242.35 269.73 241.784L268.89 241.243C268.528 241.805 268.163 242.364 267.794 242.92ZM25.2695 241.784H25.2705C25.6347 242.349 26.003 242.912 26.374 243.472L27.2061 242.92C26.8374 242.364 26.4721 241.805 26.1104 241.243L25.2695 241.784ZM216.689 242.18L217.625 242.531C217.859 241.908 218.091 241.281 218.32 240.651L217.382 240.31C217.154 240.936 216.922 241.56 216.689 242.18ZM76.6807 240.651C76.91 241.281 77.1418 241.908 77.376 242.531L78.3105 242.18C78.0775 241.56 77.8463 240.936 77.6182 240.31L76.6807 240.651ZM167.7 240.109L168.692 240.217C168.764 239.557 168.836 238.894 168.905 238.227L167.911 238.123C167.842 238.789 167.771 239.451 167.7 240.109ZM126.094 238.227C126.163 238.894 126.235 239.557 126.307 240.217L127.298 240.109C127.227 239.451 127.157 238.789 127.088 238.123L126.094 238.227ZM269.961 239.556L270.809 240.087L270.81 240.088C271.165 239.52 271.516 238.948 271.865 238.374L271.012 237.854C270.665 238.423 270.315 238.991 269.961 239.556ZM23.5615 238.114L23.5605 238.113L23.1357 238.374C23.4847 238.948 23.8355 239.52 24.1914 240.088V240.087L25.0391 239.556C24.6855 238.991 24.335 238.423 23.9883 237.854L23.5615 238.114ZM218.052 238.438L218.994 238.771C219.216 238.142 219.438 237.509 219.655 236.873L219.654 236.872L219.182 236.711L218.708 236.549C218.492 237.182 218.273 237.812 218.052 238.438ZM75.8193 236.711L75.8184 236.71L75.3457 236.872V236.873C75.563 237.509 75.7846 238.142 76.0068 238.771L76.9482 238.438C76.7271 237.812 76.5082 237.182 76.292 236.549L75.8193 236.711ZM272.041 236.137L272.901 236.645C273.243 236.067 273.58 235.485 273.914 234.902L273.482 234.654V234.655L273.049 234.406C272.717 234.985 272.38 235.562 272.041 236.137ZM21.5186 234.655L21.5176 234.654L21.0869 234.902C21.4214 235.485 21.7581 236.067 22.0996 236.645L22.958 236.137C22.6187 235.562 22.2834 234.985 21.9512 234.406L21.5186 234.655ZM168.117 236.116L169.11 236.216C169.177 235.554 169.243 234.889 169.309 234.221L168.812 234.173L168.314 234.124C168.249 234.791 168.184 235.456 168.117 236.116ZM126.188 234.173L126.187 234.172L125.69 234.221C125.756 234.889 125.822 235.554 125.889 236.216L126.882 236.116C126.815 235.456 126.749 234.791 126.684 234.124L126.188 234.173ZM219.347 234.649L220.296 234.963C220.504 234.334 220.709 233.702 220.912 233.067L219.961 232.763C219.759 233.394 219.554 234.023 219.347 234.649ZM74.0889 233.067C74.2921 233.702 74.4971 234.334 74.7051 234.963L75.6533 234.649C75.4463 234.023 75.2413 233.394 75.0391 232.763L74.0889 233.067ZM274.032 232.666L274.47 232.909H274.469L274.904 233.151C275.231 232.565 275.553 231.977 275.872 231.386L274.994 230.911C274.677 231.498 274.356 232.084 274.032 232.666ZM19.1289 231.386C19.448 231.977 19.7704 232.565 20.0967 233.151L20.5312 232.909L20.9678 232.666C20.6436 232.084 20.323 231.498 20.0059 230.911L19.1289 231.386ZM168.505 232.138L169.5 232.231L169.501 232.232C169.564 231.566 169.623 230.896 169.685 230.224L168.69 230.133C168.629 230.804 168.568 231.473 168.505 232.138ZM125.314 230.224C125.376 230.896 125.435 231.566 125.498 232.232V232.231L126.493 232.138C126.43 231.473 126.369 230.804 126.308 230.133L125.314 230.224ZM220.561 230.858L221.515 231.154C221.713 230.514 221.91 229.871 222.104 229.225L221.625 229.081V229.082L221.146 228.938C220.953 229.581 220.758 230.221 220.561 230.858ZM73.376 229.082L73.375 229.081L72.8975 229.225C73.091 229.871 73.2879 230.514 73.4863 231.154L74.4395 230.858C74.242 230.221 74.0471 229.581 73.8545 228.938L73.376 229.082ZM275.935 229.143L276.818 229.605C277.129 229.011 277.437 228.415 277.741 227.816L276.852 227.364C276.55 227.959 276.244 228.552 275.935 229.143ZM17.2598 227.816C17.5636 228.415 17.8716 229.011 18.1826 229.605L19.0654 229.143C18.7563 228.552 18.4503 227.959 18.1484 227.364L17.2598 227.816ZM168.87 228.129L169.864 228.217C169.922 227.557 169.98 226.895 170.036 226.229L169.041 226.145C168.985 226.809 168.928 227.47 168.87 228.129ZM124.963 226.229C125.019 226.895 125.077 227.557 125.135 228.217L126.129 228.129C126.071 227.47 126.013 226.809 125.957 226.145L124.963 226.229ZM221.707 227.031L222.668 227.309C222.853 226.67 223.035 226.029 223.215 225.385L222.253 225.115C222.073 225.756 221.891 226.395 221.707 227.031ZM71.7861 225.385C71.9663 226.029 72.1481 226.67 72.333 227.309L73.293 227.031C73.1088 226.395 72.9265 225.756 72.7471 225.115L71.7861 225.385ZM277.744 225.576L278.194 225.797H278.193L278.641 226.017C278.937 225.414 279.229 224.81 279.518 224.203L279.067 223.989L278.615 223.773C278.328 224.376 278.038 224.978 277.744 225.576ZM15.4834 224.203C15.772 224.81 16.0644 225.414 16.3604 226.017L16.8066 225.797L17.2559 225.576C16.9618 224.978 16.6706 224.376 16.3838 223.773L15.4834 224.203ZM169.208 224.145L170.203 224.226C170.258 223.555 170.314 222.881 170.367 222.205L169.37 222.126C169.317 222.801 169.263 223.475 169.208 224.145ZM124.632 222.205V222.206C124.685 222.882 124.741 223.555 124.796 224.226L125.79 224.145C125.735 223.475 125.681 222.801 125.628 222.126L124.632 222.205ZM222.784 223.184L223.268 223.314H223.267L223.748 223.444C223.922 222.8 224.094 222.153 224.264 221.503L223.781 221.377L223.297 221.25C223.128 221.897 222.958 222.542 222.784 223.184ZM71.2197 221.377L71.2188 221.376L70.7373 221.503C70.9067 222.153 71.0787 222.8 71.2529 223.444L71.7334 223.314L72.2158 223.184C72.0424 222.542 71.8718 221.897 71.7031 221.25L71.2197 221.377ZM279.465 221.958L279.92 222.167H279.919L280.373 222.376C280.653 221.768 280.931 221.158 281.203 220.545L281.202 220.544L280.288 220.138C280.017 220.747 279.743 221.354 279.465 221.958ZM13.7979 220.544V220.545C14.0703 221.158 14.3481 221.768 14.6279 222.376L15.0811 222.167L15.5352 221.958C15.257 221.353 14.9818 220.747 14.7109 220.138L13.7979 220.544ZM169.523 220.146L170.519 220.221C170.569 219.557 170.62 218.891 170.669 218.222L170.171 218.185V218.186L169.673 218.148C169.624 218.816 169.574 219.483 169.523 220.146ZM124.828 218.186L124.827 218.185L124.33 218.222C124.379 218.891 124.43 219.557 124.48 220.221L125.475 220.146C125.424 219.483 125.375 218.816 125.326 218.148L124.828 218.186ZM223.79 219.325L224.759 219.569C224.922 218.922 225.082 218.273 225.24 217.621L224.755 217.503V217.504L224.27 217.386C224.112 218.035 223.952 218.681 223.79 219.325ZM70.2461 217.504L70.2451 217.503L69.7607 217.621C69.9187 218.273 70.0795 218.922 70.2422 219.569L71.21 219.325C71.048 218.681 70.8877 218.035 70.7305 217.386L70.2461 217.504ZM281.09 218.305L282.009 218.7C282.274 218.083 282.534 217.464 282.791 216.843L281.868 216.46C281.612 217.077 281.353 217.692 281.09 218.305ZM12.21 216.843C12.4674 217.464 12.7272 218.083 12.9922 218.7L13.9102 218.305C13.647 217.692 13.3876 217.077 13.1318 216.46L12.21 216.843ZM169.816 216.137L170.813 216.207C170.86 215.542 170.906 214.875 170.951 214.206L170.454 214.172V214.173L169.955 214.138C169.91 214.806 169.863 215.473 169.816 216.137ZM124.048 214.206C124.093 214.875 124.139 215.542 124.186 216.207L125.182 216.137C125.135 215.473 125.088 214.806 125.043 214.138L124.048 214.206ZM224.733 215.432L225.707 215.659C225.858 215.012 226.007 214.363 226.153 213.712L225.178 213.493C225.032 214.142 224.884 214.788 224.733 215.432ZM68.8477 213.712C68.9939 214.363 69.143 215.012 69.2939 215.659L70.2666 215.432C70.1163 214.788 69.9678 214.142 69.8223 213.493L68.8477 213.712ZM282.624 214.604L283.089 214.789H283.088L283.552 214.975C283.8 214.353 284.044 213.729 284.285 213.104L283.354 212.744C283.114 213.366 282.871 213.986 282.624 214.604ZM10.7158 213.104C10.9567 213.729 11.2008 214.353 11.4492 214.975L11.9121 214.789L12.376 214.604C12.1292 213.986 11.8859 213.366 11.6465 212.744L10.7158 213.104ZM170.087 212.146L171.085 212.211C171.128 211.544 171.17 210.875 171.212 210.203L170.215 210.141C170.173 210.811 170.13 211.48 170.087 212.146ZM123.788 210.203C123.83 210.875 123.871 211.544 123.914 212.211L124.911 212.146C124.868 211.48 124.825 210.811 124.783 210.141L123.788 210.203ZM68.002 209.791C68.1383 210.449 68.2759 211.105 68.417 211.759V211.758L69.3945 211.547C69.2541 210.896 69.1152 210.243 68.9795 209.588L68.002 209.791ZM225.605 211.547L226.583 211.758L226.941 210.069C226.961 209.977 226.98 209.884 226.999 209.791L226.021 209.588C225.885 210.243 225.746 210.896 225.605 211.547ZM284.061 210.873L284.996 211.22C285.229 210.59 285.459 209.958 285.685 209.324L285.216 209.157V209.158L284.744 208.989C284.52 209.619 284.292 210.247 284.061 210.873ZM9.78516 209.158L9.78418 209.157L9.31641 209.324C9.54214 209.958 9.77151 210.59 10.0049 211.22L10.9395 210.873C10.7076 210.247 10.4802 209.619 10.2559 208.989L9.78516 209.158ZM170.338 208.124L170.838 208.154H170.837L171.336 208.184L171.337 208.185C171.376 207.523 171.413 206.86 171.451 206.194L170.953 206.165V206.166L170.454 206.137C170.416 206.801 170.377 207.464 170.338 208.124ZM124.046 206.166L124.045 206.165L123.548 206.194C123.586 206.859 123.624 207.523 123.663 208.184L124.161 208.154L124.66 208.124C124.621 207.464 124.582 206.801 124.544 206.137L124.046 206.166ZM226.419 207.624L227.398 207.819C227.528 207.168 227.655 206.515 227.779 205.86L227.289 205.767V205.768L226.798 205.674C226.674 206.326 226.548 206.976 226.419 207.624ZM67.7119 205.768L67.7109 205.767L67.2217 205.86C67.3463 206.515 67.4732 207.168 67.6025 207.819L68.5811 207.624C68.4523 206.976 68.3262 206.326 68.2021 205.674L67.7119 205.768ZM285.404 207.1L285.878 207.262H285.877L286.349 207.423C286.565 206.789 286.778 206.154 286.987 205.517L286.039 205.205C285.831 205.838 285.62 206.47 285.404 207.1ZM8.01367 205.517C8.22266 206.154 8.4357 206.789 8.65234 207.423L9.12305 207.262L9.5957 207.1C9.3804 206.47 9.16864 205.838 8.96094 205.205L8.01367 205.517ZM170.566 204.138L171.564 204.192C171.601 203.523 171.636 202.851 171.671 202.178L171.173 202.151V202.152L170.674 202.126C170.639 202.798 170.603 203.469 170.566 204.138ZM123.826 202.152L123.825 202.151L123.328 202.178C123.363 202.851 123.398 203.523 123.435 204.192L124.432 204.138C124.395 203.469 124.359 202.798 124.324 202.126L123.826 202.152ZM227.163 203.711L228.146 203.89C228.266 203.231 228.384 202.57 228.499 201.907L227.515 201.735C227.4 202.396 227.283 203.055 227.163 203.711ZM66.9932 201.822L66.9922 201.821L66.502 201.907C66.6172 202.57 66.7346 203.231 66.8545 203.89L67.8369 203.711C67.7175 203.055 67.6001 202.396 67.4854 201.736L66.9932 201.822ZM286.65 203.299L287.128 203.449H287.127L287.603 203.599C287.804 202.958 288.001 202.315 288.194 201.67L287.238 201.382C287.046 202.022 286.85 202.662 286.65 203.299ZM7.2832 201.527L7.28223 201.526L6.80664 201.67C7.00012 202.315 7.19717 202.958 7.39844 203.599L7.87305 203.449L8.34961 203.299C8.14969 202.662 7.95392 202.023 7.76172 201.383L7.2832 201.527ZM170.776 200.121L171.773 200.171C171.806 199.507 171.839 198.842 171.871 198.175L171.372 198.15V198.151L170.873 198.127C170.841 198.793 170.809 199.458 170.776 200.121ZM123.627 198.151L123.626 198.15L123.128 198.175C123.16 198.842 123.193 199.507 123.226 200.171L124.222 200.121C124.189 199.458 124.157 198.793 124.125 198.127L123.627 198.151ZM227.849 199.769L228.834 199.932C228.943 199.276 229.049 198.618 229.153 197.959L228.167 197.803C228.063 198.46 227.957 199.115 227.849 199.769ZM65.8477 197.959C65.9517 198.618 66.0583 199.276 66.167 199.932L66.6582 199.851L67.1514 199.769C67.0431 199.115 66.9367 198.46 66.833 197.803L65.8477 197.959ZM287.802 199.464L288.762 199.739C288.946 199.096 289.126 198.45 289.303 197.803L288.34 197.539C288.164 198.182 287.985 198.824 287.802 199.464ZM5.69824 197.803C5.87482 198.45 6.0549 199.096 6.23926 199.739L7.19824 199.464C7.01501 198.824 6.83566 198.182 6.66016 197.539L5.69824 197.803ZM170.966 196.122L171.466 196.145H171.465L171.963 196.167C171.993 195.496 172.024 194.823 172.053 194.148L171.554 194.128L171.054 194.106C171.025 194.78 170.996 195.452 170.966 196.122ZM123.446 194.128L123.445 194.127L122.946 194.148C122.975 194.823 123.006 195.496 123.036 196.167L123.533 196.145L124.032 196.122C124.002 195.452 123.973 194.78 123.944 194.106L123.446 194.128ZM228.471 195.826L229.46 195.975C229.559 195.311 229.656 194.646 229.751 193.979L228.761 193.839C228.666 194.503 228.57 195.166 228.471 195.826ZM65.25 193.979C65.3447 194.646 65.4416 195.311 65.541 195.975L66.5293 195.826C66.4303 195.166 66.3335 194.503 66.2393 193.839L65.25 193.979ZM288.854 195.604L289.821 195.855C289.99 195.204 290.155 194.552 290.316 193.897L289.346 193.658C289.186 194.308 289.022 194.957 288.854 195.604ZM4.68457 193.897C4.84552 194.552 5.01083 195.204 5.17969 195.855L6.14551 195.604C5.97781 194.957 5.81418 194.308 5.6543 193.658L4.68457 193.897ZM171.137 192.11L172.135 192.15C172.162 191.485 172.189 190.819 172.215 190.15L172.214 190.149L171.715 190.131L171.215 190.111C171.189 190.779 171.163 191.446 171.137 192.11ZM123.285 190.131L123.284 190.13L122.784 190.149V190.15C122.81 190.819 122.837 191.485 122.864 192.15L123.362 192.13L123.861 192.109C123.835 191.445 123.809 190.779 123.783 190.111L123.285 190.131ZM229.033 191.868L230.024 192.002C230.113 191.342 230.199 190.68 230.283 190.017L229.291 189.892C229.207 190.552 229.121 191.211 229.033 191.868ZM64.7178 190.017C64.8017 190.68 64.8879 191.342 64.9766 192.002L65.4717 191.936L65.9668 191.868C65.8786 191.211 65.7926 190.552 65.709 189.892L64.7178 190.017ZM289.811 191.717L290.784 191.943L290.785 191.944C290.937 191.292 291.085 190.637 291.229 189.981L290.74 189.874V189.875L290.251 189.767C290.108 190.418 289.961 191.068 289.811 191.717ZM4.26074 189.875L4.25977 189.874L3.77246 189.981C3.91644 190.637 4.06396 191.292 4.21582 191.944V191.943L5.18945 191.717C5.03857 191.068 4.89206 190.418 4.74902 189.767L4.26074 189.875ZM171.289 188.103L172.286 188.139C172.31 187.467 172.335 186.794 172.357 186.119L171.358 186.086C171.336 186.76 171.313 187.432 171.289 188.103ZM122.641 186.119H122.642C122.664 186.794 122.689 187.466 122.713 188.138L123.71 188.103C123.686 187.432 123.662 186.76 123.64 186.086L122.641 186.119ZM229.534 187.904L230.032 187.964H230.031L230.527 188.022L230.528 188.023C230.607 187.358 230.683 186.69 230.758 186.021L229.764 185.911C229.69 186.577 229.613 187.242 229.534 187.904ZM64.2422 186.021V186.022C64.3166 186.691 64.3935 187.358 64.4727 188.023V188.022L65.4648 187.904C65.386 187.242 65.3095 186.577 65.2354 185.911L64.2422 186.021ZM290.669 187.808L291.647 188.01C291.783 187.351 291.915 186.691 292.043 186.029L291.062 185.84C290.934 186.497 290.804 187.153 290.669 187.808ZM3.44824 185.936L3.44727 185.935L2.95801 186.03C3.08591 186.692 3.21765 187.351 3.35352 188.01L4.33105 187.808C4.19601 187.153 4.06558 186.497 3.93848 185.84L3.44824 185.936ZM171.423 184.094L171.923 184.109H171.922L172.42 184.124C172.441 183.458 172.462 182.79 172.481 182.12L171.982 182.106L171.482 182.092C171.463 182.76 171.444 183.428 171.423 184.094ZM123.017 182.106L123.016 182.105L122.517 182.12H122.518C122.537 182.79 122.558 183.458 122.579 184.124L123.076 184.109L123.576 184.094C123.555 183.428 123.535 182.76 123.516 182.092L123.017 182.106ZM291.429 183.878L292.411 184.056C292.53 183.396 292.646 182.736 292.757 182.073L292.265 181.991L291.771 181.908C291.661 182.566 291.547 183.223 291.429 183.878ZM2.73633 181.991L2.73535 181.99L2.24414 182.073C2.35516 182.736 2.47086 183.396 2.58984 184.056L3.57129 183.879C3.453 183.224 3.33887 182.566 3.22852 181.908L2.73633 181.991ZM229.977 183.935L230.971 184.038C231.04 183.375 231.106 182.711 231.17 182.045L230.674 181.997L230.176 181.948C230.112 182.612 230.045 183.274 229.977 183.935ZM64.3271 181.997L64.3262 181.996L63.8311 182.045C63.8953 182.711 63.9614 183.375 64.0303 184.038L65.0234 183.935C64.9548 183.274 64.8882 182.612 64.8242 181.948L64.3271 181.997ZM171.538 180.081L172.537 180.107C172.555 179.438 172.572 178.766 172.589 178.094L172.09 178.082L171.59 178.069C171.573 178.741 171.556 179.412 171.538 180.081ZM122.909 178.082L122.908 178.081L122.41 178.094C122.427 178.766 122.445 179.438 122.463 180.107L123.46 180.08C123.442 179.411 123.425 178.741 123.408 178.069L122.909 178.082ZM292.091 179.929L292.586 180.006H292.585L293.077 180.082C293.18 179.418 293.278 178.753 293.373 178.087L292.385 177.946C292.291 178.608 292.193 179.269 292.091 179.929ZM1.62793 178.087C1.72263 178.753 1.82108 179.418 1.92383 180.082L2.41504 180.006L2.90918 179.929C2.8071 179.269 2.70932 178.608 2.61523 177.946L1.62793 178.087ZM230.36 179.954L231.356 180.043C231.416 179.377 231.473 178.709 231.527 178.04L230.531 177.958C230.477 178.625 230.419 179.29 230.36 179.954ZM63.4736 178.04C63.5283 178.709 63.5852 179.377 63.6445 180.043L64.6387 179.954C64.5796 179.29 64.5232 178.625 64.4688 177.958L63.4736 178.04ZM292.653 175.969L293.644 176.097C293.73 175.432 293.812 174.766 293.89 174.099L292.898 173.982C292.821 174.646 292.739 175.308 292.653 175.969ZM1.11133 174.099C1.18936 174.766 1.27133 175.432 1.35742 176.097L1.85059 176.033L2.34668 175.969C2.26117 175.308 2.17911 174.646 2.10156 173.983L1.11133 174.099ZM171.637 176.073L172.635 176.096C172.65 175.428 172.664 174.759 172.678 174.089L171.679 174.069C171.665 174.739 171.652 175.407 171.637 176.073ZM122.321 174.089C122.335 174.759 122.349 175.428 122.364 176.096L123.362 176.073C123.347 175.407 123.333 174.739 123.319 174.069L122.321 174.089ZM230.686 175.975L231.683 176.049C231.732 175.383 231.779 174.717 231.824 174.049L230.827 173.982C230.782 174.648 230.735 175.312 230.686 175.975ZM63.1768 174.049C63.2216 174.717 63.2688 175.383 63.3184 176.049L64.3145 175.975C64.2651 175.312 64.2175 174.648 64.1729 173.982L63.1768 174.049ZM0.693359 170.088C0.754944 170.758 0.819977 171.426 0.889648 172.094L1.88086 171.989C1.81165 171.326 1.74673 170.662 1.68555 169.996L0.693359 170.088ZM293.119 171.989L294.111 172.093C294.181 171.425 294.246 170.757 294.308 170.087L293.314 169.996C293.253 170.662 293.188 171.326 293.119 171.989ZM171.717 172.057L172.218 172.066H172.217L172.716 172.075C172.728 171.406 172.739 170.736 172.75 170.064L171.751 170.049C171.74 170.719 171.729 171.389 171.717 172.057ZM122.249 170.064C122.26 170.736 122.271 171.406 122.283 172.075L122.781 172.066L123.281 172.057C123.269 171.389 123.258 170.719 123.247 170.049L122.249 170.064ZM230.954 171.982L231.951 172.042C231.991 171.375 232.029 170.707 232.064 170.038L231.566 170.012V170.013L231.066 169.985C231.031 170.652 230.994 171.318 230.954 171.982ZM63.4346 170.013L63.4336 170.012L62.9365 170.038C62.9718 170.707 63.0098 171.375 63.0498 172.042L64.0459 171.982C64.0061 171.318 63.9688 170.652 63.9336 169.985L63.4346 170.013ZM293.484 168.007L294.479 168.087C294.533 167.419 294.582 166.749 294.627 166.078L293.631 166.012C293.586 166.678 293.537 167.343 293.484 168.007ZM0.374023 166.078C0.419098 166.749 0.468292 167.419 0.521484 168.087L1.51465 168.007C1.46185 167.343 1.41388 166.678 1.36914 166.012L0.374023 166.078ZM171.78 168.051L172.779 168.064C172.788 167.396 172.797 166.727 172.805 166.057L171.806 166.045C171.798 166.715 171.789 167.384 171.78 168.051ZM122.194 166.057C122.202 166.727 122.211 167.396 122.22 168.064L123.218 168.051C123.209 167.384 123.2 166.715 123.192 166.045L122.194 166.057ZM231.164 167.996L232.162 168.042C232.193 167.375 232.22 166.707 232.246 166.038L231.249 166C231.223 166.667 231.194 167.332 231.164 167.996ZM62.7539 166.038C62.7797 166.707 62.8084 167.375 62.8389 168.042L63.835 167.996C63.8046 167.332 63.7767 166.667 63.751 166L62.7539 166.038ZM293.754 164.009L294.75 164.063C294.787 163.394 294.819 162.723 294.848 162.052L293.851 162.009C293.822 162.676 293.79 163.343 293.754 164.009ZM0.15332 162.052C0.181946 162.723 0.214233 163.394 0.250977 164.063L1.24609 164.009C1.20959 163.343 1.17786 162.676 1.14941 162.009L0.15332 162.052ZM171.827 164.033L172.825 164.042C172.831 163.374 172.838 162.704 172.843 162.033L172.344 162.03L171.844 162.026C171.839 162.696 171.833 163.366 171.827 164.033ZM122.655 162.03L122.654 162.029L122.157 162.033C122.162 162.704 122.168 163.374 122.174 164.042L123.172 164.033C123.166 163.366 123.159 162.696 123.154 162.026L122.655 162.03ZM231.318 163.997L232.316 164.028C232.337 163.361 232.357 162.693 232.373 162.023L231.874 162.011V162.012L231.375 161.999C231.359 162.666 231.339 163.332 231.318 163.997ZM63.126 162.012L63.125 162.011L62.6279 162.023C62.6443 162.693 62.6626 163.361 62.6836 164.028L63.6816 163.997C63.6607 163.332 63.6413 162.666 63.625 161.999L63.126 162.012ZM293.924 160.014L294.921 160.045C294.941 159.375 294.957 158.704 294.97 158.031L293.973 158.013C293.96 158.681 293.944 159.348 293.924 160.014ZM0.03125 158.031C0.0435181 158.704 0.0596924 159.375 0.0800781 160.045L1.07617 160.015C1.05591 159.349 1.03952 158.682 1.02734 158.014L0.03125 158.031ZM171.856 160.026L172.357 160.029H172.356L172.855 160.031C172.859 159.363 172.861 158.694 172.863 158.023L171.864 158.021C171.862 158.69 171.86 159.359 171.856 160.026ZM122.136 158.023C122.138 158.694 122.141 159.363 122.145 160.031L122.643 160.029L123.143 160.026C123.139 159.359 123.136 158.69 123.134 158.021L122.136 158.023ZM231.416 160.007L232.415 160.024C232.427 159.357 232.436 158.689 232.443 158.02L231.944 158.015L231.444 158.009C231.437 158.676 231.428 159.342 231.416 160.007ZM63.0566 158.015L63.0557 158.014L62.5576 158.02C62.5646 158.689 62.5743 159.357 62.5859 160.024L63.584 160.007C63.5724 159.342 63.5627 158.676 63.5557 158.009L63.0566 158.015ZM294.497 153.991L293.997 153.994C293.999 154.329 294 154.664 294 155C294 155.335 293.999 155.671 293.997 156.006L294.994 156.012C294.996 155.675 295 155.337 295 155C295 154.663 294.996 154.326 294.994 153.989L294.497 153.991ZM0 155C0 155.337 0.00479126 155.675 0.00683594 156.012L1.00293 156.006C1.00089 155.671 1 155.336 1 155C1 154.664 1.00089 154.329 1.00293 153.994L0.00683594 153.989C0.00479126 154.326 0 154.663 0 155ZM171.869 155C171.869 155.336 171.869 155.673 171.868 156.009L172.867 156.01C172.868 155.673 172.869 155.337 172.869 155C172.869 154.664 172.868 154.327 172.867 153.991H171.868C171.869 154.327 171.869 154.664 171.869 155ZM122.129 155C122.129 155.337 122.131 155.673 122.132 156.01L123.13 156.008C123.13 155.672 123.129 155.336 123.129 155C123.129 154.664 123.13 154.327 123.13 153.991H122.132L122.129 155ZM231.458 153.995C231.459 154.33 231.46 154.665 231.46 155C231.46 155.335 231.459 155.67 231.458 156.004L232.457 156.008C232.458 155.672 232.46 155.336 232.46 155C232.46 154.664 232.458 154.329 232.457 153.993L231.458 153.995ZM62.54 155C62.54 155.336 62.5428 155.672 62.5439 156.008L63.542 156.005C63.5408 155.67 63.54 155.335 63.54 155C63.54 154.665 63.5408 154.33 63.542 153.995L62.5439 153.993C62.5428 154.329 62.54 154.664 62.54 155ZM231.416 149.993C231.428 150.658 231.437 151.324 231.444 151.991L232.443 151.981C232.436 151.312 232.427 150.644 232.415 149.977L231.416 149.993ZM62.5576 151.981L63.5557 151.991C63.5626 151.324 63.5724 150.658 63.584 149.993L62.5859 149.977C62.5743 150.644 62.5646 151.312 62.5576 151.981ZM293.924 149.985C293.944 150.651 293.96 151.318 293.973 151.986L294.97 151.97C294.957 151.297 294.941 150.626 294.921 149.956L293.924 149.985ZM0.03125 151.97L1.02734 151.986C1.03955 151.318 1.05591 150.651 1.07617 149.985L0.0800781 149.956C0.0596924 150.626 0.0435181 151.297 0.03125 151.97ZM171.856 149.974C171.86 150.641 171.862 151.31 171.864 151.979L172.863 151.978C172.861 151.307 172.859 150.637 172.855 149.969L171.856 149.974ZM122.136 151.978L123.134 151.979C123.136 151.31 123.139 150.641 123.143 149.974L122.145 149.969C122.141 150.637 122.138 151.307 122.136 151.978ZM231.318 146.003C231.339 146.668 231.359 147.334 231.375 148.001L232.373 147.978C232.357 147.308 232.337 146.64 232.316 145.973L231.318 146.003ZM62.6279 147.978L63.126 147.989L63.625 148.001C63.6413 147.334 63.6607 146.668 63.6816 146.003L62.6836 145.973C62.6626 146.64 62.6443 147.308 62.6279 147.978ZM293.754 145.991C293.79 146.657 293.822 147.324 293.851 147.991L294.351 147.97L294.848 147.949C294.819 147.278 294.787 146.607 294.75 145.938L293.754 145.991ZM0.15332 147.949L0.649414 147.97L1.14941 147.991C1.17786 147.324 1.20959 146.657 1.24609 145.991L0.250977 145.938C0.214233 146.607 0.181946 147.278 0.15332 147.949ZM172.327 145.962L172.328 145.963L171.827 145.967C171.833 146.635 171.839 147.304 171.844 147.974L172.344 147.971L172.843 147.968C172.838 147.297 172.831 146.627 172.825 145.959L172.327 145.962ZM122.157 147.968L123.154 147.974C123.159 147.304 123.166 146.635 123.172 145.967L122.672 145.963V145.962L122.174 145.959C122.168 146.627 122.162 147.297 122.157 147.968ZM231.664 141.98L231.665 141.981L231.164 142.004C231.194 142.668 231.223 143.334 231.249 144L231.748 143.98L232.246 143.962C232.22 143.293 232.193 142.625 232.162 141.959L231.664 141.98ZM62.7539 143.962L63.252 143.98L63.751 144C63.7767 143.333 63.8046 142.668 63.835 142.004L63.3359 141.981V141.98L62.8389 141.959C62.8084 142.625 62.7797 143.293 62.7539 143.962ZM293.484 141.992C293.537 142.656 293.586 143.322 293.631 143.988L294.627 143.922C294.582 143.251 294.533 142.582 294.479 141.914L293.484 141.992ZM0.374023 143.923L1.36914 143.988C1.41391 143.322 1.46182 142.656 1.51465 141.992L0.521484 141.914C0.468323 142.582 0.419098 143.252 0.374023 143.923ZM171.78 141.949C171.789 142.616 171.798 143.285 171.806 143.955L172.805 143.944C172.797 143.274 172.788 142.605 172.779 141.937L171.78 141.949ZM122.194 143.944L123.192 143.955C123.2 143.285 123.209 142.616 123.218 141.949L122.22 141.937C122.211 142.605 122.202 143.274 122.194 143.944ZM231.454 137.988L230.954 138.018C230.994 138.682 231.031 139.348 231.066 140.015L232.064 139.963C232.029 139.294 231.991 138.626 231.951 137.959L231.454 137.988ZM62.9365 139.963L63.9336 140.015C63.9688 139.348 64.0061 138.682 64.0459 138.018L63.5469 137.988V137.987L63.0498 137.959C63.0098 138.626 62.9718 139.294 62.9365 139.963ZM293.616 137.958L293.617 137.959L293.119 138.011C293.188 138.674 293.253 139.338 293.314 140.004L294.308 139.913C294.246 139.243 294.181 138.575 294.111 137.907L293.616 137.958ZM0.693359 139.913L1.1875 139.958L1.68555 140.004C1.74673 139.338 1.81165 138.674 1.88086 138.011L0.889648 137.907C0.819977 138.575 0.754944 139.243 0.693359 139.913ZM171.717 137.942C171.729 138.611 171.74 139.28 171.751 139.951L172.75 139.937C172.739 139.265 172.728 138.595 172.716 137.926L171.717 137.942ZM122.249 139.937L123.247 139.951C123.258 139.28 123.269 138.611 123.281 137.942L122.283 137.926C122.271 138.595 122.26 139.265 122.249 139.937ZM231.185 133.988L230.686 134.025C230.735 134.688 230.782 135.352 230.827 136.018L231.326 135.984L231.823 135.951C231.778 135.284 231.732 134.617 231.683 133.952L231.185 133.988ZM63.1777 135.951L63.6748 135.984L64.1729 136.018C64.2175 135.352 64.2651 134.688 64.3145 134.025L63.8154 133.988L63.3184 133.952C63.2689 134.617 63.2226 135.284 63.1777 135.951ZM293.149 133.967L293.15 133.968L292.653 134.031C292.739 134.692 292.821 135.354 292.898 136.017L293.395 135.959L293.89 135.901C293.812 135.234 293.73 134.569 293.644 133.904L293.149 133.967ZM1.11133 135.901L1.60547 135.959H1.60645L2.10156 136.017C2.17911 135.354 2.26114 134.692 2.34668 134.031L1.85059 133.968V133.967L1.35742 133.904C1.27139 134.569 1.18933 135.234 1.11133 135.901ZM171.637 133.927C171.652 134.593 171.665 135.261 171.679 135.931L172.678 135.912C172.664 135.242 172.65 134.573 172.635 133.905L171.637 133.927ZM122.321 135.911L123.319 135.931C123.333 135.261 123.347 134.593 123.362 133.927L122.862 133.916V133.915L122.364 133.905C122.349 134.573 122.335 135.241 122.321 135.911ZM292.585 129.994L292.586 129.995L292.091 130.071C292.193 130.731 292.291 131.392 292.385 132.054L293.373 131.914C293.278 131.248 293.18 130.583 293.077 129.919L292.585 129.994ZM1.62793 131.914L2.61523 132.054C2.70932 131.392 2.8071 130.731 2.90918 130.071L2.41504 129.995V129.994L1.92383 129.919C1.82108 130.583 1.72263 131.248 1.62793 131.914ZM230.36 130.046C230.419 130.71 230.477 131.375 230.531 132.041L231.527 131.961C231.473 131.292 231.416 130.624 231.356 129.958L230.36 130.046ZM63.4736 131.961L63.9707 132.001H63.9717L64.4688 132.041C64.5232 131.375 64.5796 130.709 64.6387 130.046L63.6445 129.958C63.5852 130.624 63.5283 131.292 63.4736 131.961ZM171.538 129.919C171.556 130.588 171.573 131.259 171.59 131.931L172.09 131.919L172.589 131.907C172.572 131.235 172.555 130.563 172.537 129.894L171.538 129.919ZM122.41 131.907L123.408 131.931C123.425 131.259 123.442 130.588 123.46 129.919L122.463 129.894C122.445 130.563 122.427 131.235 122.41 131.907ZM291.429 126.121C291.547 126.776 291.661 127.434 291.771 128.092L292.757 127.928C292.646 127.265 292.53 126.604 292.411 125.944L291.429 126.121ZM2.24414 127.928L3.22852 128.092C3.33887 127.434 3.45303 126.776 3.57129 126.121L3.0791 126.033V126.032L2.58984 125.945C2.47086 126.605 2.35516 127.265 2.24414 127.928ZM229.977 126.065C230.045 126.726 230.112 127.388 230.176 128.052L231.17 127.956C231.106 127.29 231.04 126.626 230.971 125.963L229.977 126.065ZM63.8311 127.956L64.8242 128.052C64.8882 127.388 64.9548 126.726 65.0234 126.065L64.0303 125.963C63.9614 126.626 63.8953 127.29 63.8311 127.956ZM171.923 125.892L171.423 125.906C171.444 126.572 171.463 127.239 171.482 127.908L172.481 127.881C172.462 127.211 172.441 126.543 172.42 125.876L171.923 125.892ZM122.518 127.881L123.516 127.908C123.535 127.239 123.555 126.572 123.576 125.906L122.579 125.876C122.558 126.543 122.537 127.211 122.518 127.881ZM290.669 122.192C290.804 122.847 290.934 123.503 291.062 124.16L292.043 123.971C291.915 123.309 291.783 122.649 291.647 121.991L290.669 122.192ZM2.95801 123.971L3.44727 124.065H3.44824L3.93848 124.16C4.06558 123.503 4.19604 122.847 4.33105 122.192L3.35352 121.991C3.21765 122.649 3.08588 123.309 2.95801 123.971ZM230.031 122.036L230.032 122.037L229.534 122.096C229.613 122.758 229.69 123.423 229.764 124.089L230.261 124.033L230.758 123.979C230.683 123.31 230.607 122.643 230.528 121.978L230.031 122.036ZM64.2432 123.979L65.2354 124.089C65.3095 123.423 65.386 122.758 65.4648 122.096L64.9688 122.037V122.036L64.4727 121.978C64.3935 122.643 64.3176 123.31 64.2432 123.979ZM171.289 121.897C171.313 122.568 171.336 123.24 171.358 123.914L172.357 123.881C172.335 123.206 172.31 122.534 172.286 121.862L171.289 121.897ZM122.642 123.881L123.141 123.896L123.64 123.913C123.662 123.24 123.686 122.568 123.71 121.897L122.713 121.862C122.689 122.534 122.664 123.206 122.642 123.881ZM289.811 118.283C289.961 118.932 290.108 119.582 290.251 120.233L291.229 120.02C291.085 119.364 290.937 118.709 290.785 118.057L289.811 118.283ZM3.77246 120.02L4.74902 120.233C4.89206 119.582 5.0386 118.932 5.18945 118.283L4.21582 118.057C4.06396 118.709 3.91644 119.364 3.77246 120.02ZM229.033 118.131C229.121 118.788 229.207 119.448 229.291 120.108L230.184 119.995L230.283 119.983C230.199 119.32 230.113 118.659 230.024 117.999L229.033 118.131ZM64.7178 119.983L65.2139 120.046L65.709 120.108C65.7926 119.448 65.8786 118.789 65.9668 118.132L65.4717 118.065V118.064L64.9766 117.999C64.888 118.659 64.8017 119.32 64.7178 119.983ZM171.137 117.89C171.163 118.554 171.189 119.221 171.215 119.889L171.715 119.87L172.215 119.851C172.189 119.182 172.162 118.516 172.135 117.851L171.137 117.89ZM122.784 119.851L123.284 119.87H123.285L123.783 119.889C123.809 119.221 123.835 118.554 123.861 117.89L122.864 117.851C122.837 118.516 122.81 119.182 122.784 119.851ZM288.854 114.396C289.022 115.042 289.186 115.691 289.346 116.341L289.831 116.222L290.316 116.104C290.155 115.449 289.99 114.797 289.821 114.146L288.854 114.396ZM4.68457 116.104L5.16895 116.222L5.6543 116.341C5.81415 115.691 5.97781 115.042 6.14551 114.396L5.17969 114.146C5.01086 114.797 4.84552 115.449 4.68457 116.104ZM228.965 114.1L228.966 114.101L228.471 114.174C228.57 114.834 228.666 115.496 228.761 116.16L229.751 116.021C229.656 115.354 229.559 114.689 229.46 114.026L228.965 114.1ZM65.25 116.021L66.2393 116.16C66.3335 115.496 66.4303 114.834 66.5293 114.174L66.0352 114.1H66.0342L65.541 114.026C65.4417 114.689 65.3446 115.354 65.25 116.021ZM170.966 113.878C170.996 114.548 171.025 115.22 171.054 115.894L172.053 115.853C172.024 115.178 171.993 114.505 171.963 113.834L170.966 113.878ZM122.946 115.853L123.944 115.894C123.973 115.22 124.002 114.548 124.032 113.878L123.036 113.834C123.006 114.505 122.975 115.178 122.946 115.853ZM287.802 110.536C287.985 111.176 288.164 111.818 288.34 112.461L289.303 112.198C289.126 111.551 288.946 110.905 288.762 110.262L287.802 110.536ZM5.69824 112.198L6.66016 112.461C6.83566 111.818 7.01498 111.176 7.19824 110.536L6.23926 110.262C6.0549 110.905 5.87482 111.551 5.69824 112.198ZM228.343 110.15L227.849 110.231C227.957 110.885 228.063 111.54 228.167 112.197L228.661 112.119L229.154 112.042C229.05 111.383 228.943 110.725 228.834 110.069L228.343 110.15ZM65.8467 112.042L66.3389 112.119H66.3398L66.833 112.197C66.9367 111.54 67.0431 110.885 67.1514 110.231L66.6582 110.15V110.149L66.167 110.069C66.0583 110.725 65.9507 111.383 65.8467 112.042ZM170.776 109.879C170.809 110.542 170.841 111.207 170.873 111.873L171.871 111.826C171.839 111.159 171.806 110.494 171.773 109.83L170.776 109.879ZM123.128 111.826L123.626 111.85H123.627L124.125 111.873C124.157 111.207 124.189 110.542 124.222 109.879L123.226 109.83C123.193 110.494 123.16 111.159 123.128 111.826ZM287.128 106.552L286.65 106.7C286.85 107.337 287.046 107.977 287.238 108.617L288.195 108.331C288.002 107.686 287.804 107.043 287.603 106.402L287.128 106.552ZM6.80566 108.331L7.76074 108.617C7.95303 107.976 8.14963 107.337 8.34961 106.7L7.87305 106.552V106.551L7.39844 106.402C7.19714 107.043 6.99918 107.686 6.80566 108.331ZM227.656 106.2L227.163 106.289C227.283 106.945 227.4 107.604 227.515 108.264L228.008 108.179L228.499 108.094C228.384 107.431 228.266 106.77 228.146 106.111L227.656 106.2ZM66.502 108.094L66.9932 108.179L67.4854 108.264C67.6001 107.604 67.7175 106.945 67.8369 106.289L66.8545 106.111C66.7346 106.77 66.6172 107.431 66.502 108.094ZM170.566 105.862C170.603 106.531 170.639 107.202 170.674 107.874L171.173 107.849L171.671 107.823C171.636 107.15 171.601 106.478 171.564 105.809L170.566 105.862ZM123.328 107.823L123.825 107.849H123.826L124.324 107.874C124.359 107.201 124.395 106.531 124.432 105.862L123.435 105.809C123.398 106.478 123.363 107.15 123.328 107.823ZM285.878 102.739L285.404 102.9C285.62 103.53 285.831 104.162 286.039 104.795L286.987 104.484C286.778 103.847 286.564 103.212 286.348 102.578L285.878 102.739ZM8.01367 104.484L8.96094 104.795C9.16861 104.162 9.3804 103.53 9.5957 102.9L9.12305 102.739V102.738L8.65332 102.578C8.43665 103.212 8.22269 103.847 8.01367 104.484ZM226.419 102.375C226.548 103.023 226.674 103.674 226.798 104.326L227.779 104.141C227.655 103.486 227.528 102.833 227.398 102.182L226.419 102.375ZM67.2217 104.141L68.2021 104.326C68.3263 103.674 68.4523 103.023 68.5811 102.375L67.6025 102.182C67.4732 102.833 67.3463 103.486 67.2217 104.141ZM170.838 101.847L170.338 101.876C170.377 102.536 170.416 103.199 170.454 103.863L171.451 103.807C171.413 103.141 171.376 102.478 171.337 101.816H171.336L170.838 101.847ZM123.548 103.807L124.544 103.863C124.582 103.199 124.621 102.536 124.66 101.876L124.161 101.847V101.846L123.663 101.817C123.624 102.478 123.586 103.141 123.548 103.807ZM284.061 99.127C284.292 99.7528 284.52 100.381 284.744 101.011L285.685 100.677C285.459 100.043 285.229 99.4111 284.996 98.7812L284.061 99.127ZM9.31641 100.677L10.2559 101.011C10.4802 100.381 10.7076 99.7528 10.9395 99.127L10.0049 98.7812C9.77151 99.4111 9.54214 100.043 9.31641 100.677ZM225.605 98.4521C225.746 99.103 225.885 99.7569 226.021 100.412L226.51 100.311L226.999 100.21C226.863 99.5519 226.724 98.896 226.583 98.2422L225.605 98.4521ZM68.002 100.21L68.4902 100.311L68.9795 100.412C69.1152 99.7569 69.2541 99.103 69.3945 98.4521L68.417 98.2412C68.2758 98.8952 68.1383 99.5516 68.002 100.21ZM170.586 97.8213L170.087 97.8535C170.13 98.5198 170.173 99.1886 170.215 99.8594L171.212 99.7979C171.17 99.1264 171.128 98.457 171.085 97.79L170.586 97.8213ZM123.788 99.7979L124.783 99.8594C124.825 99.1886 124.868 98.5198 124.911 97.8535L124.412 97.8213L123.914 97.79C123.871 98.457 123.83 99.1264 123.788 99.7979ZM282.624 95.3955C282.871 96.0132 283.114 96.6331 283.354 97.2549L284.285 96.8975C284.044 96.2714 283.799 95.6474 283.551 95.0254L282.624 95.3955ZM10.7158 96.8975L11.1807 97.0762L11.6465 97.2549C11.8859 96.6331 12.1291 96.0132 12.376 95.3955L11.4502 95.0254C11.2016 95.6474 10.9569 96.2714 10.7158 96.8975ZM225.221 94.4541L225.222 94.4551L224.733 94.5684C224.884 95.2122 225.032 95.8585 225.178 96.5068L226.153 96.2881C226.007 95.637 225.858 94.9884 225.707 94.3418L225.221 94.4541ZM68.8477 96.2881L69.335 96.3975H69.3359L69.8223 96.5068C69.9678 95.8585 70.1164 95.2122 70.2666 94.5684L69.7793 94.4551V94.4541L69.2939 94.3418C69.1431 94.9884 68.9938 95.637 68.8477 96.2881ZM169.816 93.8633C169.863 94.5269 169.91 95.1929 169.955 95.8613L170.454 95.8281L170.951 95.7949C170.906 95.1256 170.86 94.4585 170.813 93.7939L169.816 93.8633ZM124.048 95.7949L124.545 95.8281H124.546L125.043 95.8613C125.088 95.1929 125.135 94.5269 125.182 93.8633L124.683 93.8281L124.186 93.7939C124.139 94.4585 124.093 95.1256 124.048 95.7949ZM281.55 91.498L281.09 91.6943C281.353 92.3073 281.612 92.9228 281.868 93.54L282.791 93.1582C282.534 92.5371 282.274 91.9176 282.009 91.3008L281.55 91.498ZM12.21 93.1582L13.1318 93.54C13.3877 92.9228 13.6469 92.3073 13.9102 91.6943L13.4512 91.498V91.4971L12.9922 91.3008C12.7273 91.9176 12.4674 92.5371 12.21 93.1582ZM223.79 90.6748C223.952 91.3189 224.111 91.9654 224.269 92.6143L225.24 92.3799C225.082 91.7281 224.922 91.0787 224.759 90.4316L223.79 90.6748ZM69.7607 92.3799L70.7305 92.6143C70.8877 91.9653 71.048 91.3189 71.21 90.6748L70.2422 90.4316C70.0795 91.0787 69.9187 91.7281 69.7607 92.3799ZM170.022 89.8164L170.023 89.8174L169.523 89.8545C169.574 90.5175 169.624 91.1835 169.673 91.8516L170.669 91.7793C170.62 91.1104 170.569 90.4441 170.519 89.7803L170.022 89.8164ZM124.33 91.7793L125.326 91.8516C125.375 91.1835 125.424 90.5175 125.475 89.8545L124.977 89.8174V89.8164L124.48 89.7803C124.43 90.4441 124.379 91.1104 124.33 91.7793ZM279.465 88.042C279.743 88.6465 280.017 89.2534 280.288 89.8623L281.203 89.4561C280.931 88.8433 280.653 88.2334 280.373 87.625L279.465 88.042ZM13.7979 89.4561L14.7119 89.8623C14.9827 89.2534 15.2571 88.6465 15.5352 88.042L14.6279 87.625C14.3481 88.2334 14.0703 88.8433 13.7979 89.4561ZM222.784 86.8164C222.958 87.4583 223.128 88.1031 223.297 88.75L224.264 88.498C224.094 87.8481 223.922 87.2006 223.748 86.5557L222.784 86.8164ZM70.7373 88.498L71.7031 88.75C71.8718 88.1031 72.0424 87.4583 72.2158 86.8164L71.7334 86.6865V86.6855L71.2529 86.5566C71.0788 87.2013 70.9067 87.8484 70.7373 88.498ZM169.208 85.8555C169.263 86.5251 169.317 87.1979 169.37 87.873L170.292 87.8008L170.367 87.7959C170.314 87.1196 170.258 86.4462 170.203 85.7754L169.208 85.8555ZM124.632 87.7949L125.628 87.873C125.681 87.1979 125.735 86.5251 125.79 85.8555L124.796 85.7754C124.741 86.4459 124.685 87.119 124.632 87.7949ZM277.744 84.4238C278.038 85.0223 278.329 85.6235 278.616 86.2266L279.519 85.7979C279.23 85.1907 278.937 84.586 278.641 83.9834L277.744 84.4238ZM15.4824 85.7979L16.3838 86.2266C16.6706 85.6235 16.9618 85.0223 17.2559 84.4238L16.3604 83.9834C16.0642 84.586 15.7712 85.1907 15.4824 85.7979ZM221.707 82.9688C221.891 83.6047 222.073 84.2436 222.253 84.8848L223.215 84.6162C223.035 83.9721 222.853 83.3303 222.668 82.6914L221.707 82.9688ZM71.7861 84.6162L72.7471 84.8848C72.9265 84.2436 73.1088 83.6047 73.293 82.9688L72.333 82.6914C72.148 83.3303 71.9664 83.9721 71.7861 84.6162ZM168.87 81.8711C168.928 82.5294 168.985 83.1905 169.041 83.8545L169.539 83.8125L170.037 83.7715C169.981 83.1062 169.922 82.4438 169.864 81.7842L168.87 81.8711ZM124.962 83.7715L125.459 83.8125L125.957 83.8545C126.013 83.1905 126.071 82.5294 126.129 81.8711L125.631 81.8281V81.8271L125.135 81.7842C125.077 82.4438 125.018 83.1062 124.962 83.7715ZM276.378 80.625L276.379 80.626L275.935 80.8574C276.244 81.4478 276.55 82.0407 276.852 82.6357L277.741 82.1846C277.437 81.5858 277.129 80.9896 276.818 80.3955L276.378 80.625ZM17.2598 82.1846L18.1484 82.6357C18.4503 82.0407 18.7564 81.4478 19.0654 80.8574L18.6221 80.626V80.625L18.1826 80.3955C17.8716 80.9896 17.5636 81.5857 17.2598 82.1846ZM221.038 78.9932L221.039 78.9941L220.561 79.1416C220.758 79.7791 220.953 80.4194 221.146 81.0625L222.104 80.7764C221.91 80.1302 221.713 79.4872 221.515 78.8467L221.038 78.9932ZM72.8975 80.7764L73.8545 81.0625C74.0471 80.4194 74.242 79.7791 74.4395 79.1416L73.9619 78.9941V78.9932L73.4863 78.8467C73.2879 79.4872 73.091 80.1302 72.8975 80.7764ZM168.505 77.8623C168.568 78.5274 168.629 79.1959 168.69 79.8672L169.685 79.7773C169.623 79.1047 169.564 78.435 169.501 77.7686L168.505 77.8623ZM125.314 79.7773L126.308 79.8672C126.369 79.1959 126.43 78.5273 126.493 77.8623L125.498 77.7686C125.435 78.435 125.376 79.1047 125.314 79.7773ZM274.032 77.334C274.356 77.9162 274.677 78.5008 274.994 79.0879L275.435 78.8506L275.872 78.6152C275.553 78.0243 275.231 77.4357 274.904 76.8496L274.032 77.334ZM19.1289 78.6152L19.5654 78.8506L20.0059 79.0879C20.3229 78.5008 20.6436 77.9162 20.9678 77.334L20.0967 76.8496C19.7704 77.4357 19.448 78.0243 19.1289 78.6152ZM219.822 75.1943L219.347 75.3506C219.554 75.9766 219.759 76.6055 219.961 77.2373L220.437 77.085L220.912 76.9336C220.709 76.2989 220.504 75.667 220.296 75.0381L219.822 75.1943ZM74.0889 76.9336L74.5635 77.085L75.0391 77.2373C75.2413 76.6055 75.4463 75.9765 75.6533 75.3506L75.1787 75.1943V75.1934L74.7051 75.0381C74.4971 75.667 74.2921 76.2989 74.0889 76.9336ZM168.117 73.8838C168.184 74.5445 168.249 75.2087 168.314 75.876L169.309 75.7803C169.243 75.1116 169.177 74.4463 169.11 73.7842L168.117 73.8838ZM125.69 75.7803L126.684 75.876C126.749 75.2087 126.815 74.5445 126.882 73.8838L125.889 73.7842C125.822 74.4463 125.756 75.1116 125.69 75.7803ZM272.041 73.8633C272.38 74.4375 272.717 75.0145 273.049 75.5938L273.915 75.0986C273.581 74.5155 273.243 73.9346 272.901 73.3564L272.041 73.8633ZM21.0859 75.0986L21.9512 75.5938C22.2834 75.0145 22.6197 74.4375 22.959 73.8633L22.0996 73.3564C21.758 73.9346 21.4204 74.5155 21.0859 75.0986ZM218.052 71.5615C218.273 72.1883 218.492 72.8182 218.708 73.4512L219.655 73.1279C219.438 72.4919 219.217 71.8593 218.995 71.2295L218.052 71.5615ZM75.3457 73.1279L76.292 73.4512C76.5082 72.8182 76.7271 72.1883 76.9482 71.5615L76.0059 71.2295C75.7837 71.8593 75.563 72.4919 75.3457 73.1279ZM270.385 70.1787L269.961 70.4443C270.315 71.0091 270.665 71.5766 271.012 72.1465L271.866 71.627C271.517 71.0533 271.166 70.4816 270.81 69.9131L270.385 70.1787ZM23.1348 71.627L23.9883 72.1455C24.3349 71.5758 24.6855 71.0089 25.0391 70.4443L24.1914 69.9131C23.8354 70.4816 23.4838 71.0532 23.1348 71.627ZM167.7 69.8896C167.771 70.5483 167.842 71.2113 167.911 71.877L168.905 71.7734C168.836 71.1068 168.764 70.4438 168.692 69.7842L167.7 69.8896ZM126.094 71.7734L127.088 71.877C127.157 71.2113 127.227 70.5483 127.298 69.8896L126.307 69.7842C126.235 70.4438 126.163 71.1068 126.094 71.7734ZM216.689 67.8203C216.922 68.4405 217.154 69.0638 217.382 69.6904L217.852 69.5195L218.32 69.3496C218.091 68.7197 217.859 68.0931 217.625 67.4697L216.689 67.8203ZM76.6807 69.3496L77.1484 69.5195L77.6182 69.6904C77.8463 69.0637 78.0775 68.4405 78.3105 67.8203L77.376 67.4697C77.1418 68.0931 76.91 68.7197 76.6807 69.3496ZM267.794 67.0801C268.163 67.6363 268.528 68.1952 268.89 68.7568L269.73 68.2168C269.366 67.6511 268.997 67.0887 268.626 66.5283L267.794 67.0801ZM25.2705 68.2168L25.459 68.3379L25.6904 68.4863L26.1104 68.7568C26.4722 68.1951 26.8373 67.6355 27.2061 67.0791L26.375 66.5283C26.0037 67.0887 25.6349 67.6511 25.2705 68.2168ZM167.255 65.8984C167.332 66.5641 167.407 67.2339 167.482 67.9072L167.979 67.8516L168.476 67.7969C168.4 67.1225 168.324 66.4519 168.247 65.7852L167.255 65.8984ZM126.523 67.7969L127.019 67.8516L127.516 67.9072C127.591 67.2339 127.667 66.5641 127.744 65.8984L126.752 65.7852C126.675 66.4519 126.599 67.1225 126.523 67.7969ZM215.246 64.0957C215.492 64.7095 215.734 65.3275 215.975 65.9482L216.906 65.5869C216.664 64.963 216.422 64.3417 216.175 63.7246L215.246 64.0957ZM78.0947 65.5869L79.0254 65.9482C79.2661 65.3275 79.5084 64.7095 79.7539 64.0957L78.8262 63.7246C78.5793 64.3417 78.3367 64.963 78.0947 65.5869ZM265.541 63.7734C265.923 64.3189 266.302 64.867 266.678 65.418L267.503 64.8574C267.125 64.3024 266.742 63.7507 266.357 63.2012L265.541 63.7734ZM27.498 64.8574L28.3223 65.418C28.6977 64.867 29.0768 64.3189 29.459 63.7734L28.6436 63.2012C28.2586 63.7507 27.8763 64.3024 27.498 64.8574ZM167.278 61.875L167.279 61.876L166.781 61.9365C166.862 62.5915 166.942 63.251 167.021 63.9141L168.013 63.7959C167.933 63.1318 167.854 62.4715 167.773 61.8154L167.278 61.875ZM126.986 63.7959L127.977 63.9141C128.056 63.251 128.136 62.5915 128.217 61.9365L127.721 61.876V61.875L127.226 61.8154C127.145 62.4715 127.066 63.1318 126.986 63.7959ZM214.183 60.209L214.184 60.21L213.723 60.4053C213.984 61.0186 214.242 61.6361 214.498 62.2568L215.422 61.876C215.164 61.2518 214.904 60.6314 214.642 60.0146L214.183 60.209ZM79.5791 61.876L80.502 62.2568C80.7581 61.6361 81.0163 61.0186 81.2773 60.4053L80.8174 60.21V60.209L80.3594 60.0146C80.0968 60.6314 79.8366 61.2518 79.5791 61.876ZM263.201 60.5254C263.598 61.0617 263.993 61.6006 264.383 62.1426L265.192 61.5605C264.8 61.0151 264.403 60.4724 264.004 59.9326L263.201 60.5254ZM29.8096 61.5596L30.2129 61.8506L30.6182 62.1426C31.0084 61.6006 31.402 61.0607 31.7988 60.5244L30.9971 59.9326C30.5979 60.4721 30.2021 61.0144 29.8096 61.5596ZM166.273 57.9482C166.36 58.6041 166.445 59.265 166.53 59.9297L167.026 59.8662L167.521 59.8037C167.437 59.1375 167.349 58.4758 167.263 57.8184L166.273 57.9482ZM127.478 59.8037L128.469 59.9297C128.554 59.265 128.639 58.6041 128.726 57.9482L127.737 57.8184C127.651 58.4758 127.563 59.1375 127.478 59.8037ZM261.176 57.0342L260.781 57.3408C261.191 57.8657 261.598 58.3942 262.001 58.9248L262.399 58.6221L262.796 58.3213C262.39 57.7873 261.981 57.2558 261.568 56.7275L261.176 57.0342ZM32.2051 58.3213L32.6016 58.6221L32.999 58.9248C33.4025 58.3942 33.8088 57.8657 34.2188 57.3408L33.8252 57.0342V57.0332L33.4326 56.7275C33.02 57.2558 32.6111 57.7872 32.2051 58.3213ZM213.037 56.3564L212.126 56.7686C212.397 57.3671 212.666 57.97 212.932 58.5762L213.39 58.375L213.847 58.1748C213.579 57.5652 213.311 56.9585 213.038 56.3564H213.037ZM81.1543 58.1748L81.6104 58.375L82.0684 58.5762C82.3345 57.97 82.603 57.3671 82.874 56.7686L81.9629 56.3564C81.6903 56.9585 81.422 57.5652 81.1543 58.1748ZM166.226 53.9004L166.227 53.9014L165.73 53.9707C165.824 54.6331 165.916 55.3005 166.008 55.9727L166.503 55.9053L166.998 55.8389C166.906 55.1651 166.813 54.4961 166.72 53.832L166.226 53.9004ZM128.002 55.8389L128.495 55.9053L128.99 55.9727C129.082 55.3004 129.175 54.6331 129.269 53.9707L128.773 53.9014V53.9004L128.279 53.832C128.186 54.496 128.094 55.1651 128.002 55.8389ZM258.275 54.2188C258.699 54.7334 259.12 55.2509 259.538 55.7715L259.928 55.459L260.317 55.1475C259.897 54.6232 259.475 54.1003 259.048 53.582L258.275 54.2188ZM34.6836 55.1475L35.4619 55.7715C35.8796 55.2508 36.3005 54.7325 36.7246 54.2178L35.9531 53.582C35.526 54.1003 35.1042 54.6232 34.6836 55.1475ZM210.882 52.9248L210.883 52.9258L210.432 53.1416C210.719 53.7379 211.004 54.3388 211.286 54.9434L211.739 54.7314L212.191 54.5205C211.907 53.9126 211.621 53.3087 211.332 52.709L210.882 52.9248ZM82.8096 54.5205L83.2607 54.7314L83.7139 54.9434C83.9962 54.3388 84.281 53.7379 84.5684 53.1416L83.6689 52.709C83.38 53.3087 83.0935 53.9126 82.8096 54.5205ZM255.691 51.165C256.128 51.6679 256.562 52.1747 256.993 52.6836L257.757 52.0381C257.323 51.5258 256.886 51.0169 256.446 50.5107L255.691 51.165ZM37.2441 52.0381L37.3945 52.165L37.626 52.3604L38.0068 52.6826C38.4375 52.1737 38.8717 51.6678 39.3086 51.165L38.5547 50.5107C38.1148 51.0169 37.6777 51.5258 37.2441 52.0381ZM165.153 50.0186C165.252 50.673 165.35 51.3331 165.447 51.998L166.435 51.8545C166.337 51.1875 166.239 50.5257 166.14 49.8691L165.153 50.0186ZM128.564 51.8545L129.552 51.998C129.649 51.3331 129.747 50.6731 129.846 50.0186L128.859 49.8691C128.76 50.5257 128.662 51.1875 128.564 51.8545ZM208.658 49.5732C208.962 50.166 209.264 50.7636 209.562 51.3652L210.458 50.9209C210.157 50.3155 209.853 49.7148 209.547 49.1182L208.658 49.5732ZM84.543 50.9209L85.4375 51.3652C85.7365 50.7636 86.0378 50.166 86.3418 49.5732L85.8984 49.3457H85.8975L85.4541 49.1182C85.1481 49.7148 84.8439 50.3155 84.543 50.9209ZM253.026 48.1787C253.477 48.6702 253.924 49.1653 254.368 49.6631L255.113 48.999C254.666 48.4979 254.215 48.0007 253.762 47.5059L253.026 48.1787ZM39.8877 48.999L40.2588 49.3301H40.2598L40.6318 49.6621C41.0759 49.1645 41.5234 48.6701 41.9736 48.1787L41.2393 47.5059C40.7859 48.0007 40.3349 48.4979 39.8877 48.999ZM164.534 46.0674C164.639 46.7144 164.744 47.3671 164.847 48.0254L165.34 47.9482L165.834 47.8721C165.731 47.2118 165.626 46.5572 165.521 45.9082L164.534 46.0674ZM129.165 47.8721L129.658 47.9482L130.152 48.0254C130.255 47.3671 130.359 46.7144 130.464 46.0674L129.479 45.9082C129.373 46.5572 129.268 47.2118 129.165 47.8721ZM206.8 46.0635C207.114 46.6392 207.427 47.2198 207.736 47.8047L208.179 47.5713L208.619 47.3379C208.308 46.7492 207.994 46.1646 207.678 45.585L206.8 46.0635ZM86.3818 47.3379L86.8223 47.5713L87.2637 47.8047C87.5733 47.2199 87.8857 46.6392 88.2002 46.0635L87.3232 45.585C87.0066 46.1646 86.6934 46.7492 86.3818 47.3379ZM250.285 45.2646C250.748 45.7442 251.209 46.227 251.666 46.7129L252.393 46.0303C251.932 45.5411 251.469 45.055 251.003 44.5723L250.285 45.2646ZM42.6094 46.0303L43.334 46.7129C43.7912 46.227 44.2516 45.7442 44.7148 45.2646L44.3555 44.918V44.917L43.998 44.5723C43.5319 45.0548 43.0694 45.5413 42.6094 46.0303ZM205.268 42.3301L204.835 42.582C205.168 43.1533 205.498 43.7295 205.826 44.3105L206.696 43.8203C206.366 43.2353 206.033 42.6553 205.698 42.0801L205.268 42.3301ZM88.3047 43.8203L89.1729 44.3105C89.5007 43.7294 89.8321 43.1534 90.165 42.582L89.3027 42.0801C88.9675 42.6553 88.6347 43.2353 88.3047 43.8203ZM163.867 42.1016C163.981 42.7537 164.094 43.4124 164.206 44.0771L165.189 43.9121C165.077 43.2453 164.965 42.5848 164.851 41.9307L163.867 42.1016ZM129.81 43.9121L130.793 44.0771C130.905 43.4123 131.017 42.7536 131.131 42.1016L130.148 41.9307C130.034 42.5848 129.922 43.2453 129.81 43.9121ZM247.467 42.4238C247.942 42.8908 248.415 43.3614 248.885 43.835L249.24 43.4824L249.595 43.1318C249.122 42.655 248.646 42.1812 248.167 41.7109L247.467 42.4238ZM45.4072 43.1318L46.1152 43.835C46.5849 43.3615 47.0576 42.8908 47.5332 42.4238L46.834 41.7109C46.3551 42.181 45.8801 42.6552 45.4072 43.1318ZM244.574 39.6592C245.063 40.1136 245.548 40.572 246.03 41.0332L246.722 40.3105C246.236 39.8464 245.747 39.3861 245.256 38.9287L244.574 39.6592ZM48.2793 40.3105L48.9697 41.0332C49.4522 40.572 49.9375 40.1137 50.4258 39.6592L49.7461 38.9287C49.2545 39.3862 48.765 39.8463 48.2793 40.3105ZM202.781 39.1709C203.133 39.7359 203.483 40.3063 203.829 40.8818L204.686 40.3672C204.337 39.7875 203.984 39.2137 203.63 38.6445L202.781 39.1709ZM91.3711 38.6436C91.0168 39.2129 90.6645 39.7873 90.3154 40.3672L91.1709 40.8818C91.5173 40.3063 91.8662 39.7359 92.2178 39.1709L91.3711 38.6436ZM163.152 38.1592C163.276 38.8159 163.399 39.4802 163.521 40.1514L164.504 39.9736C164.382 39.3001 164.259 38.6337 164.135 37.9746L163.152 38.1592ZM130.496 39.9736L131.478 40.1504C131.599 39.4794 131.722 38.8157 131.846 38.1592L130.864 37.9746C130.74 38.6337 130.618 39.3002 130.496 39.9736ZM241.94 36.5977L241.609 36.9727C242.109 37.4135 242.607 37.858 243.101 38.3057L243.437 37.9355L243.771 37.5664C243.274 37.1158 242.774 36.6693 242.271 36.2256L241.94 36.5977ZM51.2295 37.5664L51.5635 37.9355L51.8994 38.3057C52.3935 37.858 52.8908 37.4135 53.3906 36.9727L53.0596 36.5977L52.7305 36.2256C52.2274 36.6693 51.7268 37.1158 51.2295 37.5664ZM200.636 35.8369C200.999 36.3822 201.36 36.933 201.718 37.4893L202.558 36.9492C202.197 36.3888 201.834 35.8338 201.468 35.2842L200.636 35.8369ZM93.5322 35.2842C93.1665 35.8336 92.804 36.3889 92.4434 36.9492L93.2822 37.4893C93.6402 36.9331 94.0013 36.3822 94.3643 35.8369L93.5322 35.2842ZM162.384 34.2373C162.516 34.8871 162.648 35.5451 162.778 36.2109L163.758 36.0195C163.627 35.3511 163.494 34.6906 163.361 34.0381L162.384 34.2373ZM131.241 36.0195L132.22 36.2109C132.35 35.5451 132.482 34.8871 132.614 34.2373L131.638 34.0381C131.505 34.6906 131.372 35.3511 131.241 36.0195ZM238.573 34.3672C239.085 34.7947 239.594 35.2256 240.101 35.6602L240.751 34.9033C240.241 34.4659 239.729 34.0319 239.214 33.6016L238.573 34.3672ZM54.25 34.9033L54.8994 35.6602C55.4057 35.2256 55.9149 34.7938 56.4268 34.3662L55.7871 33.6016C55.2719 34.0319 54.7596 34.4659 54.25 34.9033ZM198.371 32.5508C198.754 33.0867 199.133 33.6291 199.511 34.1768L200.333 33.6104C199.952 33.0582 199.57 32.5111 199.185 31.9707L198.371 32.5508ZM95.8164 31.9707C95.4303 32.5114 95.0479 33.0588 94.667 33.6113L95.4893 34.1768C95.8668 33.6291 96.2462 33.0867 96.6289 32.5508L95.8164 31.9707ZM235.78 31.4521L235.47 31.8438C235.993 32.2571 236.513 32.6742 237.03 33.0947L237.346 32.707L237.659 32.3203C237.138 31.8971 236.615 31.4775 236.089 31.0615L235.78 31.4521ZM57.3418 32.3203L57.9697 33.0947C58.4871 32.6743 59.0075 32.257 59.5303 31.8438L59.2207 31.4521V31.4512L58.9121 31.0615C58.3859 31.4775 57.8625 31.8971 57.3418 32.3203ZM161.554 30.3359C161.696 30.975 161.837 31.6234 161.977 32.2803L162.466 32.1758L162.952 32.0723C162.812 31.4128 162.671 30.7619 162.528 30.1201L161.554 30.3359ZM132.048 32.0723L132.533 32.1758L133.022 32.2803C133.162 31.6234 133.302 30.9749 133.444 30.3359L132.957 30.2285V30.2275L132.472 30.1201C132.329 30.7619 132.188 31.4128 132.048 32.0723ZM196.002 29.3525C196.406 29.8784 196.807 30.4106 197.206 30.9492L197.608 30.6523L198.009 30.3555C197.607 29.8122 197.202 29.2747 196.795 28.7441L196.002 29.3525ZM98.2061 28.7441C97.7985 29.2747 97.3943 29.8122 96.9922 30.3555L97.3926 30.6523L97.7939 30.9492C98.1926 30.4107 98.5942 29.8783 98.998 29.3525L98.2061 28.7441ZM232.597 29.0049L232.598 29.0059L232.298 29.4053C232.832 29.8043 233.363 30.2069 233.892 30.6133L234.501 29.8223C233.969 29.4131 233.434 29.0073 232.896 28.6055L232.597 29.0049ZM60.5 29.8223L61.1084 30.6133C61.6369 30.2069 62.1683 29.8043 62.7021 29.4053L62.4033 29.0059V29.0049L62.1045 28.6055C61.5669 29.0073 61.0322 29.4131 60.5 29.8223ZM160.65 26.4531C160.804 27.0828 160.956 27.7231 161.107 28.373L162.08 28.1475C161.928 27.4939 161.775 26.8503 161.62 26.2168L160.65 26.4531ZM132.919 28.1475L133.891 28.373C134.042 27.7232 134.194 27.0828 134.348 26.4531L133.379 26.2168C133.224 26.8503 133.071 27.4939 132.919 28.1475ZM229.473 26.4717L229.35 26.6455L229.351 26.6465L229.062 27.0547C229.606 27.439 230.148 27.827 230.688 28.2188L231.274 27.4111C230.731 27.0166 230.185 26.6263 229.637 26.2393L229.473 26.4717ZM63.7266 27.4111L64.3125 28.2188C64.8519 27.8269 65.3939 27.4381 65.9385 27.0537L65.3643 26.2393C64.8159 26.6263 64.2697 27.0166 63.7266 27.4111ZM193.528 26.252C193.949 26.7592 194.367 27.2732 194.782 27.7939L195.563 27.1729C195.144 26.6468 194.723 26.1268 194.298 25.6143L193.528 26.252ZM100.703 25.6143C100.278 26.1268 99.857 26.6468 99.4375 27.1729L100.217 27.7939C100.632 27.273 101.051 26.7594 101.472 26.252L100.703 25.6143ZM226.038 24.376L226.039 24.377L225.762 24.792C226.317 25.1614 226.869 25.5351 227.419 25.9121L227.702 25.499L227.983 25.0898C227.43 24.7103 226.873 24.3348 226.314 23.9629L226.038 24.376ZM67.0176 25.0898L67.5811 25.9121C68.131 25.5351 68.6833 25.1614 69.2383 24.792L68.9619 24.377V24.376L68.6865 23.9629C68.1277 24.3348 67.5713 24.7103 67.0176 25.0898ZM190.94 23.252C191.377 23.7376 191.811 24.2306 192.242 24.7305L192.621 24.4043L192.998 24.0791C192.563 23.5743 192.125 23.0756 191.685 22.585L190.94 23.252ZM103.316 22.585C102.875 23.0758 102.438 23.5741 102.002 24.0791L102.38 24.4043L102.758 24.7305C103.189 24.2307 103.623 23.7376 104.06 23.252L103.316 22.585ZM159.659 22.5908C159.827 23.2123 159.994 23.8461 160.159 24.4912L160.644 24.3672L161.127 24.2432C160.961 23.5943 160.794 22.9567 160.625 22.3311L159.659 22.5908ZM133.872 24.2432L134.354 24.3672H134.355L134.839 24.4912C135.004 23.8461 135.171 23.2124 135.339 22.5908L134.374 22.3311C134.205 22.9567 134.038 23.5943 133.872 24.2432ZM222.401 22.6221C222.966 22.976 223.529 23.3336 224.089 23.6953L224.631 22.8584C224.067 22.4941 223.501 22.1338 222.932 21.7773L222.401 22.6221ZM70.3701 22.8584L70.9111 23.6953C71.4711 23.3336 72.0337 22.976 72.5986 22.6221L72.0693 21.7773C71.5004 22.1338 70.934 22.4941 70.3701 22.8584ZM188.219 20.3496C188.678 20.8187 189.136 21.2958 189.59 21.7803L190.318 21.0977C189.859 20.6079 189.398 20.1248 188.934 19.6504L188.219 20.3496ZM106.067 19.6504C105.603 20.1248 105.142 20.6079 104.683 21.0977L105.41 21.7803C105.864 21.2957 106.322 20.8187 106.781 20.3496L106.067 19.6504ZM218.982 20.5449C219.557 20.8832 220.13 21.2252 220.699 21.5713L220.959 21.1445L221.219 20.7188C220.645 20.3701 220.069 20.0253 219.49 19.6846L218.982 20.5449ZM73.7822 20.7188L74.041 21.1445L74.3008 21.5713C74.8705 21.2252 75.443 20.8832 76.0176 20.5449L75.5107 19.6846C74.9321 20.0253 74.356 20.3701 73.7822 20.7188ZM159.04 18.6094L158.562 18.7549C158.748 19.3692 158.933 19.998 159.117 20.6406L160.078 20.3662C159.893 19.7184 159.706 19.0846 159.518 18.4648L159.04 18.6094ZM135.481 18.4648C135.293 19.0846 135.106 19.7184 134.921 20.3662L135.881 20.6406C136.065 19.998 136.25 19.3691 136.437 18.7549L135.958 18.6094L135.481 18.4648ZM215.508 18.5635C216.091 18.8856 216.673 19.2119 217.252 19.542L217.5 19.1074L217.747 18.6738C217.164 18.3415 216.579 18.0137 215.991 17.6895L215.508 18.5635ZM77.2539 18.6738L77.5 19.1074H77.501L77.748 19.542C78.3269 19.2119 78.9086 18.8856 79.4922 18.5635L79.0098 17.6895C78.4222 18.0137 77.8367 18.3415 77.2539 18.6738ZM108.941 16.8486C108.453 17.3037 107.967 17.7675 107.483 18.2393L108.18 18.9531C108.657 18.4869 109.138 18.0287 109.621 17.5791L108.941 16.8486ZM185.72 17.2129L185.379 17.5791C185.862 18.0286 186.343 18.486 186.82 18.9521L187.518 18.2393C187.034 17.7675 186.548 17.3037 186.06 16.8486L185.72 17.2129ZM212.209 16.2354L211.979 16.6797C212.572 16.9856 213.163 17.2954 213.751 17.6094L214.221 16.7305C213.629 16.4143 213.034 16.1019 212.438 15.7939L212.209 16.2354ZM80.7803 16.7305L81.249 17.6094C81.8371 17.2954 82.4278 16.9856 83.0205 16.6797L82.791 16.2354L82.5635 15.7939C81.9667 16.1019 81.3725 16.4143 80.7803 16.7305ZM157.802 14.7959L157.329 14.96C157.54 15.5664 157.751 16.1908 157.959 16.833L158.909 16.5254C158.699 15.8768 158.487 15.2454 158.273 14.6318L157.802 14.7959ZM136.727 14.6318C136.513 15.2455 136.3 15.8767 136.09 16.5254L137.04 16.833C137.248 16.1908 137.459 15.5664 137.67 14.96L137.197 14.7959V14.7949L136.727 14.6318ZM182.416 14.9541C182.92 15.3789 183.423 15.8123 183.922 16.2549L184.585 15.5078C184.079 15.0594 183.57 14.6209 183.059 14.1904L182.416 14.9541ZM111.941 14.1914C111.43 14.6217 110.922 15.0606 110.416 15.5088L111.078 16.2549C111.577 15.8123 112.08 15.3788 112.584 14.9541L111.941 14.1914ZM208.4 14.8955C209.001 15.1845 209.6 15.4772 210.196 15.7744L210.419 15.3271L210.641 14.8828C210.04 14.5836 209.438 14.289 208.833 13.998L208.4 14.8955ZM84.3604 14.8828L84.5811 15.3271L84.8037 15.7744C85.3999 15.4772 85.999 15.1845 86.5996 14.8955L86.168 13.998C85.5633 14.289 84.9606 14.5836 84.3604 14.8828ZM204.976 12.7559L204.771 13.2119C205.38 13.484 205.987 13.7605 206.592 14.041L206.803 13.5879L207.012 13.1367C206.403 12.8542 205.792 12.5749 205.179 12.3008L204.976 12.7559ZM87.9893 13.1367L88.1973 13.5879L88.4072 14.041C89.012 13.7604 89.6194 13.4841 90.2285 13.2119L89.8223 12.3008C89.209 12.5749 88.5983 12.8542 87.9893 13.1367ZM179.77 11.9033L179.629 12.0918L179.327 12.4902C179.85 12.8843 180.37 13.2873 180.888 13.7002L181.511 12.9189H181.512C180.987 12.5004 180.459 12.093 179.929 11.6934L179.77 11.9033ZM115.072 11.6934C114.542 12.093 114.014 12.5004 113.489 12.9189L114.112 13.7002C114.63 13.2873 115.15 12.8842 115.673 12.4902L115.072 11.6934ZM156.386 11.0527L156.387 11.0537L155.923 11.2441C156.168 11.8379 156.411 12.4554 156.653 13.0967L157.59 12.7451C157.345 12.0947 157.097 11.4673 156.848 10.8633L156.386 11.0527ZM138.151 10.8633C137.902 11.467 137.654 12.094 137.409 12.7441L138.345 13.0967C138.587 12.4555 138.83 11.8378 139.075 11.2441L138.613 11.0537V11.0527L138.151 10.8633ZM201.099 11.6328C201.715 11.8875 202.329 12.1461 202.94 12.4092L203.336 11.4912C202.72 11.2261 202.101 10.9655 201.48 10.709L201.099 11.6328ZM91.665 11.4912L91.8154 11.8428L91.8623 11.9502L92.0596 12.4092C92.6714 12.146 93.2854 11.8875 93.9014 11.6328L93.5205 10.709C92.9 10.9655 92.2814 11.2261 91.665 11.4912ZM118.335 9.375C117.785 9.74145 117.24 10.1194 116.695 10.5059L117.272 11.3193C117.809 10.9386 118.347 10.5669 118.889 10.2061L118.335 9.375ZM176.11 10.2061C176.652 10.567 177.191 10.9375 177.728 11.3184L178.306 10.5059C177.761 10.1192 177.215 9.7416 176.665 9.375L176.11 10.2061ZM197.559 9.68945L197.38 10.1562C198.003 10.3935 198.625 10.635 199.244 10.8809L199.613 9.95312C198.989 9.70546 198.363 9.46263 197.735 9.22363L197.559 9.68945ZM95.3877 9.95312L95.7549 10.8809C96.3745 10.6349 96.9966 10.3936 97.6201 10.1562L97.4424 9.68945V9.68848L97.2656 9.22363C96.6377 9.46263 96.0116 9.70546 95.3877 9.95312ZM193.624 8.78711C194.254 9.00653 194.882 9.23087 195.508 9.45898L195.851 8.52246C195.22 8.29263 194.588 8.06676 193.953 7.8457L193.624 8.78711ZM99.1504 8.52246L99.4922 9.45898C100.118 9.23088 100.746 9.00652 101.376 8.78711L101.048 7.8457C100.413 8.06676 99.781 8.29263 99.1504 8.52246ZM154.292 7.69141C154.578 8.24594 154.863 8.83344 155.146 9.45312L155.602 9.24512L156.056 9.03809C155.766 8.40509 155.475 7.80337 155.181 7.2334L154.292 7.69141ZM139.819 7.2334C139.525 7.80339 139.234 8.40507 138.944 9.03809L139.397 9.24512L139.852 9.45312C140.135 8.83343 140.42 8.24592 140.706 7.69141L139.819 7.2334ZM173.152 7.43164L173.006 7.68359L173.007 7.68457L172.756 8.11621C173.32 8.44314 173.881 8.78064 174.44 9.12891L174.969 8.28223C174.401 7.92833 173.829 7.58633 173.256 7.25391L173.152 7.43164ZM121.745 7.25391C121.172 7.58633 120.6 7.92833 120.032 8.28223L120.56 9.12891C121.119 8.78067 121.68 8.44316 122.244 8.11621L121.994 7.68457V7.68359L121.848 7.43164L121.745 7.25391ZM189.979 7.04883L189.828 7.52539C190.464 7.72668 191.098 7.93253 191.729 8.14258L192.045 7.19629C191.409 6.98477 190.771 6.77786 190.131 6.5752L189.979 7.04883ZM102.956 7.19629L103.113 7.66797L103.271 8.14258C103.902 7.93254 104.536 7.72661 105.171 7.52539L105.021 7.0498V7.04883L104.87 6.5752C104.23 6.77786 103.592 6.98477 102.956 7.19629ZM125.281 5.35547C124.685 5.64959 124.091 5.95634 123.5 6.27344L123.971 7.15332C124.552 6.84152 125.136 6.54099 125.723 6.25195L125.281 5.35547ZM169.277 6.25195C169.864 6.54097 170.448 6.84056 171.029 7.15234L171.501 6.27344C170.91 5.95634 170.316 5.64959 169.72 5.35547L169.277 6.25195ZM186 6.37305C186.642 6.55626 187.282 6.74342 187.92 6.93555L188.208 5.98047C187.565 5.78693 186.921 5.59766 186.274 5.41309L186 6.37305ZM106.793 5.98047L107.08 6.93555C107.718 6.74341 108.358 6.55627 109 6.37305L108.727 5.41309C108.08 5.59765 107.436 5.78693 106.793 5.98047ZM152.69 4.07715L152.286 4.37109C152.638 4.85502 152.99 5.39055 153.342 5.97754L154.199 5.46484C153.834 4.85549 153.465 4.29516 153.094 3.78418L152.69 4.07715ZM141.905 3.78418C141.534 4.29496 141.165 4.85478 140.8 5.46387L141.656 5.97754C142.008 5.39065 142.36 4.85497 142.712 4.37109L141.905 3.78418ZM182.364 4.44922L182.14 5.33008C182.785 5.49448 183.429 5.66357 184.07 5.83691L184.331 4.87207C183.685 4.69747 183.036 4.52789 182.387 4.3623L182.364 4.44922ZM110.67 4.87207L110.93 5.83691C111.571 5.66357 112.215 5.49445 112.86 5.33008L112.614 4.3623C111.964 4.52789 111.316 4.69747 110.67 4.87207ZM165.686 4.63672C166.292 4.88315 166.896 5.14156 167.497 5.41211L167.907 4.50293C167.294 4.22721 166.679 3.96418 166.061 3.71289L165.686 4.63672ZM128.939 3.71387C128.321 3.96512 127.706 4.22727 127.093 4.50293L127.297 4.95605L127.503 5.41211C128.104 5.14156 128.708 4.88315 129.314 4.63672L129.073 4.04395L128.939 3.71387ZM178.25 4.39746C178.901 4.54372 179.551 4.69524 180.199 4.85059L180.433 3.87988C179.78 3.7234 179.125 3.57214 178.469 3.4248L178.25 4.39746ZM114.568 3.87988L114.589 3.96875L114.685 4.36426L114.801 4.85059C115.449 4.69527 116.099 4.54372 116.75 4.39746L116.532 3.4248C115.876 3.57214 115.221 3.72341 114.568 3.87988ZM174.338 3.57812C174.992 3.70535 175.644 3.83731 176.295 3.97363L176.5 2.99805C175.845 2.86075 175.188 2.72873 174.529 2.60059L174.338 3.57812ZM118.501 2.99805L118.705 3.97363C119.356 3.83734 120.008 3.70535 120.662 3.57812L120.472 2.60059C119.813 2.72872 119.156 2.86075 118.501 2.99805ZM162.169 2.73242L162.142 2.81738L162.143 2.81836L161.989 3.29395C162.613 3.49374 163.234 3.70655 163.854 3.93164L164.194 2.99414C163.563 2.76473 162.93 2.54751 162.294 2.34375L162.169 2.73242ZM132.707 2.34375C132.071 2.54749 131.438 2.76474 130.807 2.99414L130.855 3.12988L130.976 3.46191L131.146 3.93164C131.766 3.70655 132.387 3.49375 133.011 3.29395L132.858 2.81836V2.81738L132.707 2.34375ZM170.398 2.87012C171.058 2.97889 171.716 3.09198 172.372 3.20996L172.55 2.22949C171.888 2.11055 171.225 1.99637 170.561 1.88672L170.398 2.87012ZM122.451 2.22949L122.627 3.20996C123.284 3.09191 123.942 2.97892 124.602 2.87012L124.44 1.88672C123.776 1.99636 123.113 2.11055 122.451 2.22949ZM150.53 0.0986328C150.524 0.0982166 150.517 0.0980696 150.511 0.0976562L150.479 0.594727L150.479 0.595703L150.451 1.04395C150.403 1.00954 150.355 0.974145 150.307 0.941406L149.75 1.76855C150.188 2.06327 150.637 2.44776 151.095 2.92773L151.457 2.58301L151.817 2.23926C151.391 1.79272 150.96 1.41346 150.527 1.09863C151.153 1.13947 151.778 1.19281 152.4 1.25879L152.419 1.08496C152.449 1.08599 152.478 1.08684 152.508 1.08789L152.543 0.0917969C151.874 0.0681609 151.203 0.0503624 150.531 0.0361328L150.53 0.0986328ZM142.458 0.0917969L142.475 0.588867L142.492 1.08789C142.522 1.08683 142.552 1.086 142.582 1.08496L142.6 1.25879C143.222 1.19278 143.847 1.14044 144.473 1.09961C144.04 1.41444 143.608 1.79265 143.182 2.23926L143.903 2.92773C144.361 2.44765 144.811 2.06332 145.249 1.76855L144.97 1.35449V1.35352L144.692 0.941406C144.644 0.973849 144.598 1.00986 144.55 1.04395L144.521 0.595703V0.594727L144.49 0.0976562C144.484 0.0980489 144.478 0.0982376 144.472 0.0986328L144.47 0.0361328C143.798 0.0503578 143.127 0.0681655 142.458 0.0917969ZM158.508 1.29102C158.482 1.28501 158.457 1.27842 158.432 1.27246L158.377 1.50391L158.318 1.75879L158.204 2.24512C158.842 2.39453 159.477 2.55675 160.11 2.73242L160.244 2.25098L160.378 1.77051C160.039 1.67659 159.7 1.58662 159.36 1.5C159.737 1.53178 160.113 1.56202 160.488 1.59668L160.58 0.602539C159.913 0.540948 159.245 0.484846 158.575 0.432617L158.508 1.29102ZM134.421 0.602539L134.512 1.59668C134.888 1.56196 135.265 1.53184 135.642 1.5C135.301 1.5867 134.962 1.67652 134.623 1.77051L134.685 1.99414L134.756 2.25098L134.89 2.73242C135.523 2.55675 136.158 2.39456 136.796 2.24512L136.569 1.27246C136.544 1.27842 136.519 1.28501 136.493 1.29102L136.426 0.432617C135.756 0.484842 135.088 0.540952 134.421 0.602539ZM166.448 2.27637C167.109 2.366 167.768 2.45975 168.426 2.55859L168.574 1.57324C167.912 1.47366 167.248 1.37741 166.583 1.28711L166.448 2.27637ZM126.427 1.57324L126.574 2.55859C127.232 2.4598 127.891 2.36598 128.551 2.27637L128.484 1.78125V1.78027L128.418 1.28711C127.753 1.37741 127.089 1.47366 126.427 1.57324ZM162.523 1.29688L162.524 1.29785L162.471 1.79395C163.136 1.86496 163.801 1.94113 164.464 2.02148L164.524 1.52441L164.584 1.03027C163.918 0.949505 163.25 0.871207 162.581 0.799805H162.577L162.523 1.29688ZM130.417 1.03027L130.476 1.52441L130.536 2.02148C131.199 1.94113 131.864 1.86496 132.529 1.79395L132.452 1.0752L132.423 0.799805C131.753 0.871292 131.084 0.949393 130.417 1.03027ZM154.532 0.526367C154.52 0.524571 154.508 0.523272 154.496 0.521484L154.453 0.805664L154.422 1.0127L154.423 1.01367L154.349 1.50684C154.996 1.60306 155.641 1.7128 156.284 1.83594L156.392 1.27832C156.427 1.28057 156.463 1.28288 156.499 1.28516L156.531 0.786133L156.562 0.290039C155.892 0.247362 155.221 0.210003 154.549 0.176758L154.532 0.526367ZM138.438 0.290039L138.501 1.28516C138.537 1.28286 138.573 1.28059 138.609 1.27832L138.716 1.83594C139.359 1.71281 140.004 1.60308 140.651 1.50684L140.54 0.761719L140.505 0.521484C140.493 0.523224 140.481 0.524619 140.47 0.526367L140.452 0.176758C139.78 0.209999 139.109 0.247366 138.438 0.290039ZM146.489 0.00683594L146.491 0.50293H146.492L146.495 1.00293C146.502 1.00288 146.508 1.002 146.515 1.00195V1.01074C146.582 1.00932 146.649 1.00896 146.716 1.00781L146.734 1.08984C146.991 1.02946 147.245 1.00001 147.499 1C147.753 1 148.007 1.02949 148.264 1.08984L148.284 1.00781C148.351 1.00896 148.418 1.00932 148.485 1.01074L148.486 1.00195C148.493 1.002 148.499 1.00289 148.505 1.00293L148.511 0.173828L148.512 0.00683594C148.175 0.0044572 147.838 0 147.5 0C147.163 0 146.826 0.00446175 146.489 0.00683594Z" fill="url(#paint0_linear_2320_10045)"/>
<defs>
<linearGradient id="paint0_linear_2320_10045" x1="147.5" y1="0" x2="147.5" y2="160.838" gradientUnits="userSpaceOnUse">
<stop stop-color="#D0CFCD"/>
<stop offset="1" stop-color="#D0CFCD" stop-opacity="0"/>
</linearGradient>
<clipPath id="clip0_2320_10045">
<rect width="201" height="135" fill="white" transform="translate(47 155)"/>
</clipPath>
</defs>
</svg>
