<svg width="23" height="23" viewBox="0 0 23 23" fill="none" xmlns="http://www.w3.org/2000/svg">
<path d="M7.40198 13.3535L0.718384 19.6318L2.98124 21.8947L9.40198 15.8535M21.7029 8.72857C21.7029 13.2731 18.0188 16.9571 13.4743 16.9571C8.92978 16.9571 5.24573 13.2731 5.24573 8.72857C5.24573 4.18406 8.92978 0.5 13.4743 0.5C18.0188 0.5 21.7029 4.18406 21.7029 8.72857ZM7.71252 8.93337C8.19252 7.83623 9.97127 5.84758 13.2668 5.84766C16.9697 5.84774 18.4782 7.83617 19.0268 8.72757C18.684 9.82472 17.0931 12.019 13.4725 12.019C9.85195 12.019 8.12395 9.96191 7.71252 8.93337ZM15.5319 9.13917C15.5319 10.2753 14.6109 11.1963 13.4747 11.1963C12.3386 11.1963 11.4176 10.2753 11.4176 9.13917C11.4176 8.00305 12.3386 7.08203 13.4747 7.08203C14.6109 7.08203 15.5319 8.00305 15.5319 9.13917Z" stroke="black"/>
</svg>
