<svg width="17" height="20" viewBox="0 0 17 20" fill="none" xmlns="http://www.w3.org/2000/svg">
<path d="M7 18.5H0.5C0.5 14.9735 3.10771 12.0561 6.5 11.5709M12.9976 13.7119C12.2978 12.9328 11.1309 12.7232 10.2541 13.4367C9.3774 14.1501 9.2539 15.343 9.9425 16.1868C10.3312 16.6632 11.2548 17.4983 11.9854 18.1353C12.3319 18.4374 12.5051 18.5885 12.7147 18.6503C12.8934 18.703 13.1018 18.703 13.2805 18.6503C13.4901 18.5885 13.6633 18.4374 14.0098 18.1353C14.7404 17.4983 15.664 16.6632 16.0527 16.1868C16.7413 15.343 16.6329 14.1426 15.7411 13.4367C14.8492 12.7307 13.6974 12.9328 12.9976 13.7119ZM11.5 4.5C11.5 6.70914 9.7091 8.5 7.5 8.5C5.29086 8.5 3.5 6.70914 3.5 4.5C3.5 2.29086 5.29086 0.5 7.5 0.5C9.7091 0.5 11.5 2.29086 11.5 4.5Z" stroke="black" stroke-linecap="round" stroke-linejoin="round"/>
</svg>
