<svg width="19" height="19" viewBox="0 0 19 19" fill="none" xmlns="http://www.w3.org/2000/svg">
<path d="M5.85352 10.3535C5.85352 10.0774 5.62966 9.85352 5.35352 9.85352C5.07737 9.85352 4.85352 10.0774 4.85352 10.3535H5.35352H5.85352ZM4.85352 10.3635C4.85352 10.6397 5.07737 10.8635 5.35352 10.8635C5.62966 10.8635 5.85352 10.6397 5.85352 10.3635H5.35352H4.85352ZM9.85352 14.3535C9.85352 14.0774 9.62966 13.8535 9.35352 13.8535C9.07737 13.8535 8.85352 14.0774 8.85352 14.3535H9.35352H9.85352ZM8.85352 14.3635C8.85352 14.6397 9.07737 14.8635 9.35352 14.8635C9.62966 14.8635 9.85352 14.6397 9.85352 14.3635H9.35352H8.85352ZM9.85352 9.35352C9.85352 9.07737 9.62966 8.85352 9.35352 8.85352C9.07737 8.85352 8.85352 9.07737 8.85352 9.35352H9.35352H9.85352ZM8.85352 9.36352C8.85352 9.63966 9.07737 9.86352 9.35352 9.86352C9.62966 9.86352 9.85352 9.63966 9.85352 9.36352H9.35352H8.85352ZM15.8991 15.8943C16.0943 15.699 16.0942 15.3824 15.8988 15.1872C15.7035 14.992 15.3869 14.9922 15.1917 15.1875L15.5454 15.5409L15.8991 15.8943ZM14.5694 16.1929L14.6911 16.6779C14.7148 16.6719 14.7379 16.6643 14.7605 16.655L14.5694 16.1929ZM12.3534 16.8539L12.545 17.3158L12.545 17.3157L12.3534 16.8539ZM10.5014 17.8779L10.6927 18.3398C10.7199 18.3286 10.746 18.315 10.7708 18.2991L10.5014 17.8779ZM8.20541 17.8779L7.93975 18.3015C7.96341 18.3163 7.98828 18.3292 8.01408 18.3398L8.20541 17.8779ZM6.35341 16.8539L6.54534 16.3922L6.54468 16.3919L6.35341 16.8539ZM4.13741 16.1939L3.94592 16.6558C3.96966 16.6656 3.99413 16.6736 4.0191 16.6797L4.13741 16.1939ZM2.51441 14.5699L2.02956 14.692C2.03549 14.7156 2.04313 14.7387 2.05242 14.7611L2.51441 14.5699ZM1.85341 12.3539L2.31553 12.163L2.31549 12.1629L1.85341 12.3539ZM0.829415 10.5019L0.367472 10.6932C0.378754 10.7205 0.392423 10.7467 0.40832 10.7715L0.829415 10.5019ZM0.829415 8.2059L0.409266 7.93484C0.392966 7.96011 0.378978 7.98679 0.367472 8.01457L0.829415 8.2059ZM1.85341 6.3539L2.31515 6.54574L2.31538 6.54518L1.85341 6.3539ZM2.51341 4.1379L2.05159 3.94629C2.04228 3.96872 2.03462 3.9918 2.02867 4.01535L2.51341 4.1379ZM3.51608 3.52035C3.71128 3.32503 3.71118 3.00845 3.51586 2.81324C3.32054 2.61804 3.00396 2.61814 2.80875 2.81346L3.16241 3.1669L3.51608 3.52035ZM3.68785 2.38159C3.42721 2.47281 3.28987 2.75805 3.3811 3.01869C3.47232 3.27933 3.75756 3.41667 4.0182 3.32544L3.85303 2.85352L3.68785 2.38159ZM6.35341 1.8539L6.54357 2.31633L6.54501 2.31574L6.35341 1.8539ZM8.20541 0.829903L8.01408 0.36796C7.98747 0.378982 7.96186 0.392283 7.93754 0.407715L8.20541 0.829903ZM10.5014 0.829903L10.3101 1.29185L10.3102 1.29189L10.5014 0.829903ZM13.1684 1.9339L13.5665 2.23646C13.6603 2.11301 13.6916 1.95302 13.6511 1.80333C13.6106 1.65365 13.5029 1.53123 13.3597 1.47192L13.1684 1.9339ZM17.8244 8.0739L18.2884 7.8876C18.1859 7.63227 17.8963 7.50775 17.6405 7.60896L17.8244 8.0739ZM17.8774 8.2059L17.4134 8.39221L17.4155 8.39724L17.8774 8.2059ZM17.8774 10.5019L18.3 10.7691C18.3153 10.745 18.3284 10.7196 18.3394 10.6932L17.8774 10.5019ZM16.8534 12.3539L16.3916 12.1622L16.3906 12.1647L16.8534 12.3539ZM15.3799 14.6917C15.2906 14.953 15.4299 15.2372 15.6912 15.3266C15.9525 15.416 16.2368 15.2766 16.3261 15.0153L15.853 14.8535L15.3799 14.6917ZM5.35352 10.3535H4.85352V10.3635H5.35352H5.85352V10.3535H5.35352ZM9.35352 14.3535H8.85352V14.3635H9.35352H9.85352V14.3535H9.35352ZM9.35352 9.35352H8.85352V9.36352H9.35352H9.85352V9.35352H9.35352ZM15.5454 15.5409L15.1917 15.1875C14.959 15.4204 14.6826 15.605 14.3784 15.7308L14.5694 16.1929L14.7605 16.655C15.1864 16.4789 15.5734 16.2204 15.8991 15.8943L15.5454 15.5409ZM14.5694 16.1929L14.4477 15.7079C13.3991 15.9711 12.6282 16.1986 12.1618 16.3921L12.3534 16.8539L12.545 17.3157C12.9366 17.1532 13.6437 16.9407 14.6911 16.6779L14.5694 16.1929ZM12.3534 16.8539L12.1619 16.392C11.647 16.6056 11.0014 16.9647 10.232 17.4567L10.5014 17.8779L10.7708 18.2991C11.5215 17.8191 12.1099 17.4962 12.545 17.3158L12.3534 16.8539ZM10.5014 17.8779L10.3101 17.416C9.69754 17.6697 9.00929 17.6697 8.39675 17.416L8.20541 17.8779L8.01408 18.3398C8.87165 18.695 9.83518 18.695 10.6927 18.3398L10.5014 17.8779ZM8.20541 17.8779L8.47108 17.4543C7.66411 16.9482 7.01831 16.5888 6.54534 16.3922L6.35341 16.8539L6.16149 17.3156C6.55452 17.479 7.14272 17.8016 7.93975 18.3015L8.20541 17.8779ZM6.35341 16.8539L6.54468 16.3919C6.03655 16.1816 5.26664 15.9543 4.25573 15.7081L4.13741 16.1939L4.0191 16.6797C5.02019 16.9235 5.72828 17.1362 6.16215 17.3159L6.35341 16.8539ZM4.13741 16.1939L4.32891 15.732C3.71646 15.4781 3.22995 14.9913 2.97641 14.3787L2.51441 14.5699L2.05242 14.7611C2.40738 15.6188 3.08849 16.3003 3.94592 16.6558L4.13741 16.1939ZM2.51441 14.5699L2.99927 14.4478C2.73414 13.3953 2.50675 12.6258 2.31553 12.163L1.85341 12.3539L1.3913 12.5448C1.55208 12.934 1.76469 13.6405 2.02956 14.692L2.51441 14.5699ZM1.85341 12.3539L2.31549 12.1629C2.10076 11.6434 1.74036 10.9974 1.25051 10.2323L0.829415 10.5019L0.40832 10.7715C0.886475 11.5184 1.21007 12.1064 1.39134 12.5449L1.85341 12.3539ZM0.829415 10.5019L1.29136 10.3106C1.03765 9.69802 1.03765 9.00978 1.29136 8.39724L0.829415 8.2059L0.367472 8.01457C0.0122751 8.87213 0.0122751 9.83567 0.367472 10.6932L0.829415 10.5019ZM0.829415 8.2059L1.24956 8.47697C1.7371 7.72129 2.09485 7.07597 2.31515 6.54574L1.85341 6.3539L1.39168 6.16206C1.20398 6.61384 0.881733 7.20252 0.409266 7.93484L0.829415 8.2059ZM1.85341 6.3539L2.31538 6.54518C2.50181 6.09492 2.72932 5.32383 2.99816 4.26046L2.51341 4.1379L2.02867 4.01535C1.75951 5.07998 1.54702 5.78689 1.39145 6.16263L1.85341 6.3539ZM2.51341 4.1379L2.97524 4.32952C3.10077 4.02697 3.28453 3.75204 3.51608 3.52035L3.16241 3.1669L2.80875 2.81346C2.48459 3.13782 2.22733 3.52272 2.05159 3.94629L2.51341 4.1379ZM3.85303 2.85352L4.0182 3.32544C4.17412 3.27087 6.44312 2.35764 6.54357 2.31633L6.35341 1.8539L6.16326 1.39147C6.11236 1.41241 5.52503 1.64895 4.9295 1.88775C4.63253 2.00684 4.33486 2.12594 4.10285 2.21828C3.98677 2.26447 3.88761 2.30377 3.81337 2.33295C3.7762 2.34756 3.74587 2.3594 3.72306 2.3682C3.71164 2.3726 3.70266 2.37603 3.69597 2.37856C3.68843 2.38139 3.68647 2.38207 3.68785 2.38159L3.85303 2.85352ZM6.35341 1.8539L6.54501 2.31574C7.04305 2.10913 7.68874 1.74988 8.47329 1.25209L8.20541 0.829903L7.93754 0.407715C7.16809 0.895924 6.57978 1.21868 6.16182 1.39207L6.35341 1.8539ZM8.20541 0.829903L8.39675 1.29185C9.00929 1.03813 9.69754 1.03813 10.3101 1.29185L10.5014 0.829903L10.6927 0.36796C9.83518 0.0127634 8.87165 0.0127634 8.01408 0.36796L8.20541 0.829903ZM10.5014 0.829903L10.3102 1.29189L12.9772 2.39589L13.1684 1.9339L13.3597 1.47192L10.6927 0.36792L10.5014 0.829903ZM13.1684 1.9339L12.7703 1.63134C12.1757 2.41369 11.8535 3.36918 11.8529 4.35186L12.3529 4.35214L12.8529 4.35242C12.8534 3.58812 13.104 2.84496 13.5665 2.23646L13.1684 1.9339ZM12.3529 4.35214L11.8529 4.35186C11.8524 5.33455 12.1735 6.2904 12.7673 7.07341L13.1657 6.7713L13.5641 6.46918C13.1023 5.86017 12.8525 5.11673 12.8529 4.35242L12.3529 4.35214ZM13.1657 6.7713L12.7673 7.07341C13.3611 7.85643 14.1948 8.42356 15.1412 8.68817L15.2758 8.20664L15.4105 7.72511C14.6744 7.5193 14.0259 7.0782 13.5641 6.46918L13.1657 6.7713ZM15.2758 8.20664L15.1412 8.68817C16.0876 8.95279 17.0946 8.90034 18.0083 8.53884L17.8244 8.0739L17.6405 7.60896C16.9298 7.89013 16.1466 7.93092 15.4105 7.72511L15.2758 8.20664ZM17.8244 8.0739L17.3604 8.2602L17.4134 8.3922L17.8774 8.2059L18.3414 8.0196L18.2884 7.8876L17.8244 8.0739ZM17.8774 8.2059L17.4155 8.39724C17.6692 9.00978 17.6692 9.69802 17.4155 10.3106L17.8774 10.5019L18.3394 10.6932C18.6946 9.83567 18.6946 8.87213 18.3394 8.01457L17.8774 8.2059ZM17.8774 10.5019L17.4548 10.2347C16.9534 11.0276 16.5942 11.6743 16.3916 12.1622L16.8534 12.3539L17.3152 12.5456C17.4846 12.1376 17.8074 11.5482 18.3 10.7691L17.8774 10.5019ZM16.8534 12.3539L16.3906 12.1647C16.3465 12.2726 15.4276 14.5524 15.3799 14.6917L15.853 14.8535L16.3261 15.0153C16.325 15.0185 16.3273 15.012 16.3371 14.9866C16.3455 14.9649 16.3569 14.9355 16.3712 14.8992C16.3998 14.8266 16.4386 14.7287 16.4845 14.6135C16.5762 14.3834 16.6952 14.0863 16.8146 13.789C17.0537 13.1935 17.2927 12.6006 17.3162 12.5431L16.8534 12.3539ZM0.353516 0.353516L-3.77595e-05 0.707069L18 18.7071L18.3535 18.3535L18.7071 18L0.707069 -3.77595e-05L0.353516 0.353516Z" fill="black"/>
</svg>
