<svg width="149" height="33" viewBox="0 0 149 33" fill="none" xmlns="http://www.w3.org/2000/svg">
<path d="M18.9979 25.0115C16.5244 25.0115 14.1065 24.278 12.0499 22.9038C9.9933 21.5295 8.3904 19.5763 7.44394 17.291C6.49747 15.0058 6.24993 12.4912 6.73264 10.0652C7.21535 7.6393 8.40661 5.41099 10.1558 3.66211C11.905 1.91324 14.1335 0.722345 16.5595 0.240045C18.9855 -0.242256 21.5 0.00569866 23.7851 0.95255C26.0702 1.8994 28.0232 3.50262 29.3971 5.55945C30.771 7.61629 31.5041 10.0344 31.5037 12.5078C31.5004 15.8234 30.1817 19.0021 27.837 21.3463C25.4924 23.6906 22.3135 25.0087 18.9979 25.0115ZM18.9979 1.19422C16.7603 1.19422 14.5729 1.85775 12.7124 3.10091C10.8519 4.34407 9.40181 6.11101 8.54551 8.17831C7.68921 10.2456 7.46516 12.5204 7.9017 14.715C8.33824 16.9097 9.41576 18.9255 10.998 20.5078C12.5802 22.09 14.5961 23.1675 16.7908 23.6041C18.9854 24.0406 21.2602 23.8166 23.3275 22.9603C25.3948 22.104 27.1617 20.6539 28.4049 18.7934C29.648 16.9328 30.3116 14.7455 30.3116 12.5078C30.3082 9.50831 29.1152 6.63258 26.9942 4.51158C24.8732 2.39058 21.9975 1.19755 18.9979 1.19422Z" fill="#464646"/>
<path d="M50.2122 14.2484L52.4372 15.4489C51.7712 16.5569 50.8275 17.472 49.6994 18.1036C48.5714 18.7353 47.298 19.0616 46.0052 19.0504C44.6808 19.0533 43.3785 18.7104 42.2274 18.0555C41.0762 17.4005 40.116 16.4564 39.4418 15.3163C38.7677 14.1763 38.4029 12.88 38.3836 11.5557C38.3644 10.2314 38.6913 8.92506 39.332 7.76592C39.9727 6.60678 40.905 5.63506 42.0367 4.94693C43.1683 4.2588 44.4601 3.87813 45.784 3.84258C47.108 3.80704 48.4183 4.11786 49.5852 4.74428C50.7521 5.3707 51.7352 6.291 52.4372 7.41409L50.2059 8.64392C49.7735 7.91783 49.1573 7.31858 48.4194 6.9066C47.6816 6.49463 46.8481 6.2845 46.0031 6.2974C43.1433 6.2974 41.0545 8.47212 41.0545 11.4451C41.0545 14.4181 43.1496 16.5656 46.0031 16.5656C46.8468 16.5854 47.6807 16.3814 48.42 15.9744C49.1594 15.5674 49.7777 14.9719 50.2122 14.2484Z" fill="#464646"/>
<path d="M67.2262 11.4418C67.2262 12.946 66.7802 14.4164 65.9445 15.667C65.1088 16.9177 63.921 17.8925 62.5313 18.4681C61.1417 19.0438 59.6125 19.1944 58.1372 18.9009C56.6619 18.6075 55.3068 17.8831 54.2432 16.8195C53.1796 15.7559 52.4552 14.4008 52.1618 12.9255C51.8683 11.4502 52.019 9.92105 52.5946 8.53137C53.1702 7.14169 54.145 5.95391 55.3957 5.11823C56.6463 4.28255 58.1167 3.83651 59.6209 3.83651C61.6132 3.81191 63.5337 4.57968 64.9599 5.97095C66.3861 7.36222 67.2013 9.26304 67.2262 11.2553V11.4418ZM64.5675 11.4418C64.5675 8.46881 62.4724 6.29618 59.6209 6.29618C56.7695 6.29618 54.7016 8.46881 54.7016 11.4418C54.7016 14.4147 56.759 16.5622 59.6209 16.5622C62.4829 16.5622 64.5675 14.3875 64.5675 11.4418Z" fill="#464646"/>
<path d="M88.7626 9.10101V18.6799H86.1709V9.88039C86.1709 7.82089 85.1695 6.30822 83.0534 6.30822C81.0232 6.30822 79.8793 8.02412 79.8793 9.88039V18.6799H77.2667V9.88039C77.2667 7.82089 76.2673 6.30822 74.1785 6.30822C72.1211 6.30822 70.9772 8.02412 70.9772 9.88039V18.6799H68.375V4.18377H70.9772V5.89967C71.3997 5.25887 71.9764 4.73447 72.6543 4.37462C73.3323 4.01477 74.0898 3.83099 74.8573 3.84017C75.6992 3.83969 76.527 4.05613 77.261 4.4686C77.9949 4.88107 78.6102 5.47568 79.0475 6.19508C79.5686 5.45482 80.2636 4.85388 81.0713 4.44509C81.879 4.0363 82.7748 3.83217 83.6798 3.85065C85.0377 3.85896 86.3367 4.40606 87.2914 5.37172C88.246 6.33738 88.7782 7.64257 88.771 9.00044C88.7647 9.02768 88.7626 9.06539 88.7626 9.10101Z" fill="#464646"/>
<path d="M98.1991 3.83695V6.78268C93.9125 6.26728 93.3678 9.52728 93.3678 12.186V18.6808H90.7657V4.18055H93.3678V6.69469C93.8283 5.8167 94.5242 5.0843 95.3775 4.57955C96.2309 4.07481 97.2079 3.81767 98.1991 3.83695Z" fill="#464646"/>
<path d="M112.216 12.5618H100.693C101.093 14.9335 102.865 16.5635 105.694 16.5635C106.41 16.5945 107.123 16.4641 107.782 16.182C108.441 15.8998 109.027 15.4731 109.499 14.9335L111.642 16.3079C110.94 17.2054 110.034 17.9226 109 18.3999C107.965 18.8773 106.832 19.101 105.694 19.0525C100.888 19.0525 97.9063 15.6228 97.9063 11.4472C97.9063 7.27164 100.994 3.83984 105.254 3.83984C109.22 3.83984 112.901 7.15641 112.216 12.5618ZM109.587 10.3305C109.243 7.87085 107.726 6.29951 105.269 6.29951C102.811 6.29951 101.093 7.92741 100.693 10.3305H109.587Z" fill="#464646"/>
<path d="M125.079 9.92977V18.679H122.479V16.6698C121.941 17.4221 121.227 18.0315 120.4 18.4449C119.572 18.8583 118.656 19.0631 117.732 19.0414C114.987 19.0414 112.586 17.3842 112.586 14.7821C112.586 10.2357 118.105 10.1225 120.128 10.1225H122.479C122.479 7.91846 122.02 6.20466 119.018 6.20466C117.669 6.2514 116.365 6.69928 115.272 7.49106L113.443 6.08733C115.123 4.60628 117.294 3.80149 119.533 3.8288C123.709 3.83927 125.079 6.47074 125.079 9.92977ZM122.479 12.1611H121.476C118.788 12.1611 115.27 12.1317 115.27 14.6752C115.27 15.7898 115.984 16.9337 118.301 16.9337C120.788 16.9337 122.305 15.1906 122.477 14.5306L122.479 12.1611Z" fill="#464646"/>
<path d="M138.034 14.2484L140.265 15.4489C139.6 16.5575 138.656 17.473 137.528 18.1047C136.4 18.7365 135.126 19.0624 133.833 19.0504C132.509 19.0533 131.207 18.7104 130.055 18.0555C128.904 17.4005 127.944 16.4564 127.27 15.3163C126.596 14.1763 126.231 12.88 126.212 11.5557C126.193 10.2314 126.519 8.92506 127.16 7.76592C127.801 6.60678 128.733 5.63506 129.865 4.94693C130.996 4.2588 132.288 3.87813 133.612 3.84258C134.936 3.80704 136.246 4.11786 137.413 4.74428C138.58 5.3707 139.563 6.291 140.265 7.41409L138.034 8.64392C137.602 7.91754 136.986 7.31805 136.248 6.90603C135.51 6.49402 134.676 6.28407 133.831 6.2974C130.974 6.2974 128.885 8.47212 128.885 11.4451C128.885 14.4181 130.98 16.5656 133.831 16.5656C134.674 16.5849 135.507 16.3807 136.245 15.9737C136.983 15.5666 137.601 14.9714 138.034 14.2484Z" fill="#464646"/>
<path d="M144.839 6.67088V13.0191C144.839 15.0765 144.868 16.4488 147.127 16.4488C147.477 16.4467 147.826 16.4271 148.174 16.3901V18.678C147.714 18.7787 147.244 18.8265 146.773 18.8205C143.63 18.8205 142.226 17.1339 142.226 13.9598V6.67088H139.984V4.18398H142.243V1.15234H144.839V4.18398H148.191V6.67088H144.839Z" fill="#464646"/>
<path d="M16.942 31.5069C14.453 29.4872 11.8928 27.5681 9.31787 25.6532C7.96652 24.6496 6.61726 23.6461 5.27848 22.6257C3.79095 21.4923 2.36208 20.2729 0.834745 19.1877V20.1137L20.7844 11.0167L19.9778 10.5537C19.9506 12.0978 19.5043 13.6964 19.2466 15.2279L18.3038 20.7988L16.4182 31.9385C16.3051 32.6131 17.3359 32.9044 17.4511 32.2235L19.3849 20.7904L20.3277 15.2195C20.5854 13.6943 21.0212 12.102 21.0484 10.5537C21.0484 10.1137 20.5959 9.92515 20.2418 10.0907L0.292111 19.1877C-0.108057 19.3699 0.000889491 19.9042 0.292111 20.1137C1.75869 21.1487 3.12471 22.3198 4.54729 23.4051C5.89654 24.4345 7.25278 25.452 8.616 26.4577C11.1699 28.3433 13.7134 30.2582 16.1836 32.2612C16.7136 32.6928 17.4762 31.9385 16.942 31.5048V31.5069Z" fill="#464646"/>
</svg>
