<svg width="18" height="20" viewBox="0 0 18 20" fill="none" xmlns="http://www.w3.org/2000/svg">
<path d="M9.50033 0.501051V4.50105C9.49994 4.63248 9.50056 5.50105 9.50056 5.50105C9.50056 5.50105 10.3689 5.50145 10.5003 5.50105H14.5003M14.5006 9.00105L14.5003 5.50105L9.50033 0.501051L2.50059 0.501051C1.97016 0.501051 0.500427 0.500244 0.500427 0.500244C0.500427 0.500244 0.500593 1.97062 0.500593 2.50105V16.5011C0.500593 17.0315 0.500153 18.5011 0.500153 18.5011C0.500153 18.5011 1.97016 18.5011 2.50059 18.5011L8.50015 18.5002M3.50059 6.50105H6.50059M3.50059 10.5011H8.50059M3.50059 14.5011H8.50059M17.5006 13.4951C17.5006 17.4951 15.0006 19.4951 14.0006 19.4951C13.0006 19.4951 10.5006 17.4951 10.5006 13.4951C11.5006 13.4951 13.0006 12.9951 14.0006 11.9951C15.0006 12.9951 16.5006 13.4951 17.5006 13.4951Z" stroke="black"/>
</svg>
