<svg width="17" height="19" viewBox="0 0 17 19" fill="none" xmlns="http://www.w3.org/2000/svg">
<path d="M5.50006 9.45386L7.50006 11.4539L11.5001 7.45385M16.5001 9.45386C16.5001 13.915 10.3987 17.3358 8.50006 18.3251C6.60142 17.3358 0.500061 13.915 0.500061 9.45386V5.67145C0.500061 4.87194 0.500061 4.47219 0.630821 4.12856C0.746331 3.82499 0.934041 3.55413 1.17772 3.33938C1.45356 3.09629 1.82786 2.95593 2.57646 2.6752L8.50006 0.531738L14.4237 2.6752C15.1723 2.95593 15.5466 3.09629 15.8224 3.33938C16.0661 3.55413 16.2538 3.82499 16.3693 4.12856C16.5001 4.47219 16.5001 4.87194 16.5001 5.67145V9.45386Z" stroke="black" stroke-linecap="square"/>
</svg>
