<svg width="66" height="65" viewBox="0 0 66 65" fill="none" xmlns="http://www.w3.org/2000/svg">
<g clip-path="url(#clip0_2142_2073)">
<path d="M5.00391 4.63086H60.6801V59.4505H5.00391V4.63086Z" fill="#F5DE19"/>
<path d="M37.4741 37.2876C37.9485 38.2364 38.6855 39.0338 39.6003 39.588C40.5149 40.1423 41.57 40.4307 42.644 40.4202C44.8114 40.4202 46.1974 39.3532 46.1974 37.875C46.1974 36.113 44.7737 35.4825 42.3875 34.4547L41.0792 33.9025C37.3012 32.3186 34.7957 30.3354 34.7957 26.1416C34.7957 22.2788 37.7783 19.3362 42.4572 19.3362C43.9717 19.2285 45.4849 19.5623 46.8082 20.2958C48.1314 21.0294 49.206 22.1303 49.8978 23.4613L45.8076 26.0359C45.5413 25.376 45.0773 24.8114 44.4775 24.417C43.8778 24.0225 43.1704 23.8169 42.4491 23.8274C42.1345 23.7964 41.8167 23.8303 41.5162 23.9268C41.2155 24.0235 40.9386 24.1806 40.7031 24.3884C40.4676 24.5961 40.2786 24.85 40.1482 25.1337C40.0178 25.4173 39.9489 25.7246 39.9458 26.0359C39.9458 27.5806 40.9181 28.2072 43.163 29.1684L44.4714 29.7205C48.9175 31.5981 51.4309 33.511 51.4309 37.8123C51.4309 42.4505 47.7304 44.9918 42.7613 44.9918C40.8253 45.1133 38.8948 44.6804 37.2029 43.7455C35.5111 42.8107 34.1301 41.4137 33.2268 39.7231L37.4741 37.2876ZM18.9916 37.734C19.8128 39.1691 20.5606 40.3829 22.358 40.3829C24.076 40.3829 25.1617 39.7212 25.1617 37.1467V19.6298H30.3933V37.2152C30.3933 42.5483 27.2118 44.9761 22.5807 44.9761C20.9437 45.0642 19.318 44.6625 17.9173 43.8238C16.5164 42.9852 15.4062 41.7488 14.7324 40.2772L18.9916 37.734Z" fill="black"/>
</g>
<defs>
<clipPath id="clip0_2142_2073">
<rect width="65.4545" height="64.2136" fill="white"/>
</clipPath>
</defs>
</svg>
