<svg width="50" height="67" viewBox="0 0 50 67" fill="none" xmlns="http://www.w3.org/2000/svg">
<g clip-path="url(#clip0_2142_2105)">
<g clip-path="url(#clip1_2142_2105)">
<g clip-path="url(#clip2_2142_2105)">
<path d="M15.812 51.4634C15.812 51.4634 13.2692 52.9422 17.6217 53.4426C22.8949 54.0442 25.5902 53.9579 31.4013 52.8579C31.4013 52.8579 32.9291 53.8161 35.0628 54.6458C22.0358 60.229 5.58011 54.3224 15.812 51.4634ZM14.2203 44.1777C14.2203 44.1777 11.3681 46.2888 15.7241 46.7396C21.3571 47.3207 25.8056 47.3682 33.5033 45.8858C33.5033 45.8858 34.568 46.9654 36.2421 47.5556C20.4917 52.1613 2.9487 47.9189 14.2203 44.1777Z" fill="#5382A1"/>
<path d="M27.6395 31.8189C30.8494 35.5144 26.7962 38.84 26.7962 38.84C26.7962 38.84 34.9463 34.6325 31.2034 29.3638C27.7075 24.4503 25.0266 22.009 39.54 13.5918C39.54 13.5918 16.7588 19.2815 27.6393 31.8189" fill="#F8981D"/>
<path d="M44.8693 56.8526C44.8693 56.8526 46.7511 58.4032 42.7968 59.6027C35.2774 61.8806 11.5004 62.5685 4.89521 59.6935C2.52082 58.6604 6.97347 57.2271 8.3741 56.9263C9.83482 56.6096 10.6696 56.6686 10.6696 56.6686C8.02901 54.8084 -6.39792 60.3211 3.3414 61.8998C29.9019 66.2072 51.7587 59.9602 44.8693 56.8526ZM17.0351 36.6292C17.0351 36.6292 4.94059 39.5019 12.752 40.5451C16.0504 40.9866 22.6254 40.8867 28.7499 40.3736C33.7552 39.9514 38.781 39.0535 38.781 39.0535C38.781 39.0535 37.0161 39.8095 35.7391 40.6814C23.4575 43.9115 -0.268607 42.4086 6.56183 39.1048C12.3383 36.3125 17.0351 36.6292 17.0351 36.6292ZM38.7312 48.7566C51.2162 42.2689 45.4436 36.0343 41.4144 36.8742C40.4269 37.0798 39.9865 37.2579 39.9865 37.2579C39.9865 37.2579 40.3531 36.6836 41.0534 36.435C49.0242 33.6326 55.1546 44.7 38.4803 49.0835C38.4803 49.0835 38.6734 48.911 38.7312 48.7566Z" fill="#5382A1"/>
<path d="M31.2049 0C31.2049 0 38.1193 6.91671 24.6469 17.5527C13.8434 26.0845 22.1834 30.9492 24.6424 36.5072C18.3361 30.8175 13.7084 25.8088 16.8131 21.1472C21.3701 14.3044 33.9947 10.9868 31.2049 0Z" fill="#F8981D"/>
<path d="M18.2616 66.3364C30.2456 67.1035 48.6484 65.9107 49.0843 60.2402C49.0843 60.2402 48.2465 62.3899 39.1799 64.097C28.9515 66.0219 16.3359 65.7972 8.85352 64.5634C8.85352 64.5634 10.3853 65.8313 18.2616 66.3364Z" fill="#5382A1"/>
</g>
</g>
</g>
<defs>
<clipPath id="clip0_2142_2105">
<rect width="49.0909" height="66.5454" fill="white"/>
</clipPath>
<clipPath id="clip1_2142_2105">
<rect width="49.0909" height="66.5454" fill="white"/>
</clipPath>
<clipPath id="clip2_2142_2105">
<rect width="49.0788" height="66.5454" fill="white" transform="translate(0.00585938)"/>
</clipPath>
</defs>
</svg>
