<svg width="66" height="36" viewBox="0 0 66 36" fill="none" xmlns="http://www.w3.org/2000/svg">
<g clip-path="url(#clip0_2142_2137)">
<g clip-path="url(#clip1_2142_2137)">
<path d="M32.7269 33.127C49.6007 33.127 63.28 26.1947 63.28 17.6433C63.28 9.09191 49.6007 2.15962 32.7269 2.15962C15.8532 2.15962 2.17383 9.09203 2.17383 17.6433C2.17383 26.1947 15.8532 33.127 32.7269 33.127Z" fill="#777BB3"/>
<path d="M18.2065 19.5662C19.594 19.5662 20.6298 19.3103 21.2852 18.8059C21.9336 18.3067 22.3814 17.4418 22.6161 16.2353C22.8349 15.1077 22.7516 14.3203 22.3684 13.8953C21.9766 13.4613 21.1295 13.2412 19.8507 13.2412H17.6334L16.4041 19.5662H18.2065ZM10.9543 27.3574C10.9034 27.3574 10.8532 27.3462 10.8071 27.3245C10.7611 27.3028 10.7205 27.2712 10.6881 27.2319C10.6557 27.1927 10.6325 27.1467 10.62 27.0974C10.6074 27.0481 10.606 26.9966 10.6158 26.9466L13.8735 10.1853C13.8888 10.1067 13.9309 10.0359 13.9927 9.98498C14.0545 9.93406 14.1321 9.90622 14.2121 9.90623H21.2333C23.4399 9.90623 25.0824 10.5054 26.1147 11.6872C27.1526 12.8753 27.4731 14.536 27.0673 16.6231C26.9021 17.4734 26.6181 18.2631 26.223 18.9702C25.8276 19.678 25.3049 20.3329 24.6693 20.9171C23.9084 21.6292 23.0473 22.1455 22.1122 22.4494C21.1918 22.7492 20.0098 22.9012 18.5991 22.9012H15.7561L14.9442 27.0782C14.929 27.1568 14.8868 27.2276 14.8251 27.2786C14.7633 27.3295 14.6857 27.3574 14.6057 27.3574H10.9543Z" fill="black"/>
<path d="M17.917 13.585H19.8499C21.3933 13.585 21.9295 13.9236 22.1116 14.1255C22.4139 14.4606 22.4709 15.1671 22.2767 16.1687C22.0584 17.2899 21.6538 18.0849 21.074 18.5313C20.4804 18.9883 19.5153 19.2199 18.2058 19.2199H16.8219L17.917 13.585ZM21.2326 9.55998H14.2113C14.0511 9.56 13.896 9.61571 13.7724 9.71758C13.6489 9.81944 13.5646 9.96111 13.534 10.1183L10.2763 26.8796C10.2569 26.9795 10.2599 27.0824 10.2849 27.1811C10.31 27.2797 10.3565 27.3715 10.4212 27.4501C10.486 27.5286 10.5673 27.5918 10.6593 27.6352C10.7513 27.6786 10.8518 27.7012 10.9536 27.7012H14.6048C14.765 27.7012 14.9201 27.6455 15.0437 27.5436C15.1673 27.4417 15.2516 27.3001 15.2822 27.1428L16.0398 23.2449H18.5984C20.0453 23.2449 21.2634 23.0872 22.2185 22.7761C23.2007 22.457 24.1043 21.9159 24.9042 21.1679C25.5656 20.5593 26.1105 19.8763 26.5234 19.1374C26.9363 18.3983 27.233 17.5741 27.4052 16.6877C27.8324 14.4907 27.4853 12.7314 26.3738 11.4591C25.273 10.1989 23.5432 9.55998 21.2326 9.55998ZM15.9848 19.9099H18.2058C19.678 19.9099 20.7744 19.6326 21.4949 19.078C22.2155 18.5233 22.7015 17.5974 22.954 16.3C23.1956 15.0542 23.0855 14.1753 22.6238 13.6632C22.1616 13.151 21.237 12.895 19.8499 12.895H17.3482L15.9848 19.9099ZM21.2326 10.25C23.3448 10.25 24.8857 10.8043 25.8542 11.913C26.8226 13.0217 27.1142 14.5692 26.7278 16.5561C26.5688 17.3746 26.2998 18.1228 25.9211 18.8008C25.5421 19.4791 25.0467 20.0995 24.4351 20.6619C23.7061 21.3443 22.896 21.8303 22.0048 22.12C21.1136 22.4104 19.9784 22.5549 18.5984 22.5549H15.4709L14.6048 27.0112H10.9536L14.2113 10.25H21.2326Z" fill="white"/>
<path d="M35.4386 22.9004C35.3356 22.9004 35.2379 22.8544 35.1725 22.7748C35.1401 22.7356 35.1168 22.6896 35.1043 22.6403C35.0917 22.591 35.0903 22.5396 35.0999 22.4896L36.541 15.0734C36.6781 14.3681 36.6443 13.8619 36.4459 13.648C36.3245 13.5172 35.9597 13.2979 34.8811 13.2979H32.2704L30.4586 22.6212C30.4433 22.6998 30.4011 22.7706 30.3394 22.8216C30.2776 22.8725 30.2 22.9004 30.1199 22.9004H26.4974C26.4465 22.9004 26.3962 22.8892 26.3502 22.8675C26.3041 22.8458 26.2635 22.8142 26.2311 22.7749C26.1987 22.7357 26.1754 22.6897 26.1629 22.6404C26.1504 22.5911 26.149 22.5396 26.1587 22.4896L29.4164 5.7283C29.4317 5.6497 29.4739 5.57887 29.5357 5.52795C29.5975 5.47703 29.675 5.44919 29.7551 5.44919H33.3776C33.4285 5.44919 33.4787 5.46045 33.5248 5.48215C33.5708 5.50385 33.6114 5.53547 33.6438 5.57472C33.6762 5.61399 33.6994 5.65992 33.712 5.70923C33.7245 5.75855 33.726 5.81002 33.7163 5.85997L32.9301 9.90543H35.7387C37.8782 9.90543 39.3291 10.2826 40.1741 11.0586C41.0354 11.8503 41.3042 13.1161 40.973 14.8213L39.4573 22.6212C39.442 22.6998 39.3999 22.7706 39.3381 22.8216C39.2763 22.8725 39.1987 22.9004 39.1186 22.9004H35.4386Z" fill="black"/>
<path d="M33.3769 5.10295H29.7544C29.5943 5.10294 29.4391 5.15864 29.3155 5.26051C29.1919 5.36238 29.1076 5.50406 29.0771 5.66127L25.8193 22.4226C25.7999 22.5225 25.8028 22.6255 25.8278 22.7241C25.8529 22.8227 25.8995 22.9146 25.9642 22.9932C26.0289 23.0717 26.1103 23.1349 26.2023 23.1783C26.2944 23.2217 26.3949 23.2442 26.4967 23.2441H30.1192C30.2793 23.2441 30.4345 23.1884 30.5581 23.0866C30.6817 22.9847 30.766 22.843 30.7965 22.6858L32.5541 13.6417H34.8804C35.9571 13.6417 36.1831 13.8717 36.1922 13.8816C36.2575 13.9518 36.3434 14.2773 36.2016 15.0064L34.7606 22.4226C34.7411 22.5225 34.744 22.6255 34.7691 22.7241C34.7941 22.8227 34.8407 22.9146 34.9054 22.9932C34.9702 23.0717 35.0515 23.1349 35.1436 23.1783C35.2356 23.2217 35.3361 23.2442 35.4379 23.2441H39.1179C39.2781 23.2441 39.4332 23.1884 39.5568 23.0866C39.6804 22.9847 39.7647 22.843 39.7953 22.6858L41.3108 14.886C41.6665 13.0551 41.3622 11.6816 40.4068 10.8035C39.4951 9.96617 37.9679 9.55918 35.738 9.55918H33.3478L34.0542 5.92462C34.0737 5.82471 34.0707 5.72175 34.0457 5.6231C34.0206 5.52446 33.9741 5.43258 33.9093 5.35405C33.8446 5.27551 33.7633 5.21227 33.6712 5.16886C33.5792 5.12545 33.4787 5.10294 33.3769 5.10295ZM33.3769 5.79294L32.5108 10.2492H35.738C37.7685 10.2492 39.1691 10.6036 39.9399 11.3115C40.7108 12.0199 40.9417 13.1678 40.6336 14.7544L39.1179 22.5541H35.4379L36.879 15.138C37.043 14.2943 36.9827 13.719 36.698 13.4121C36.4131 13.1052 35.8072 12.9517 34.8804 12.9517H31.9852L30.1192 22.5541H26.4967L29.7544 5.79294H33.3769Z" fill="white"/>
<path d="M46.7045 19.5662C48.092 19.5662 49.1278 19.3103 49.7832 18.8059C50.4316 18.3068 50.8794 17.4419 51.1142 16.2353C51.333 15.1077 51.2497 14.3203 50.8664 13.8953C50.4746 13.4613 49.6275 13.2412 48.3487 13.2412H46.1314L44.9021 19.5662H46.7045ZM39.4524 27.3574C39.4015 27.3574 39.3513 27.3462 39.3053 27.3245C39.2592 27.3028 39.2186 27.2711 39.1862 27.2319C39.1539 27.1926 39.1306 27.1467 39.118 27.0974C39.1055 27.0481 39.104 26.9966 39.1138 26.9466L42.3715 10.1853C42.3868 10.1067 42.4289 10.0359 42.4907 9.98495C42.5526 9.93402 42.6302 9.90619 42.7102 9.90623H49.7313C51.9381 9.90623 53.5804 10.5054 54.6128 11.6872C55.6507 12.8752 55.9711 14.5359 55.5654 16.6231C55.4 17.4734 55.1161 18.2631 54.721 18.9702C54.3256 19.678 53.8029 20.3329 53.1673 20.9171C52.4064 21.6292 51.5453 22.1455 50.6102 22.4494C49.6898 22.7492 48.5078 22.9012 47.0971 22.9012H44.254L43.4425 27.0782C43.4272 27.1568 43.385 27.2277 43.3232 27.2787C43.2614 27.3296 43.1838 27.3574 43.1037 27.3574H39.4524Z" fill="black"/>
<path d="M46.4169 13.585H48.3498C49.8932 13.585 50.4294 13.9236 50.6115 14.1255C50.9139 14.4606 50.9709 15.1671 50.7765 16.1685C50.5583 17.2899 50.1536 18.0849 49.5739 18.5313C48.9802 18.9883 48.0152 19.2199 46.7057 19.2199H45.3219L46.4169 13.585ZM49.7325 9.55998H42.7113C42.5511 9.56 42.396 9.61571 42.2724 9.71758C42.1489 9.81944 42.0646 9.96111 42.034 10.1183L38.7763 26.8796C38.7569 26.9795 38.7599 27.0824 38.7849 27.1811C38.81 27.2797 38.8565 27.3715 38.9212 27.4501C38.986 27.5286 39.0673 27.5918 39.1593 27.6352C39.2513 27.6786 39.3518 27.7012 39.4536 27.7012H43.1048C43.265 27.7012 43.4201 27.6455 43.5437 27.5436C43.6673 27.4417 43.7516 27.3001 43.7822 27.1428L44.5397 23.2449H47.0983C48.5452 23.2449 49.7633 23.0872 50.7184 22.7761C51.7006 22.457 52.6045 21.9158 53.4043 21.1677C54.0658 20.5592 54.6104 19.8763 55.0233 19.1374C55.4362 18.3983 55.7329 17.5741 55.9051 16.6877C56.3323 14.4906 55.9852 12.7313 54.8736 11.459C53.7729 10.1989 52.0431 9.55998 49.7325 9.55998ZM44.4848 19.9099H46.7057C48.1778 19.9099 49.2742 19.6326 49.9948 19.078C50.7155 18.5233 51.2014 17.5974 51.4539 16.3C51.6956 15.0542 51.5856 14.1753 51.1237 13.6632C50.6615 13.151 49.7369 12.895 48.3498 12.895H45.8481L44.4848 19.9099ZM49.7325 10.25C51.8447 10.25 53.3855 10.8043 54.3541 11.913C55.3226 13.0217 55.6141 14.5692 55.2277 16.5561C55.0686 17.3746 54.7997 18.1228 54.421 18.8008C54.042 19.4791 53.5466 20.0995 52.935 20.6619C52.206 21.3443 51.3959 21.8303 50.5047 22.12C49.6134 22.4104 48.4783 22.5549 47.0983 22.5549H43.9707L43.1048 27.0112H39.4536L42.7113 10.25H49.7325Z" fill="white"/>
</g>
</g>
<defs>
<clipPath id="clip0_2142_2137">
<rect width="65.4545" height="35.2909" fill="white"/>
</clipPath>
<clipPath id="clip1_2142_2137">
<rect width="65.4545" height="35.2909" fill="white"/>
</clipPath>
</defs>
</svg>
