<svg width="106" height="112" viewBox="0 0 106 112" fill="none" xmlns="http://www.w3.org/2000/svg">
<path d="M7.7 5 96 1l2 2v97l-7.5 2v5H4l-2-2L7.7 5Z" fill="black"/>
<rect x=".5" y="1.5" width="93" height="25.6" fill="white" stroke="black"/>
<circle cx="14.4" cy="14.3" r="3.4" fill="#709ECC" stroke="black"/>
<circle cx="14.4" cy="14.3" r="3.4" fill="black" fill-opacity=".2"/>
<path d="M24.1 13.3H62v2H24.1z" fill="black"/>
<rect x=".5" y="27.3" width="93" height="25.6" fill="white" stroke="black"/>
<circle cx="14.4" cy="40.1" r="3.4" fill="#709ECC" stroke="black"/>
<circle cx="14.4" cy="40.1" r="3.4" fill="black" fill-opacity=".2"/>
<path d="M24.1 39.1H62v2H24.1z" fill="black"/>
<rect x=".5" y="53.1" width="93" height="25.6" fill="white" stroke="black"/>
<circle cx="14.4" cy="65.9" r="3.4" fill="#709ECC" stroke="black"/>
<circle cx="14.4" cy="65.9" r="3.4" fill="black" fill-opacity=".2"/>
<path d="M24.1 64.9H62v2H24.1z" fill="black"/>
<rect x=".5" y="78.9" width="93" height="25.6" fill="white" stroke="black"/>
<circle cx="14.4" cy="91.7" r="3.4" fill="#709ECC" stroke="black"/>
<circle cx="14.4" cy="91.7" r="3.4" fill="black" fill-opacity=".2"/>
<path d="M24.1 90.7H62v2H24.1z" fill="black"/>
<path d="m88.5 76.8 2 5.2c.6.3 1.1.6 1.6 1l3.6-2.9 1.5 1.7 4.3 7.6-3.4 4.1c.1.6.1 1.3 0 1.9l3.4 4.1-4.3 7.4-5.1-1c-.5.4-1.1.7-1.6 1l-1.9 5.1h-8.3l-1.5-2-.3-3.1c-.6-.3-1.1-.6-1.7-1l-5.1 1-1.7-1.7-2.5-5.8 3.4-4c0-.7 0-1.3.1-1.9l-3.5-4.1 4.1-7.4 5.2 1c.5-.4 1.1-.7 1.7-1l1.8-5.2 6.7-1.6 1.5 1.7ZM85.5 87a7.5 7.5 0 1 0 0 15 7.5 7.5 0 0 0 0-15Z" fill="black"/>
<path d="m78.8 75 8.2.1 1.9 5.1c.4.2.8.4 1.2.7l.4.3 5.1-1.1s2.7 4.6 4.4 7.5l-3.4 4c.1.6.1 1.3 0 1.9L100 98l-4.3 6.9-5.1-.9c-.5.3-1.1.7-1.6.9l-1.9 5.1h-8.3l-1.8-5.1c-.6-.3-1.1-.6-1.7-1L70.2 105l-4.1-7.5 3.3-4c-.1-.6-.1-1.3 0-1.9L66 87.6l4.1-7.4 5.2 1c.5-.4 1.1-.7 1.7-1l1.8-5.2ZM83 86a6.5 6.5 0 1 0 0 13 6.5 6.5 0 0 0 0-13Z" fill="#709ECC" stroke="black"/>
<path d="m78.8 75 8.2.1 1.9 5.1c.4.2.8.4 1.2.7l.4.3 5.1-1.1s2.7 4.6 4.4 7.5l-3.4 4c.1.6.1 1.3 0 1.9L100 98l-4.3 6.9-5.1-.9c-.5.3-1.1.7-1.6.9l-1.9 5.1h-8.3l-1.8-5.1c-.6-.3-1.1-.6-1.7-1L70.2 105l-4.1-7.5 3.3-4c-.1-.6-.1-1.3 0-1.9L66 87.6l4.1-7.4 5.2 1c.5-.4 1.1-.7 1.7-1l1.8-5.2Z" fill="black" fill-opacity=".2"/>
</svg>
