<svg width="66" height="67" viewBox="0 0 66 67" fill="none" xmlns="http://www.w3.org/2000/svg">
<g clip-path="url(#clip0_2142_2081)">
<g clip-path="url(#clip1_2142_2081)">
<g clip-path="url(#clip2_2142_2081)">
<mask id="mask0_2142_2081" style="mask-type:luminance" maskUnits="userSpaceOnUse" x="0" y="0" width="66" height="66">
<path d="M65.2079 0.478516H0.0957031V65.5907H65.2079V0.478516Z" fill="white"/>
</mask>
<g mask="url(#mask0_2142_2081)">
<path d="M32.6519 65.5908C50.6321 65.5908 65.208 51.015 65.208 33.0347C65.208 15.0543 50.6321 0.478516 32.6519 0.478516C14.6716 0.478516 0.0957031 15.0543 0.0957031 33.0347C0.0957031 51.015 14.6716 65.5908 32.6519 65.5908Z" fill="#5C2D91"/>
<path opacity="0.1" d="M10.0863 9.63672C6.77676 12.5859 4.10434 16.18 2.23289 20.1985C0.36144 24.2171 -0.669619 28.5755 -0.797084 33.0065C-0.924551 37.4377 -0.145739 41.848 1.49161 45.9676C3.12897 50.087 5.59036 53.8288 8.72493 56.9633C11.8595 60.0979 15.6012 62.5593 19.7207 64.1966C23.8401 65.834 28.2507 66.6128 32.6817 66.4853C37.1129 66.3579 41.4713 65.3268 45.4898 63.4554C49.5084 61.5839 53.1024 58.9115 56.0515 55.6019L10.0863 9.63672Z" fill="white"/>
<path d="M7.62409 42.4477C7.43417 42.4507 7.2457 42.4143 7.0706 42.3408C6.89548 42.2672 6.73752 42.1581 6.6067 42.0204C6.4723 41.8876 6.36608 41.7291 6.2944 41.5543C6.22273 41.3794 6.18707 41.192 6.18958 41.0031C6.18822 40.8143 6.22439 40.6272 6.29601 40.4525C6.36762 40.2778 6.47323 40.1191 6.6067 39.9856C6.73624 39.8456 6.89372 39.7343 7.06897 39.659C7.24422 39.5836 7.43334 39.5458 7.62409 39.5482C7.81456 39.5477 8.00311 39.5863 8.17809 39.6615C8.35307 39.7368 8.51077 39.8471 8.64146 39.9856C8.77724 40.1179 8.88503 40.2762 8.95844 40.451C9.03185 40.6258 9.06937 40.8135 9.06876 41.0031C9.07053 41.1928 9.03356 41.3809 8.96008 41.5558C8.88661 41.7308 8.77819 41.8889 8.64146 42.0204C8.50954 42.1566 8.35137 42.2648 8.17651 42.3382C8.00166 42.4116 7.81373 42.4489 7.62409 42.4477ZM27.8394 42.1933H25.1739L15.641 27.4007C15.404 27.0359 15.2062 26.6472 15.0509 26.2409H14.9696C15.0602 27.0855 15.0942 27.9352 15.0713 28.7843V42.1933H12.9043V23.6465H15.7224L25.0009 38.1747C25.3875 38.7783 25.6385 39.1921 25.7538 39.4159H25.8047C25.6973 38.5112 25.6531 37.6002 25.6724 36.6893V23.6465H27.8394V42.1933ZM42.51 42.1933H32.6516V23.6465H42.0522V25.6101H34.8696V31.7754H41.5639V33.7288H34.8696V40.1586H42.5202L42.51 42.1933ZM57.0688 25.6101H51.6766V42.1933H49.5096V25.6101H44.1785V23.6465H57.0688V25.6101Z" fill="white"/>
</g>
</g>
</g>
</g>
<defs>
<clipPath id="clip0_2142_2081">
<rect width="65.4545" height="66.7364" fill="white"/>
</clipPath>
<clipPath id="clip1_2142_2081">
<rect width="65.4545" height="66.7364" fill="white"/>
</clipPath>
<clipPath id="clip2_2142_2081">
<rect width="65.453" height="66.7364" fill="white"/>
</clipPath>
</defs>
</svg>
