<svg width="66" height="26" viewBox="0 0 66 26" fill="none" xmlns="http://www.w3.org/2000/svg">
<g clip-path="url(#clip0_2142_2093)">
<g clip-path="url(#clip1_2142_2093)">
<mask id="mask0_2142_2093" style="mask-type:luminance" maskUnits="userSpaceOnUse" x="0" y="0" width="65" height="25">
<path d="M64.8173 0.699219H0.857422V24.9003H64.8173V0.699219Z" fill="white"/>
</mask>
<g mask="url(#mask0_2142_2093)">
<path d="M6.30276 8.21947C6.21633 8.21947 6.1299 8.13303 6.21633 8.0466L6.82136 7.18227C6.90779 7.09584 6.99422 7.00941 7.16708 7.00941H18.0576C18.144 7.00941 18.2304 7.09584 18.144 7.18227L17.6254 7.96017C17.5389 8.0466 17.4526 8.13303 17.2797 8.13303L6.30276 8.21947ZM1.72185 10.9853C1.63541 10.9853 1.54898 10.8989 1.63541 10.8124L2.24044 9.94811C2.32688 9.86168 2.41331 9.77525 2.58617 9.77525H16.5018C16.5882 9.77525 16.6746 9.86168 16.6746 9.94811L16.4154 10.8124C16.4154 10.8989 16.2424 10.9853 16.1561 10.9853H1.72185ZM9.0686 13.8376C8.98217 13.8376 8.89573 13.7511 8.98217 13.6646L9.41432 12.8868C9.50075 12.8004 9.58718 12.7139 9.76005 12.7139H15.8103C15.8967 12.7139 15.9832 12.8004 15.9832 12.8868L15.8967 13.5783C15.8967 13.6646 15.8103 13.7511 15.7239 13.7511L9.0686 13.8376ZM40.7028 7.61444L35.6033 8.91092C35.1712 8.99735 35.0847 9.08378 34.739 8.56519C34.3068 8.0466 33.9611 7.70087 33.2697 7.44157C31.3682 6.49081 29.4667 6.75011 27.738 7.87373C25.6636 9.17022 24.6264 11.1581 24.6264 13.6646C24.6264 16.0848 26.355 18.0728 28.7752 18.4184C30.8495 18.6778 32.5782 17.9863 33.9611 16.4306C34.2204 16.0848 34.4797 15.7391 34.8255 15.3069H28.948C28.343 15.3069 28.1702 14.8748 28.343 14.3561C28.7752 13.4054 29.4667 11.8496 29.8988 11.0718C29.9852 10.8989 30.2445 10.5531 30.6767 10.5531H41.74C41.6536 11.4175 41.6536 12.1953 41.5671 13.0596C41.2214 15.2205 40.4435 17.2949 39.0606 19.0236C36.8998 21.8758 34.0475 23.6909 30.4174 24.2094C27.3922 24.6416 24.6264 24.0366 22.2064 22.2214C19.9591 20.4929 18.6626 18.2456 18.3169 15.4798C17.8847 12.1953 18.9219 9.17022 20.9099 6.57724C23.0707 3.72498 25.9229 1.9099 29.4667 1.30488C32.3189 0.786281 35.0847 1.13201 37.5048 2.77422C39.147 3.81142 40.2707 5.28076 41.0485 7.09584C41.135 7.44157 41.0486 7.528 40.7028 7.61444Z" fill="#00ACD7"/>
<path d="M50.728 24.4681C47.9621 24.3818 45.4556 23.6038 43.2948 21.7888C41.4797 20.233 40.3561 18.245 40.0103 15.9113C39.4918 12.454 40.4425 9.42893 42.5169 6.74952C44.7641 3.81082 47.4435 2.34147 51.0737 1.65001C54.1853 1.13141 57.1239 1.39071 59.7169 3.20579C62.1371 4.84801 63.6064 7.09525 64.0386 10.034C64.5571 14.1827 63.3471 17.4672 60.5813 20.3195C58.5933 22.3938 56.0868 23.6038 53.3209 24.2088C52.3701 24.3818 51.5058 24.3818 50.728 24.4681ZM57.9883 12.1947C57.9883 11.7625 57.9883 11.5033 57.9019 11.1575C57.3833 8.13244 54.6174 6.40379 51.6788 7.09525C48.8265 7.70027 47.0113 9.51536 46.32 12.3677C45.8013 14.7013 46.925 17.1214 49.0858 18.1586C50.728 18.85 52.4566 18.7636 54.0124 17.9857C56.5189 16.7757 57.8154 14.7877 57.9883 12.1947Z" fill="#00ACD7"/>
</g>
</g>
</g>
<defs>
<clipPath id="clip0_2142_2093">
<rect width="65.4545" height="25.0773" fill="white"/>
</clipPath>
<clipPath id="clip1_2142_2093">
<rect width="65.4545" height="25.0773" fill="white"/>
</clipPath>
</defs>
</svg>
