<svg width="66" height="66" viewBox="0 0 66 66" fill="none" xmlns="http://www.w3.org/2000/svg">
<g clip-path="url(#clip0_2142_2056)">
<g clip-path="url(#clip1_2142_2056)">
<g clip-path="url(#clip2_2142_2056)">
<path d="M32.3375 0.000479421C29.6383 0.0134336 27.0611 0.243665 24.7929 0.645244C18.1121 1.82525 16.8991 4.29597 16.8991 8.85172V14.8689H32.6873V16.8745H10.9743C6.38559 16.8745 2.36802 19.6325 1.11147 24.879C-0.338224 30.8927 -0.402406 34.6453 1.11147 40.9245C2.23318 45.5986 4.91352 48.929 9.50224 48.929H14.93V41.7159C14.93 36.5048 19.4387 31.9078 24.7929 31.9078H40.5628C44.952 31.9078 48.4567 28.2936 48.4567 23.885V8.85231C48.4567 4.57331 44.8471 1.3589 40.5628 0.645244C37.8507 0.193615 35.0367 -0.0112971 32.3375 0.000479421ZM23.799 4.84063C25.43 4.84063 26.7613 6.19376 26.7613 7.85837C26.7613 9.51651 25.4294 10.8573 23.799 10.8573C22.162 10.8573 20.8366 9.51651 20.8366 7.85837C20.8366 6.19376 22.1626 4.84063 23.799 4.84063Z" fill="url(#paint0_linear_2142_2056)"/>
<path d="M50.427 16.875V23.8856C50.427 29.321 45.8188 33.8956 40.5642 33.8956H24.7942C20.4746 33.8956 16.9004 37.5929 16.9004 41.9184V56.9523C16.9004 61.2307 20.6212 63.7474 24.7942 64.9751C29.7922 66.4442 34.5846 66.7097 40.5642 64.9751C44.5387 63.8239 48.458 61.508 48.458 56.9523V50.9345H32.6886V48.9295H56.3518C60.9405 48.9295 62.6499 45.7287 64.2456 40.925C65.8943 35.9795 65.8236 31.2235 64.2456 24.8795C63.1121 20.3114 60.9458 16.875 56.3518 16.875H50.427ZM41.5575 54.9462C43.1944 54.9462 44.5199 56.2875 44.5199 57.9456C44.5199 59.6103 43.1944 60.9634 41.5575 60.9634C39.9265 60.9634 38.5951 59.6103 38.5951 57.9456C38.5951 56.2875 39.9265 54.9462 41.5575 54.9462Z" fill="url(#paint1_linear_2142_2056)"/>
</g>
</g>
</g>
<defs>
<linearGradient id="paint0_linear_2142_2056" x1="-0.000161767" y1="0.000746294" x2="36.4048" y2="31.023" gradientUnits="userSpaceOnUse">
<stop stop-color="#5A9FD4"/>
<stop offset="1" stop-color="#306998"/>
</linearGradient>
<linearGradient id="paint1_linear_2142_2056" x1="41.1781" y1="57.4399" x2="28.1172" y2="39.1378" gradientUnits="userSpaceOnUse">
<stop stop-color="#FFD43B"/>
<stop offset="1" stop-color="#FFE873"/>
</linearGradient>
<clipPath id="clip0_2142_2056">
<rect width="65.4545" height="65.4545" fill="white"/>
</clipPath>
<clipPath id="clip1_2142_2056">
<rect width="65.4545" height="65.4545" fill="white"/>
</clipPath>
<clipPath id="clip2_2142_2056">
<rect width="65.4545" height="65.4545" fill="white"/>
</clipPath>
</defs>
</svg>
