<svg width="79" height="72" viewBox="0 0 79 72" fill="none" xmlns="http://www.w3.org/2000/svg">
<g clip-path="url(#clip0_2142_2063)">
<path d="M39.3124 40.8686C42.611 40.8686 45.2851 38.4238 45.2851 35.408C45.2851 32.3921 42.611 29.9473 39.3124 29.9473C36.0139 29.9473 33.3398 32.3921 33.3398 35.408C33.3398 38.4238 36.0139 40.8686 39.3124 40.8686Z" fill="#00D8FF"/>
<path d="M39.3157 47.9283C32.137 48.087 24.9763 47.2024 18.101 45.3072C14.925 44.3867 11.963 42.9366 9.36432 41.0303C8.3727 40.3792 7.54691 39.5395 6.9436 38.5691C6.3403 37.5985 5.97376 36.5203 5.86914 35.4081C5.86914 31.7974 10.2076 28.259 17.4752 25.9436C24.5342 23.8921 31.9095 22.8978 39.3157 22.9992C46.6231 22.906 53.8998 23.8822 60.8697 25.8913C63.9283 26.7828 66.7901 28.1627 69.3221 29.967C70.2968 30.588 71.1102 31.3972 71.7047 32.3375C72.2993 33.2778 72.6603 34.3261 72.7624 35.4081C72.7624 39.1607 67.9126 42.9635 60.1004 45.3268C53.3584 47.1602 46.3487 48.0375 39.3157 47.9283ZM39.3157 25.6116C32.2301 25.5251 25.1745 26.4703 18.4141 28.4119C11.7247 30.546 8.72645 33.464 8.72645 35.4015C8.72645 37.4285 11.9493 40.6154 19.0256 42.8281C25.6028 44.6319 32.4511 45.4716 39.3157 45.3159C46.0442 45.426 52.7515 44.5936 59.2045 42.8476C66.5509 40.622 69.8955 37.4307 69.8955 35.4081C69.775 34.714 69.4983 34.0503 69.083 33.4589C68.6677 32.8675 68.1227 32.3613 67.4826 31.9723C65.2172 30.3715 62.6608 29.1486 59.9308 28.3594C53.2631 26.4455 46.3036 25.5179 39.3157 25.6116Z" fill="#00D8FF"/>
<path d="M25.7453 62.6454C24.6309 62.6688 23.5295 62.4216 22.5536 61.929C19.1324 60.1247 17.9475 54.9219 19.3833 48.0086C20.9664 41.3927 23.7094 35.0543 27.506 29.2392C31.0675 23.4052 35.6268 18.1298 41.0113 13.6129C43.3841 11.6355 46.1211 10.0581 49.0958 8.9539C50.1718 8.49288 51.3455 8.25391 52.5337 8.25391C53.7219 8.25391 54.8956 8.49288 55.9715 8.9539C59.5288 10.828 60.7066 16.5683 59.0462 23.9358C57.4142 30.1927 54.7425 36.1839 51.1242 41.7004C47.6881 47.4655 43.2722 52.695 38.0418 57.1934C35.5829 59.2484 32.7293 60.8695 29.6252 61.9748C28.3824 62.3965 27.0707 62.6233 25.7453 62.6454ZM29.981 30.5366C26.3595 36.1051 23.7306 42.165 22.1928 48.4892C20.8717 54.8563 22.1403 58.6853 23.9846 59.6595C25.8959 60.6709 30.5354 59.712 36.1687 55.2123C41.1618 50.9026 45.3766 45.8969 48.6562 40.3812C52.1226 35.1072 54.6856 29.3793 56.2558 23.3963C57.8183 16.4613 56.4684 12.215 54.5525 11.2059C53.8343 10.9543 53.0669 10.8417 52.2987 10.8752C51.5306 10.9086 50.7784 11.0874 50.0897 11.4003C47.4419 12.3992 45.0075 13.8175 42.8987 15.5897C37.7543 19.9162 33.3991 24.9666 29.9979 30.5498L29.981 30.5366Z" fill="#00D8FF"/>
<path d="M52.8761 62.6724C49.6389 62.6724 45.5273 60.8812 41.2462 57.5152C35.7674 52.9573 31.1309 47.6191 27.5164 41.7077C23.7672 35.9725 21.046 29.726 19.4557 23.2048C18.7659 20.3357 18.6382 17.3776 19.0783 14.4677C19.1799 13.3882 19.5395 12.3423 20.1314 11.4037C20.7234 10.4651 21.5333 9.65668 22.5042 9.03541C26.0567 7.15475 32.0842 9.08783 38.2359 14.081C43.3499 18.498 47.6928 23.606 51.1129 29.2268C54.8597 34.828 57.6094 40.9377 59.2595 47.3278C59.9789 50.3022 60.09 53.3725 59.5868 56.3837C59.4671 57.4943 59.0862 58.5679 58.4702 59.5312C57.8541 60.4945 57.0174 61.3247 56.0176 61.9646C55.0577 62.4511 53.9733 62.6954 52.8761 62.6724ZM29.989 40.3927C33.4565 46.0422 37.8854 51.1511 43.1096 55.5275C48.4826 59.7541 52.7447 60.6627 54.577 59.6777C56.4883 58.662 57.8978 54.5163 56.4453 47.8083C54.8539 41.7076 52.2163 35.8756 48.6307 30.5286C45.3668 25.149 41.2216 20.2579 36.3391 16.0251C30.548 11.3245 25.8511 10.2739 23.9375 11.2874C23.3411 11.7305 22.8516 12.2819 22.5 12.9068C22.1484 13.5316 21.9425 14.2163 21.895 14.9177C21.5151 17.5127 21.6388 20.1488 22.2605 22.7045C23.7901 28.9409 26.4 34.9138 29.9914 40.3971L29.989 40.3927Z" fill="#00D8FF"/>
</g>
<defs>
<clipPath id="clip0_2142_2063">
<rect width="78.5455" height="71.64" fill="white"/>
</clipPath>
</defs>
</svg>
