<svg width="66" height="66" viewBox="0 0 66 66" fill="none" xmlns="http://www.w3.org/2000/svg">
<g clip-path="url(#clip0_2142_2047)">
<g clip-path="url(#clip1_2142_2047)">
<g clip-path="url(#clip2_2142_2047)">
<mask id="mask0_2142_2047" style="mask-type:luminance" maskUnits="userSpaceOnUse" x="1" y="1" width="64" height="65">
<path d="M64.925 1.31055H1.14648V65.089H64.925V1.31055Z" fill="white"/>
</mask>
<g mask="url(#mask0_2142_2047)">
<path d="M5.67933 33.1988C5.67933 44.0276 11.9721 53.3847 21.0971 57.8197L8.04779 22.0655C6.48347 25.5684 5.67637 29.3624 5.67933 33.1988ZM51.5034 31.8183C51.5034 34.1602 50.6034 36.8779 49.4203 40.6617L46.6921 49.7799L36.806 20.3727C38.452 20.2863 39.937 20.1119 39.937 20.1119C41.4107 19.9374 41.2374 17.7716 39.7617 17.8584C39.7617 17.8584 35.3319 18.2056 32.471 18.2056C29.7828 18.2056 25.2651 17.8584 25.2651 17.8584C23.791 17.7716 23.6181 20.0255 25.0923 20.1119C25.0923 20.1119 26.4879 20.2863 27.961 20.3727L32.2237 32.0499L26.2364 50.005L16.2744 20.3733C17.9234 20.2868 19.406 20.1124 19.406 20.1124C20.8786 19.938 20.7047 17.7721 19.2301 17.859C19.2301 17.859 14.8007 18.2062 11.9393 18.2062C11.4261 18.2062 10.8207 18.1932 10.1789 18.174C15.0704 10.7469 23.4786 5.84339 33.0358 5.84339C40.1578 5.84339 46.6422 8.56581 51.5096 13.0248C51.391 13.018 51.2759 13.0029 51.1547 13.0029C48.4682 13.0029 46.5614 15.3438 46.5614 17.8584C46.5614 20.1119 47.8607 22.0201 49.2474 24.2735C50.2891 26.096 51.5034 28.4374 51.5034 31.8183ZM33.5157 35.5917L41.9255 58.6291C41.9788 58.7604 42.044 58.8866 42.1202 59.006C39.2765 60.0055 36.2214 60.5568 33.0358 60.5568C30.4197 60.5568 27.8172 60.1812 25.3078 59.4417L33.5157 35.5917ZM57.0399 20.0739C59.2456 24.0964 60.3984 28.6113 60.3911 33.1988C60.3911 43.2915 54.9208 52.1026 46.7879 56.8452L55.144 32.6855C56.7056 28.7835 57.2241 25.6629 57.2241 22.8869C57.2241 21.8812 57.1576 20.9453 57.0399 20.0739ZM33.0358 1.31055C50.6185 1.31055 64.9261 15.6155 64.9266 33.1988C64.9266 50.7847 50.6185 65.0891 33.0358 65.0891C15.452 65.0891 1.14648 50.7841 1.14648 33.1988C1.14648 15.6155 15.4525 1.31055 33.0358 1.31055ZM33.0358 63.6269C49.8117 63.6269 63.4612 49.9767 63.4612 33.1988C63.4612 16.4223 49.8122 2.77326 33.0358 2.77326C16.2583 2.77326 2.60868 16.4223 2.60868 33.1988C2.60868 49.9767 16.2588 63.6269 33.0358 63.6269Z" fill="#00749A"/>
</g>
</g>
</g>
</g>
<defs>
<clipPath id="clip0_2142_2047">
<rect width="65.4545" height="65.4545" fill="white"/>
</clipPath>
<clipPath id="clip1_2142_2047">
<rect width="65.4545" height="65.4545" fill="white"/>
</clipPath>
<clipPath id="clip2_2142_2047">
<rect width="65.4545" height="65.4545" fill="white"/>
</clipPath>
</defs>
</svg>
