<svg width="553" height="202" viewBox="0 0 553 202" fill="none" xmlns="http://www.w3.org/2000/svg">
<path d="M2.97033 3.7049C2.9868 2.61471 3.87343 1.7386 4.96373 1.73513L549.458 0.00172485C549.813 0.00059531 550.162 0.093876 550.469 0.271998L552.004 1.16326C552.621 1.52113 553 2.18011 553 2.89298V200C553 201.105 552.105 202 551 202H3.53839C3.18573 202 2.83936 201.907 2.53436 201.73L1.01345 200.847C0.387574 200.484 0.00677145 199.811 0.0177064 199.087L2.97033 3.7049Z" fill="black"/>
<rect x="0.5" y="0.5" width="549" height="199" rx="1.5" fill="white"/>
<rect x="0.5" y="0.5" width="549" height="199" rx="1.5" stroke="black"/>
<path d="M23.5 44.24C22.1933 44.24 21.0467 43.94 20.06 43.34C19.0733 42.74 18.3067 41.9 17.76 40.82C17.2133 39.74 16.94 38.48 16.94 37.04C16.94 35.6133 17.2133 34.3533 17.76 33.26C18.32 32.1667 19.1133 31.3133 20.14 30.7C21.18 30.0733 22.4 29.76 23.8 29.76C25.4 29.76 26.7333 30.1467 27.8 30.92C28.8667 31.68 29.5467 32.74 29.84 34.1H27.56C27.3733 33.3267 26.9533 32.72 26.3 32.28C25.66 31.8267 24.8267 31.6 23.8 31.6C22.8133 31.6 21.9533 31.82 21.22 32.26C20.5 32.7 19.9467 33.3267 19.56 34.14C19.1733 34.9533 18.98 35.92 18.98 37.04C18.98 38.1733 19.1733 39.1467 19.56 39.96C19.9467 40.7733 20.4867 41.3933 21.18 41.82C21.8867 42.2467 22.7 42.46 23.62 42.46C25.0333 42.46 26.1 42.0533 26.82 41.24C27.54 40.4267 27.9533 39.34 28.06 37.98H24.22V36.44H30.1V44H28.26L28.1 41.86C27.78 42.38 27.4067 42.82 26.98 43.18C26.5667 43.5267 26.0733 43.7933 25.5 43.98C24.94 44.1533 24.2733 44.24 23.5 44.24ZM32.6139 44V29.6H34.6139V44H32.6139ZM41.9405 44.24C40.9938 44.24 40.1405 44.02 39.3805 43.58C38.6338 43.14 38.0405 42.5267 37.6005 41.74C37.1738 40.94 36.9605 40.02 36.9605 38.98C36.9605 37.9133 37.1805 36.9867 37.6205 36.2C38.0605 35.4 38.6605 34.78 39.4205 34.34C40.1805 33.9 41.0338 33.68 41.9805 33.68C42.9405 33.68 43.7938 33.9 44.5405 34.34C45.2871 34.78 45.8738 35.3933 46.3005 36.18C46.7405 36.9667 46.9605 37.8933 46.9605 38.96C46.9605 40.0267 46.7405 40.9533 46.3005 41.74C45.8738 42.5267 45.2805 43.14 44.5205 43.58C43.7605 44.02 42.9005 44.24 41.9405 44.24ZM41.9405 42.52C42.4871 42.52 42.9805 42.3867 43.4205 42.12C43.8738 41.8533 44.2338 41.46 44.5005 40.94C44.7805 40.4067 44.9205 39.7467 44.9205 38.96C44.9205 38.1733 44.7871 37.52 44.5205 37C44.2538 36.4667 43.8938 36.0667 43.4405 35.8C43.0005 35.5333 42.5138 35.4 41.9805 35.4C41.4471 35.4 40.9538 35.5333 40.5005 35.8C40.0471 36.0667 39.6805 36.4667 39.4005 37C39.1338 37.52 39.0005 38.1733 39.0005 38.96C39.0005 39.7467 39.1338 40.4067 39.4005 40.94C39.6805 41.46 40.0405 41.8533 40.4805 42.12C40.9338 42.3867 41.4205 42.52 41.9405 42.52ZM54.7936 44.24C54.2469 44.24 53.7469 44.16 53.2936 44C52.8536 43.8533 52.4669 43.6467 52.1336 43.38C51.8003 43.1133 51.5203 42.8067 51.2936 42.46L51.0936 44H49.2936V29.6H51.2936V35.5C51.6136 34.9933 52.0603 34.5667 52.6336 34.22C53.2203 33.86 53.9403 33.68 54.7936 33.68C55.7536 33.68 56.6003 33.9133 57.3336 34.38C58.0669 34.8333 58.6336 35.46 59.0336 36.26C59.4469 37.0467 59.6536 37.9533 59.6536 38.98C59.6536 39.98 59.4469 40.88 59.0336 41.68C58.6336 42.48 58.0669 43.1067 57.3336 43.56C56.6003 44.0133 55.7536 44.24 54.7936 44.24ZM54.4736 42.5C55.0869 42.5 55.6269 42.3533 56.0936 42.06C56.5736 41.7667 56.9469 41.3533 57.2136 40.82C57.4936 40.2867 57.6336 39.6667 57.6336 38.96C57.6336 38.2533 57.4936 37.64 57.2136 37.12C56.9469 36.5867 56.5736 36.1733 56.0936 35.88C55.6269 35.5733 55.0869 35.42 54.4736 35.42C53.8469 35.42 53.2936 35.5733 52.8136 35.88C52.3469 36.1733 51.9803 36.5867 51.7136 37.12C51.4469 37.64 51.3136 38.2533 51.3136 38.96C51.3136 39.6667 51.4469 40.2867 51.7136 40.82C51.9803 41.3533 52.3469 41.7667 52.8136 42.06C53.2936 42.3533 53.8469 42.5 54.4736 42.5ZM65.3484 44.24C64.5218 44.24 63.8351 44.1 63.2884 43.82C62.7418 43.54 62.3351 43.1667 62.0684 42.7C61.8018 42.22 61.6684 41.7067 61.6684 41.16C61.6684 40.4933 61.8418 39.9267 62.1884 39.46C62.5351 38.98 63.0284 38.6133 63.6684 38.36C64.3084 38.1067 65.0751 37.98 65.9684 37.98H68.5884C68.5884 37.3933 68.5018 36.9067 68.3284 36.52C68.1551 36.1333 67.8951 35.8467 67.5484 35.66C67.2151 35.46 66.7884 35.36 66.2684 35.36C65.6684 35.36 65.1551 35.5067 64.7284 35.8C64.3018 36.08 64.0351 36.5 63.9284 37.06H61.9284C62.0084 36.3533 62.2484 35.7533 62.6484 35.26C63.0618 34.7533 63.5884 34.3667 64.2284 34.1C64.8684 33.82 65.5484 33.68 66.2684 33.68C67.2151 33.68 68.0084 33.8467 68.6484 34.18C69.2884 34.5133 69.7684 34.9867 70.0884 35.6C70.4218 36.2 70.5884 36.92 70.5884 37.76V44H68.8484L68.6884 42.3C68.5418 42.5667 68.3684 42.82 68.1684 43.06C67.9684 43.3 67.7284 43.5067 67.4484 43.68C67.1818 43.8533 66.8684 43.9867 66.5084 44.08C66.1618 44.1867 65.7751 44.24 65.3484 44.24ZM65.7284 42.62C66.1551 42.62 66.5418 42.5333 66.8884 42.36C67.2351 42.1867 67.5284 41.9533 67.7684 41.66C68.0218 41.3533 68.2084 41.0133 68.3284 40.64C68.4618 40.2533 68.5351 39.86 68.5484 39.46V39.4H66.1684C65.5951 39.4 65.1284 39.4733 64.7684 39.62C64.4218 39.7533 64.1684 39.94 64.0084 40.18C63.8484 40.42 63.7684 40.7 63.7684 41.02C63.7684 41.3533 63.8418 41.64 63.9884 41.88C64.1484 42.1067 64.3751 42.2867 64.6684 42.42C64.9618 42.5533 65.3151 42.62 65.7284 42.62ZM73.1217 44V29.6H75.1217V44H73.1217ZM82.1655 44L87.3055 30H89.4855L94.6255 44H92.4855L88.3855 32.4L84.2655 44H82.1655ZM84.4855 40.54L85.0455 38.94H91.6255L92.1855 40.54H84.4855ZM96.6202 44V30H101.4C102.52 30 103.44 30.1867 104.16 30.56C104.88 30.9333 105.413 31.4333 105.76 32.06C106.107 32.6867 106.28 33.4 106.28 34.2C106.28 34.96 106.107 35.66 105.76 36.3C105.427 36.9267 104.9 37.4333 104.18 37.82C103.46 38.1933 102.533 38.38 101.4 38.38H98.6202V44H96.6202ZM98.6202 36.72H101.32C102.373 36.72 103.12 36.4933 103.56 36.04C104.013 35.5733 104.24 34.96 104.24 34.2C104.24 33.3867 104.013 32.76 103.56 32.32C103.12 31.88 102.373 31.66 101.32 31.66H98.6202V36.72ZM108.417 44V30H110.417V44H108.417Z" fill="black"/>
<rect width="84" height="25" transform="translate(450 24.5)" fill="#437540"/>
<path d="M462 37L465 40L471 34" stroke="white" stroke-width="2" stroke-linecap="round" stroke-linejoin="round"/>
<path d="M485.264 41.5V33.1H486.272V41.5H485.264ZM479.9 41.5V33.1H480.908V41.5H479.9ZM480.716 37.636V36.808H485.516V37.636H480.716ZM490.66 41.644C490.092 41.644 489.588 41.512 489.148 41.248C488.716 40.984 488.376 40.616 488.128 40.144C487.88 39.664 487.756 39.108 487.756 38.476C487.756 37.836 487.876 37.28 488.116 36.808C488.364 36.336 488.708 35.968 489.148 35.704C489.596 35.44 490.108 35.308 490.684 35.308C491.276 35.308 491.776 35.44 492.184 35.704C492.6 35.968 492.916 36.316 493.132 36.748C493.356 37.172 493.468 37.64 493.468 38.152C493.468 38.232 493.468 38.316 493.468 38.404C493.468 38.492 493.464 38.592 493.456 38.704H488.512V37.924H492.484C492.46 37.372 492.276 36.94 491.932 36.628C491.596 36.316 491.172 36.16 490.66 36.16C490.316 36.16 489.996 36.24 489.7 36.4C489.412 36.552 489.18 36.78 489.004 37.084C488.828 37.38 488.74 37.752 488.74 38.2V38.536C488.74 39.032 488.828 39.448 489.004 39.784C489.188 40.12 489.424 40.372 489.712 40.54C490.008 40.708 490.324 40.792 490.66 40.792C491.084 40.792 491.432 40.7 491.704 40.516C491.984 40.324 492.184 40.068 492.304 39.748H493.3C493.204 40.108 493.036 40.432 492.796 40.72C492.556 41.008 492.256 41.236 491.896 41.404C491.544 41.564 491.132 41.644 490.66 41.644ZM496.796 41.644C496.308 41.644 495.9 41.56 495.572 41.392C495.244 41.216 495 40.988 494.84 40.708C494.68 40.42 494.6 40.108 494.6 39.772C494.6 39.364 494.704 39.02 494.912 38.74C495.128 38.452 495.428 38.236 495.812 38.092C496.204 37.94 496.664 37.864 497.192 37.864H498.788C498.788 37.488 498.728 37.176 498.608 36.928C498.496 36.672 498.328 36.48 498.104 36.352C497.888 36.224 497.616 36.16 497.288 36.16C496.904 36.16 496.572 36.256 496.292 36.448C496.012 36.64 495.84 36.924 495.776 37.3H494.744C494.792 36.868 494.936 36.508 495.176 36.22C495.424 35.924 495.736 35.7 496.112 35.548C496.488 35.388 496.88 35.308 497.288 35.308C497.848 35.308 498.312 35.412 498.68 35.62C499.056 35.82 499.336 36.104 499.52 36.472C499.704 36.832 499.796 37.26 499.796 37.756V41.5H498.896L498.836 40.432C498.756 40.6 498.652 40.76 498.524 40.912C498.404 41.056 498.26 41.184 498.092 41.296C497.924 41.4 497.732 41.484 497.516 41.548C497.308 41.612 497.068 41.644 496.796 41.644ZM496.952 40.792C497.232 40.792 497.484 40.736 497.708 40.624C497.94 40.504 498.136 40.344 498.296 40.144C498.456 39.936 498.576 39.708 498.656 39.46C498.744 39.212 498.788 38.952 498.788 38.68V38.644H497.276C496.884 38.644 496.568 38.692 496.328 38.788C496.088 38.876 495.916 39.004 495.812 39.172C495.708 39.332 495.656 39.516 495.656 39.724C495.656 39.94 495.704 40.128 495.8 40.288C495.904 40.448 496.052 40.572 496.244 40.66C496.444 40.748 496.68 40.792 496.952 40.792ZM501.356 41.5V32.86H502.364V41.5H501.356ZM506.404 41.5C506.044 41.5 505.732 41.444 505.468 41.332C505.204 41.22 505 41.032 504.856 40.768C504.72 40.496 504.652 40.132 504.652 39.676V36.304H503.596V35.452H504.652L504.784 33.988H505.66V35.452H507.412V36.304H505.66V39.676C505.66 40.052 505.736 40.308 505.888 40.444C506.04 40.572 506.308 40.636 506.692 40.636H507.34V41.5H506.404ZM508.727 41.5V32.86H509.735V36.472C509.935 36.112 510.215 35.828 510.575 35.62C510.943 35.412 511.343 35.308 511.775 35.308C512.239 35.308 512.643 35.404 512.987 35.596C513.331 35.78 513.595 36.064 513.779 36.448C513.963 36.832 514.055 37.316 514.055 37.9V41.5H513.059V38.008C513.059 37.4 512.931 36.944 512.675 36.64C512.419 36.328 512.047 36.172 511.559 36.172C511.215 36.172 510.903 36.256 510.623 36.424C510.351 36.592 510.135 36.832 509.975 37.144C509.815 37.456 509.735 37.84 509.735 38.296V41.5H508.727ZM516.113 44.14L517.589 40.828H517.241L514.865 35.452H515.957L517.925 40.072L519.989 35.452H521.033L517.169 44.14H516.113Z" fill="white"/>
<g clip-path="url(#clip0_2_4476)">
<rect x="16" y="73.5" width="4" height="64" fill="#437540"/>
<rect x="24" y="73.5" width="4" height="64" fill="#437540"/>
<rect x="32" y="73.5" width="4" height="64" fill="#437540"/>
<rect x="40" y="73.5" width="4" height="64" fill="#437540"/>
<rect x="48" y="73.5" width="4" height="64" fill="#437540"/>
<rect x="56" y="73.5" width="4" height="64" fill="#437540"/>
<rect x="64" y="73.5" width="4" height="64" fill="#437540"/>
<rect x="72" y="73.5" width="4" height="64" fill="#437540"/>
<rect x="80" y="73.5" width="4" height="64" fill="#437540"/>
<rect x="88" y="73.5" width="4" height="64" fill="#437540"/>
<rect x="96" y="73.5" width="4" height="64" fill="#437540"/>
<rect x="104" y="73.5" width="4" height="64" fill="#437540"/>
<rect x="112" y="73.5" width="4" height="64" fill="#437540"/>
<rect x="120" y="73.5" width="4" height="64" fill="#437540"/>
<rect x="128" y="73.5" width="4" height="64" fill="#437540"/>
<rect x="136" y="73.5" width="4" height="64" fill="#437540"/>
<rect x="144" y="73.5" width="4" height="64" fill="#437540"/>
<rect x="152" y="73.5" width="4" height="64" fill="#437540"/>
<rect x="160" y="73.5" width="4" height="64" fill="#437540"/>
<rect x="168" y="73.5" width="4" height="64" fill="#437540"/>
<rect x="176" y="73.5" width="4" height="64" fill="#437540"/>
<rect x="184" y="73.5" width="4" height="64" fill="#437540"/>
<rect x="192" y="73.5" width="4" height="64" fill="#437540"/>
<rect x="200" y="73.5" width="4" height="64" fill="#437540"/>
<rect x="208" y="73.5" width="4" height="64" fill="#437540"/>
<rect x="216" y="73.5" width="4" height="64" fill="#437540"/>
<rect x="224" y="73.5" width="4" height="64" fill="#437540"/>
<rect x="232" y="73.5" width="4" height="64" fill="#437540"/>
<rect x="240" y="73.5" width="4" height="64" fill="#437540"/>
<rect x="248" y="73.5" width="4" height="64" fill="#437540"/>
<rect x="256" y="73.5" width="4" height="64" fill="#437540"/>
<rect x="264" y="73.5" width="4" height="64" fill="#437540"/>
<rect x="272" y="73.5" width="4" height="64" fill="#437540"/>
<rect x="280" y="73.5" width="4" height="64" fill="#437540"/>
<rect x="288" y="73.5" width="4" height="64" fill="#437540"/>
<rect x="296" y="73.5" width="4" height="64" fill="#437540"/>
<rect x="304" y="73.5" width="4" height="64" fill="#437540"/>
<rect x="312" y="73.5" width="4" height="64" fill="#437540"/>
<rect x="320" y="73.5" width="4" height="64" fill="#437540"/>
<rect x="328" y="73.5" width="4" height="64" fill="#437540"/>
<rect x="336" y="73.5" width="4" height="64" fill="#437540"/>
<rect x="344" y="73.5" width="4" height="64" fill="#437540"/>
<rect x="352" y="73.5" width="4" height="64" fill="#437540"/>
<rect x="360" y="73.5" width="4" height="64" fill="#437540"/>
<rect x="368" y="73.5" width="4" height="64" fill="#437540"/>
<rect x="376" y="73.5" width="4" height="64" fill="#437540"/>
<rect x="384" y="73.5" width="4" height="64" fill="#437540"/>
<rect x="392" y="73.5" width="4" height="64" fill="#437540"/>
<rect x="400" y="73.5" width="4" height="64" fill="#437540"/>
<rect x="408" y="73.5" width="4" height="64" fill="#437540"/>
<rect x="416" y="73.5" width="4" height="64" fill="#437540"/>
<rect x="424" y="73.5" width="4" height="64" fill="#437540"/>
<rect x="432" y="73.5" width="4" height="64" fill="#437540"/>
<rect x="440" y="73.5" width="4" height="64" fill="#437540"/>
<rect x="448" y="73.5" width="4" height="64" fill="#437540"/>
<rect x="456" y="73.5" width="4" height="64" fill="#437540"/>
<rect x="464" y="73.5" width="4" height="64" fill="#437540"/>
<rect x="472" y="73.5" width="4" height="64" fill="#437540"/>
<rect x="480" y="73.5" width="4" height="64" fill="#437540"/>
<rect x="488" y="73.5" width="4" height="64" fill="#437540"/>
<rect x="496" y="73.5" width="4" height="64" fill="#437540"/>
<rect x="504" y="73.5" width="4" height="64" fill="#437540"/>
<rect x="512" y="73.5" width="4" height="64" fill="#437540"/>
<rect x="520" y="73.5" width="4" height="64" fill="#437540"/>
<rect x="528" y="73.5" width="4" height="64" fill="#437540"/>
</g>
<path d="M20.848 169.692C20.144 169.692 19.5413 169.559 19.04 169.292C18.5387 169.015 18.1387 168.647 17.84 168.188C17.552 167.719 17.376 167.207 17.312 166.652H18.56C18.6667 167.249 18.9227 167.713 19.328 168.044C19.7333 168.364 20.2453 168.524 20.864 168.524C21.4293 168.524 21.9307 168.353 22.368 168.012C22.8053 167.671 23.1573 167.153 23.424 166.46C23.7013 165.756 23.856 164.865 23.888 163.788C23.888 163.756 23.888 163.724 23.888 163.692C23.888 163.66 23.888 163.628 23.888 163.596C23.728 163.927 23.4933 164.236 23.184 164.524C22.8747 164.812 22.5067 165.041 22.08 165.212C21.664 165.383 21.1947 165.468 20.672 165.468C20.0427 165.468 19.4453 165.319 18.88 165.02C18.3253 164.721 17.872 164.305 17.52 163.772C17.1787 163.228 17.008 162.593 17.008 161.868C17.008 161.239 17.1627 160.636 17.472 160.06C17.7813 159.484 18.224 159.015 18.8 158.652C19.376 158.289 20.0587 158.108 20.848 158.108C21.648 158.108 22.3253 158.263 22.88 158.572C23.4347 158.871 23.8773 159.276 24.208 159.788C24.5493 160.289 24.7947 160.86 24.944 161.5C25.0933 162.14 25.168 162.791 25.168 163.452C25.168 164.679 24.9973 165.761 24.656 166.7C24.3253 167.639 23.8347 168.375 23.184 168.908C22.544 169.431 21.7653 169.692 20.848 169.692ZM20.944 164.3C21.4347 164.3 21.8773 164.188 22.272 163.964C22.6667 163.74 22.976 163.436 23.2 163.052C23.4347 162.668 23.552 162.247 23.552 161.788C23.552 161.297 23.4347 160.865 23.2 160.492C22.976 160.119 22.6667 159.825 22.272 159.612C21.8773 159.399 21.4347 159.292 20.944 159.292C20.4533 159.292 20.0107 159.404 19.616 159.628C19.232 159.841 18.928 160.135 18.704 160.508C18.48 160.881 18.368 161.313 18.368 161.804C18.368 162.305 18.48 162.743 18.704 163.116C18.928 163.489 19.232 163.783 19.616 163.996C20.0107 164.199 20.4533 164.3 20.944 164.3ZM31.5349 169.692C30.5535 169.692 29.7055 169.452 28.9909 168.972C28.2869 168.481 27.7482 167.804 27.3749 166.94C27.0015 166.065 26.8149 165.052 26.8149 163.9C26.8149 162.748 27.0015 161.74 27.3749 160.876C27.7482 160.001 28.2869 159.324 28.9909 158.844C29.7055 158.353 30.5535 158.108 31.5349 158.108C32.5162 158.108 33.3535 158.353 34.0469 158.844C34.7509 159.324 35.2895 160.001 35.6629 160.876C36.0362 161.74 36.2229 162.748 36.2229 163.9C36.2229 165.052 36.0362 166.065 35.6629 166.94C35.2895 167.804 34.7509 168.481 34.0469 168.972C33.3535 169.452 32.5162 169.692 31.5349 169.692ZM31.5189 168.508C32.1589 168.508 32.7295 168.327 33.2309 167.964C33.7322 167.591 34.1269 167.063 34.4149 166.38C34.7029 165.687 34.8469 164.86 34.8469 163.9C34.8469 162.94 34.7029 162.119 34.4149 161.436C34.1269 160.743 33.7322 160.215 33.2309 159.852C32.7295 159.489 32.1589 159.308 31.5189 159.308C30.8789 159.308 30.3029 159.489 29.7909 159.852C29.2895 160.215 28.8949 160.743 28.6069 161.436C28.3295 162.119 28.1909 162.94 28.1909 163.9C28.1909 164.86 28.3295 165.687 28.6069 166.38C28.8949 167.063 29.2895 167.591 29.7909 167.964C30.3029 168.327 30.8789 168.508 31.5189 168.508ZM45.9064 169.692C45.1277 169.692 44.445 169.511 43.8584 169.148C43.2717 168.775 42.8184 168.268 42.4984 167.628C42.1784 166.988 42.0184 166.263 42.0184 165.452C42.0184 164.641 42.1784 163.921 42.4984 163.292C42.8184 162.652 43.2717 162.151 43.8584 161.788C44.4557 161.425 45.1437 161.244 45.9224 161.244C46.5837 161.244 47.1597 161.377 47.6504 161.644C48.1517 161.911 48.5357 162.284 48.8024 162.764V157.98H50.1464V169.5H48.9304L48.8184 168.172C48.6477 168.439 48.429 168.689 48.1624 168.924C47.8957 169.148 47.5757 169.335 47.2024 169.484C46.829 169.623 46.397 169.692 45.9064 169.692ZM46.0664 168.524C46.5997 168.524 47.069 168.396 47.4744 168.14C47.8797 167.884 48.1944 167.532 48.4184 167.084C48.6424 166.625 48.7544 166.087 48.7544 165.468C48.7544 164.86 48.6424 164.327 48.4184 163.868C48.1944 163.409 47.8797 163.052 47.4744 162.796C47.069 162.54 46.5997 162.412 46.0664 162.412C45.5437 162.412 45.0797 162.54 44.6744 162.796C44.269 163.052 43.9544 163.409 43.7304 163.868C43.5064 164.327 43.3944 164.86 43.3944 165.468C43.3944 166.087 43.5064 166.625 43.7304 167.084C43.9544 167.532 44.269 167.884 44.6744 168.14C45.0797 168.396 45.5437 168.524 46.0664 168.524ZM55.0096 169.692C54.359 169.692 53.815 169.58 53.3776 169.356C52.9403 169.121 52.615 168.817 52.4016 168.444C52.1883 168.06 52.0816 167.644 52.0816 167.196C52.0816 166.652 52.2203 166.193 52.4976 165.82C52.7856 165.436 53.1856 165.148 53.6976 164.956C54.2203 164.753 54.8336 164.652 55.5376 164.652H57.6656C57.6656 164.151 57.5856 163.735 57.4256 163.404C57.2763 163.063 57.0523 162.807 56.7536 162.636C56.4656 162.465 56.103 162.38 55.6656 162.38C55.1536 162.38 54.711 162.508 54.3376 162.764C53.9643 163.02 53.735 163.399 53.6496 163.9H52.2736C52.3376 163.324 52.5296 162.844 52.8496 162.46C53.1803 162.065 53.5963 161.767 54.0976 161.564C54.599 161.351 55.1216 161.244 55.6656 161.244C56.4123 161.244 57.031 161.383 57.5216 161.66C58.023 161.927 58.3963 162.305 58.6416 162.796C58.887 163.276 59.0096 163.847 59.0096 164.508V169.5H57.8096L57.7296 168.076C57.623 168.3 57.4843 168.513 57.3136 168.716C57.1536 168.908 56.9616 169.079 56.7376 169.228C56.5136 169.367 56.2576 169.479 55.9696 169.564C55.6923 169.649 55.3723 169.692 55.0096 169.692ZM55.2176 168.556C55.591 168.556 55.927 168.481 56.2256 168.332C56.535 168.172 56.7963 167.959 57.0096 167.692C57.223 167.415 57.383 167.111 57.4896 166.78C57.607 166.449 57.6656 166.103 57.6656 165.74V165.692H55.6496C55.127 165.692 54.7056 165.756 54.3856 165.884C54.0656 166.001 53.8363 166.172 53.6976 166.396C53.559 166.609 53.4896 166.855 53.4896 167.132C53.4896 167.42 53.5536 167.671 53.6816 167.884C53.8203 168.097 54.0176 168.263 54.2736 168.38C54.5403 168.497 54.855 168.556 55.2176 168.556ZM61.7344 173.02L63.7024 168.604H63.2384L60.0704 161.436H61.5264L64.1504 167.596L66.9024 161.436H68.2944L63.1424 173.02H61.7344ZM72.3163 169.692C71.6443 169.692 71.0576 169.58 70.5563 169.356C70.0656 169.132 69.6709 168.823 69.3723 168.428C69.0843 168.023 68.9083 167.548 68.8443 167.004H70.2203C70.2736 167.281 70.3856 167.537 70.5563 167.772C70.7269 168.007 70.9563 168.199 71.2443 168.348C71.5429 168.487 71.9056 168.556 72.3323 168.556C72.7056 168.556 73.0149 168.503 73.2603 168.396C73.5056 168.279 73.6869 168.124 73.8043 167.932C73.9323 167.74 73.9963 167.532 73.9963 167.308C73.9963 166.977 73.9163 166.727 73.7563 166.556C73.6069 166.385 73.3829 166.252 73.0843 166.156C72.7856 166.049 72.4229 165.959 71.9963 165.884C71.6443 165.82 71.2976 165.735 70.9563 165.628C70.6149 165.521 70.3109 165.383 70.0443 165.212C69.7776 165.031 69.5643 164.812 69.4043 164.556C69.2549 164.3 69.1803 163.985 69.1803 163.612C69.1803 163.153 69.2976 162.748 69.5323 162.396C69.7669 162.033 70.1029 161.751 70.5403 161.548C70.9883 161.345 71.5056 161.244 72.0923 161.244C72.9563 161.244 73.6549 161.452 74.1883 161.868C74.7216 162.284 75.0363 162.887 75.1323 163.676H73.8043C73.7509 163.271 73.5749 162.956 73.2763 162.732C72.9883 162.497 72.5883 162.38 72.0763 162.38C71.5749 162.38 71.1909 162.481 70.9243 162.684C70.6683 162.887 70.5403 163.153 70.5403 163.484C70.5403 163.697 70.6096 163.889 70.7483 164.06C70.8976 164.22 71.1109 164.359 71.3883 164.476C71.6763 164.593 72.0283 164.689 72.4443 164.764C72.9776 164.86 73.4629 164.988 73.9003 165.148C74.3376 165.308 74.6896 165.548 74.9563 165.868C75.2336 166.177 75.3723 166.62 75.3723 167.196C75.3723 167.697 75.2443 168.135 74.9883 168.508C74.7429 168.881 74.3909 169.175 73.9323 169.388C73.4736 169.591 72.9349 169.692 72.3163 169.692ZM84.1815 169.692C83.5308 169.692 82.9868 169.58 82.5495 169.356C82.1122 169.121 81.7868 168.817 81.5735 168.444C81.3602 168.06 81.2535 167.644 81.2535 167.196C81.2535 166.652 81.3922 166.193 81.6695 165.82C81.9575 165.436 82.3575 165.148 82.8695 164.956C83.3922 164.753 84.0055 164.652 84.7095 164.652H86.8375C86.8375 164.151 86.7575 163.735 86.5975 163.404C86.4482 163.063 86.2242 162.807 85.9255 162.636C85.6375 162.465 85.2748 162.38 84.8375 162.38C84.3255 162.38 83.8828 162.508 83.5095 162.764C83.1362 163.02 82.9068 163.399 82.8215 163.9H81.4455C81.5095 163.324 81.7015 162.844 82.0215 162.46C82.3522 162.065 82.7682 161.767 83.2695 161.564C83.7708 161.351 84.2935 161.244 84.8375 161.244C85.5842 161.244 86.2028 161.383 86.6935 161.66C87.1948 161.927 87.5682 162.305 87.8135 162.796C88.0588 163.276 88.1815 163.847 88.1815 164.508V169.5H86.9815L86.9015 168.076C86.7948 168.3 86.6562 168.513 86.4855 168.716C86.3255 168.908 86.1335 169.079 85.9095 169.228C85.6855 169.367 85.4295 169.479 85.1415 169.564C84.8642 169.649 84.5442 169.692 84.1815 169.692ZM84.3895 168.556C84.7628 168.556 85.0988 168.481 85.3975 168.332C85.7068 168.172 85.9682 167.959 86.1815 167.692C86.3948 167.415 86.5548 167.111 86.6615 166.78C86.7788 166.449 86.8375 166.103 86.8375 165.74V165.692H84.8215C84.2988 165.692 83.8775 165.756 83.5575 165.884C83.2375 166.001 83.0082 166.172 82.8695 166.396C82.7308 166.609 82.6615 166.855 82.6615 167.132C82.6615 167.42 82.7255 167.671 82.8535 167.884C82.9922 168.097 83.1895 168.263 83.4455 168.38C83.7122 168.497 84.0268 168.556 84.3895 168.556ZM93.4446 173.212C92.7193 173.212 92.074 173.116 91.5086 172.924C90.954 172.743 90.522 172.46 90.2126 172.076C89.9033 171.692 89.7486 171.217 89.7486 170.652C89.7486 170.407 89.7966 170.145 89.8926 169.868C89.9993 169.591 90.1753 169.319 90.4206 169.052C90.6766 168.785 91.034 168.545 91.4926 168.332L92.4206 168.876C91.8553 169.111 91.4873 169.377 91.3166 169.676C91.146 169.985 91.0606 170.268 91.0606 170.524C91.0606 170.876 91.162 171.169 91.3646 171.404C91.5673 171.639 91.85 171.815 92.2126 171.932C92.5753 172.049 92.986 172.108 93.4446 172.108C93.9033 172.108 94.298 172.044 94.6286 171.916C94.9593 171.788 95.2153 171.607 95.3966 171.372C95.578 171.137 95.6686 170.86 95.6686 170.54C95.6686 170.167 95.53 169.852 95.2526 169.596C94.9753 169.351 94.4473 169.207 93.6686 169.164C93.0393 169.121 92.5113 169.063 92.0846 168.988C91.658 168.913 91.306 168.828 91.0286 168.732C90.7513 168.625 90.5166 168.508 90.3246 168.38C90.1433 168.252 89.978 168.119 89.8286 167.98V167.612L91.3806 166.076L92.5486 166.492L90.9486 167.932L91.1566 167.372C91.274 167.457 91.386 167.537 91.4926 167.612C91.5993 167.687 91.7433 167.751 91.9246 167.804C92.106 167.857 92.3566 167.905 92.6766 167.948C93.0073 167.991 93.4393 168.033 93.9726 168.076C94.7086 168.129 95.2953 168.257 95.7326 168.46C96.1806 168.663 96.5006 168.935 96.6926 169.276C96.8953 169.617 96.9966 170.023 96.9966 170.492C96.9966 170.951 96.8686 171.383 96.6126 171.788C96.3673 172.204 95.9833 172.545 95.4606 172.812C94.938 173.079 94.266 173.212 93.4446 173.212ZM93.4286 166.972C92.7566 166.972 92.1806 166.844 91.7006 166.588C91.2313 166.332 90.874 165.991 90.6286 165.564C90.3833 165.127 90.2606 164.641 90.2606 164.108C90.2606 163.575 90.3833 163.095 90.6286 162.668C90.8846 162.241 91.2473 161.9 91.7166 161.644C92.186 161.377 92.7566 161.244 93.4286 161.244C94.1006 161.244 94.6713 161.377 95.1406 161.644C95.61 161.9 95.9673 162.241 96.2126 162.668C96.458 163.095 96.5806 163.575 96.5806 164.108C96.5806 164.641 96.458 165.127 96.2126 165.564C95.9673 165.991 95.61 166.332 95.1406 166.588C94.6713 166.844 94.1006 166.972 93.4286 166.972ZM93.4286 165.868C94.0046 165.868 94.458 165.719 94.7886 165.42C95.1193 165.121 95.2846 164.684 95.2846 164.108C95.2846 163.543 95.1193 163.111 94.7886 162.812C94.458 162.513 94.0046 162.364 93.4286 162.364C92.8633 162.364 92.4046 162.513 92.0526 162.812C91.7113 163.111 91.5406 163.543 91.5406 164.108C91.5406 164.684 91.7113 165.121 92.0526 165.42C92.394 165.719 92.8526 165.868 93.4286 165.868ZM94.7406 162.572L94.3406 161.436H97.6366V162.444L94.7406 162.572ZM102.47 169.692C101.723 169.692 101.051 169.521 100.454 169.18C99.8567 168.828 99.3873 168.337 99.046 167.708C98.7047 167.068 98.534 166.327 98.534 165.484C98.534 164.62 98.7047 163.873 99.046 163.244C99.398 162.604 99.8727 162.113 100.47 161.772C101.078 161.42 101.755 161.244 102.502 161.244C103.27 161.244 103.947 161.42 104.534 161.772C105.131 162.113 105.601 162.604 105.942 163.244C106.294 163.873 106.47 164.615 106.47 165.468C106.47 166.321 106.294 167.068 105.942 167.708C105.59 168.337 105.115 168.828 104.518 169.18C103.921 169.521 103.238 169.692 102.47 169.692ZM102.486 168.54C102.945 168.54 103.371 168.428 103.766 168.204C104.161 167.969 104.481 167.623 104.726 167.164C104.971 166.705 105.094 166.14 105.094 165.468C105.094 164.785 104.971 164.22 104.726 163.772C104.491 163.313 104.177 162.972 103.782 162.748C103.398 162.513 102.971 162.396 102.502 162.396C102.054 162.396 101.627 162.513 101.222 162.748C100.827 162.972 100.507 163.313 100.262 163.772C100.027 164.22 99.91 164.785 99.91 165.468C99.91 166.14 100.027 166.705 100.262 167.164C100.507 167.623 100.822 167.969 101.206 168.204C101.601 168.428 102.027 168.54 102.486 168.54Z" fill="#686868"/>
<path d="M492.824 169.5V159.404H489.48V158.3H497.512V159.404H494.168V169.5H492.824ZM501.251 169.692C500.505 169.692 499.833 169.521 499.235 169.18C498.638 168.828 498.169 168.337 497.827 167.708C497.486 167.068 497.315 166.327 497.315 165.484C497.315 164.62 497.486 163.873 497.827 163.244C498.179 162.604 498.654 162.113 499.251 161.772C499.859 161.42 500.537 161.244 501.283 161.244C502.051 161.244 502.729 161.42 503.315 161.772C503.913 162.113 504.382 162.604 504.723 163.244C505.075 163.873 505.251 164.615 505.251 165.468C505.251 166.321 505.075 167.068 504.723 167.708C504.371 168.337 503.897 168.828 503.299 169.18C502.702 169.521 502.019 169.692 501.251 169.692ZM501.267 168.54C501.726 168.54 502.153 168.428 502.547 168.204C502.942 167.969 503.262 167.623 503.507 167.164C503.753 166.705 503.875 166.14 503.875 165.468C503.875 164.785 503.753 164.22 503.507 163.772C503.273 163.313 502.958 162.972 502.563 162.748C502.179 162.513 501.753 162.396 501.283 162.396C500.835 162.396 500.409 162.513 500.003 162.748C499.609 162.972 499.289 163.313 499.043 163.772C498.809 164.22 498.691 164.785 498.691 165.468C498.691 166.14 498.809 166.705 499.043 167.164C499.289 167.623 499.603 167.969 499.987 168.204C500.382 168.428 500.809 168.54 501.267 168.54ZM510.688 169.692C509.909 169.692 509.226 169.511 508.64 169.148C508.053 168.775 507.6 168.268 507.28 167.628C506.96 166.988 506.8 166.263 506.8 165.452C506.8 164.641 506.96 163.921 507.28 163.292C507.6 162.652 508.053 162.151 508.64 161.788C509.237 161.425 509.925 161.244 510.704 161.244C511.365 161.244 511.941 161.377 512.432 161.644C512.933 161.911 513.317 162.284 513.584 162.764V157.98H514.928V169.5H513.712L513.6 168.172C513.429 168.439 513.21 168.689 512.944 168.924C512.677 169.148 512.357 169.335 511.984 169.484C511.61 169.623 511.178 169.692 510.688 169.692ZM510.848 168.524C511.381 168.524 511.85 168.396 512.256 168.14C512.661 167.884 512.976 167.532 513.2 167.084C513.424 166.625 513.536 166.087 513.536 165.468C513.536 164.86 513.424 164.327 513.2 163.868C512.976 163.409 512.661 163.052 512.256 162.796C511.85 162.54 511.381 162.412 510.848 162.412C510.325 162.412 509.861 162.54 509.456 162.796C509.05 163.052 508.736 163.409 508.512 163.868C508.288 164.327 508.176 164.86 508.176 165.468C508.176 166.087 508.288 166.625 508.512 167.084C508.736 167.532 509.05 167.884 509.456 168.14C509.861 168.396 510.325 168.524 510.848 168.524ZM519.791 169.692C519.14 169.692 518.596 169.58 518.159 169.356C517.722 169.121 517.396 168.817 517.183 168.444C516.97 168.06 516.863 167.644 516.863 167.196C516.863 166.652 517.002 166.193 517.279 165.82C517.567 165.436 517.967 165.148 518.479 164.956C519.002 164.753 519.615 164.652 520.319 164.652H522.447C522.447 164.151 522.367 163.735 522.207 163.404C522.058 163.063 521.834 162.807 521.535 162.636C521.247 162.465 520.884 162.38 520.447 162.38C519.935 162.38 519.492 162.508 519.119 162.764C518.746 163.02 518.516 163.399 518.431 163.9H517.055C517.119 163.324 517.311 162.844 517.631 162.46C517.962 162.065 518.378 161.767 518.879 161.564C519.38 161.351 519.903 161.244 520.447 161.244C521.194 161.244 521.812 161.383 522.303 161.66C522.804 161.927 523.178 162.305 523.423 162.796C523.668 163.276 523.791 163.847 523.791 164.508V169.5H522.591L522.511 168.076C522.404 168.3 522.266 168.513 522.095 168.716C521.935 168.908 521.743 169.079 521.519 169.228C521.295 169.367 521.039 169.479 520.751 169.564C520.474 169.649 520.154 169.692 519.791 169.692ZM519.999 168.556C520.372 168.556 520.708 168.481 521.007 168.332C521.316 168.172 521.578 167.959 521.791 167.692C522.004 167.415 522.164 167.111 522.271 166.78C522.388 166.449 522.447 166.103 522.447 165.74V165.692H520.431C519.908 165.692 519.487 165.756 519.167 165.884C518.847 166.001 518.618 166.172 518.479 166.396C518.34 166.609 518.271 166.855 518.271 167.132C518.271 167.42 518.335 167.671 518.463 167.884C518.602 168.097 518.799 168.263 519.055 168.38C519.322 168.497 519.636 168.556 519.999 168.556ZM526.516 173.02L528.484 168.604H528.02L524.852 161.436H526.308L528.932 167.596L531.684 161.436H533.076L527.924 173.02H526.516Z" fill="#686868"/>
<defs>
<clipPath id="clip0_2_4476">
<rect width="518" height="64" fill="white" transform="translate(16 73.5)"/>
</clipPath>
</defs>
</svg>
