<svg width="104" height="113" viewBox="0 0 104 113" fill="none" xmlns="http://www.w3.org/2000/svg">
<path d="M89.1 10.3 91 12.3 87.5 55c-.5 8.2-8.3 31.1-41.4 55v.1l-.1-.1-.1.1v-.1C12.9 86.1 7 64.3 6.5 56L3 13.3 47 4l.1-1 42 7.3Z" fill="black" stroke="black" stroke-width=".7"/>
<path d="M89 10.3 85.4 53C84.9 61.1 78.1 83.7 45 107.3v.7l-.5-.4-.5.4v-.7C10.9 83.7 4.1 61.1 3.6 53L0 10.3 45 1l44 9.3Z" fill="white" stroke="black"/>
<path d="m45.5 23.2-2.7 1.4.5-2.9-2.1-2.1 3-.4 1.3-2.7 1.3 2.7 3 .4-2.1 2.1.5 2.9-2.7-1.4ZM31.5 27.2l-2.7 1.4.5-2.9-2.1-2.1 3-.4 1.3-2.7 1.3 2.7 3 .4-2.1 2.1.5 2.9-2.7-1.4ZM20.5 38.2l-2.7 1.4.5-2.9-2.1-2.1 3-.4 1.3-2.7 1.3 2.7 3 .4-2.1 2.1.5 2.9-2.7-1.4ZM16.5 52.2l-2.7 1.4.5-2.9-2.1-2.1 3-.4 1.3-2.7 1.3 2.7 3 .4-2.1 2.1.5 2.9-2.7-1.4ZM75.5 53.2l-2.7 1.4.5-2.9-2.1-2.1 3-.4 1.3-2.7 1.3 2.7 3 .4-2.1 2.1.5 2.9-2.7-1.4ZM71.5 38.2l-2.7 1.4.5-2.9-2.1-2.1 3-.4 1.3-2.7 1.3 2.7 3 .4-2.1 2.1.5 2.9-2.7-1.4ZM61.5 26.2l-2.7 1.4.5-2.9-2.1-2.1 3-.4 1.3-2.7 1.3 2.7 3 .4-2.1 2.1.5 2.9-2.7-1.4ZM20.5 67.2l-2.7 1.4.5-2.9-2.1-2.1 3-.4 1.3-2.7 1.3 2.7 3 .4-2.1 2.1.5 2.9-2.7-1.4ZM31.5 78.2l-2.7 1.4.5-2.9-2.1-2.1 3-.4 1.3-2.7 1.3 2.7 3 .4-2.1 2.1.5 2.9-2.7-1.4ZM45.5 82.2l-2.7 1.4.5-2.9-2.1-2.1 3-.4 1.3-2.7 1.3 2.7 3 .4-2.1 2.1.5 2.9-2.7-1.4ZM60.5 78.2l-2.7 1.4.5-2.9-2.1-2.1 3-.4 1.3-2.7 1.3 2.7 3 .4-2.1 2.1.5 2.9-2.7-1.4ZM71.5 67.2l-2.7 1.4.5-2.9-2.1-2.1 3-.4 1.3-2.7 1.3 2.7 3 .4-2.1 2.1.5 2.9-2.7-1.4Z" fill="#709ECC" stroke="black" stroke-linecap="round" stroke-linejoin="round"/>
<path d="M35.5 57V43h8.8v1.6h-6.8v4.5h6.2v1.6h-6.2v4.7h6.8V57h-8.8Zm16.7.2c-1 0-1.9-.2-2.7-.6-.8-.4-1.4-1-1.9-1.8-.5-.8-.7-1.8-.7-3.1V43h2v8.8c0 .8.1 1.5.4 2.1.3.5.7.9 1.2 1.2.5.2 1.1.4 1.8.4s1.3-.2 1.8-.4c.5-.3.9-.7 1.1-1.2.3-.6.4-1.3.4-2.1V43h2v8.8c0 1.2-.2 2.3-.7 3.1-.5.8-1.1 1.4-1.9 1.8-.8.3-1.8.5-2.8.5Z" fill="black"/>
<g filter="url(#a)">
<rect x="63" y="73" width="38" height="38" rx="19" fill="#709ECC" shape-rendering="crispEdges"/>
<rect x="63" y="73" width="38" height="38" rx="19" fill="black" fill-opacity=".2" shape-rendering="crispEdges"/>
<rect x="63.5" y="73.5" width="37" height="37" rx="18.5" stroke="black" shape-rendering="crispEdges"/>
<path d="m72.4 92 6.4 6.4 12.8-12.8" stroke="white" stroke-width="1.6"/>
</g>
<defs><filter id="a" x="63" y="73" width="40" height="40" filterUnits="userSpaceOnUse" color-interpolation-filters="sRGB"><feFlood flood-opacity="0"/><feColorMatrix in="SourceAlpha" type="matrix" values="0 0 0 0 0 0 0 0 0 0 0 0 0 0 0 0 0 0 127 0"/><feOffset dx="2" dy="2"/><feComposite in2="hardAlpha" operator="out"/><feColorMatrix type="matrix" values="0 0 0 0 0 0 0 0 0 0 0 0 0 0 0 0 0 0 1 0"/><feBlend in2="BackgroundImageFix"/><feBlend in="SourceGraphic"/></filter></defs>
</svg>
